<svg xmlns="http://www.w3.org/2000/svg" width="205.031" height="163.581" viewBox="0 0 205.031 163.581">
  <g id="accilarate-3" transform="translate(-465.969 -336)">
    <g id="Group_84" data-name="Group 84" transform="translate(443.479 351.472)">
      <g id="Group_83" data-name="Group 83" transform="translate(0 0)">
        <g id="Group_74" data-name="Group 74" transform="translate(66.623)">
          <g id="Group_52" data-name="Group 52" transform="translate(47.271 34.135)">
            <g id="Group_51" data-name="Group 51" transform="translate(4.909 63.921)">
              <line id="Line_17" data-name="Line 17" x1="29.562" y2="46.677" transform="translate(0)" fill="none" stroke="#213033" stroke-miterlimit="10" stroke-width="1.5"/>
              <line id="Line_18" data-name="Line 18" x2="27.104" y2="46.772" transform="translate(3.805)" fill="none" stroke="#213033" stroke-miterlimit="10" stroke-width="1.5"/>
            </g>
            <path id="Path_52" data-name="Path 52" d="M465.625,158.633s4.7,4.33,23.389,2.45,30.459-11.562,31.416-33.245,8.781-34.557-10.735-36.925-45.023,47.219-45.023,47.219Z" transform="translate(-464.672 -90.914)" fill="#9ba5b0"/>
          </g>
          <g id="Group_73" data-name="Group 73" transform="translate(0)">
            <g id="Group_61" data-name="Group 61" transform="translate(0 75.546)">
              <g id="Group_56" data-name="Group 56" transform="translate(0 1.768)">
                <g id="Group_55" data-name="Group 55" transform="translate(0 46.279)">
                  <g id="Group_53" data-name="Group 53" transform="translate(13.233)">
                    <path id="Path_54" data-name="Path 54" d="M551.228,204.417l7.92-.034,3.842-12.6-7.388-1.713Z" transform="translate(-551.228 -190.072)" fill="#ffc9bd"/>
                  </g>
                  <g id="Group_54" data-name="Group 54" transform="translate(0 11.931)">
                    <path id="Path_55" data-name="Path 55" d="M574.2,204.039c-1.864.5-6.083,2.125-8.061-.743l-13.376,7.248,23.613-.155-1.1-5.64A.863.863,0,0,0,574.2,204.039Z" transform="translate(-552.76 -203.296)" fill="#090b0c"/>
                    <rect id="Rectangle_15" data-name="Rectangle 15" width="23.613" height="2.047" transform="translate(23.627 9.139) rotate(179.623)" fill="#fff"/>
                  </g>
                </g>
                <path id="Path_56" data-name="Path 56" d="M562.181,138.775,547.2,143.842a13.059,13.059,0,0,0-8.254,8.389l-13.467,39.25,14.186,1.68,15.557-38.383Z" transform="translate(-513.957 -138.775)" fill="#32b6d8"/>
              </g>
              <g id="Group_60" data-name="Group 60" transform="translate(33.977)">
                <g id="Group_59" data-name="Group 59" transform="translate(5.183 49.778)">
                  <g id="Group_57" data-name="Group 57" transform="translate(9.814)">
                    <path id="Path_57" data-name="Path 57" d="M515.424,204.588l7.92-.033-4.113-12.565-7.921.034Z" transform="translate(-511.31 -191.99)" fill="#ffc9bd"/>
                  </g>
                  <g id="Group_58" data-name="Group 58" transform="translate(0 10.201)">
                    <path id="Path_58" data-name="Path 58" d="M530.792,204.039c-1.864.5-6.083,2.125-8.061-.743l-13.376,7.248,23.612-.155-1.1-5.64A.862.862,0,0,0,530.792,204.039Z" transform="translate(-509.355 -203.296)" fill="#090b0c"/>
                    <rect id="Rectangle_16" data-name="Rectangle 16" width="23.613" height="2.047" transform="translate(23.626 9.139) rotate(179.623)" fill="#fff"/>
                  </g>
                </g>
                <path id="Path_59" data-name="Path 59" d="M534.088,136.815s5.7,13.909-5.311,18.454c0,0-8.407,2.674-29.16,1.538l10.824,34.267-13.222,1.452-13.7-36.9a9.626,9.626,0,0,1,4.271-11.722l12.487-7.089Z" transform="translate(-482.915 -136.815)" fill="#2b9bb8"/>
              </g>
            </g>
            <g id="Group_67" data-name="Group 67" transform="translate(17.825 33.233)">
              <g id="Group_63" data-name="Group 63" transform="translate(0 2.903)">
                <path id="Path_60" data-name="Path 60" d="M514.768,93.132s-3.638.032-5.215,5.459-5.941,18.48-5.941,18.48l10.719,8.206,1.641-16.072Z" transform="translate(-465.846 -93.132)" fill="#c1ccff"/>
                <g id="Group_62" data-name="Group 62" transform="translate(0 23.939)">
                  <path id="Path_61" data-name="Path 61" d="M556.211,128.012H547a7.248,7.248,0,0,0-4.6,1.644l-2.934,2.406L541,133.118h16.247Z" transform="translate(-539.47 -120.483)" fill="#ffc9bd"/>
                  <path id="Path_62" data-name="Path 62" d="M530.018,119.667l-22.378,4.962.671,6.378h29.763l.671-10.259Z" transform="translate(-492.251 -119.667)" fill="#c1ccff"/>
                </g>
              </g>
              <g id="Group_64" data-name="Group 64" transform="translate(44.301)">
                <path id="Path_63" data-name="Path 63" d="M496.65,89.914,507,93.591l-4.64,35.8H481.324l-.985-16.7s-1.319-1.586-1.588-5.817a18.018,18.018,0,0,1,2.9-11.271l1.674-2.783,8.014-2.419Z" transform="translate(-478.705 -89.914)" fill="#c1ccff"/>
                <path id="Path_64" data-name="Path 64" d="M509.473,101.455a15.278,15.278,0,0,0-.977,14.167l.341,6.682" transform="translate(-506.862 -91.043)" fill="none" stroke="#98abed" stroke-miterlimit="10" stroke-width="0.75"/>
              </g>
              <g id="Group_66" data-name="Group 66" transform="translate(26.568 3.677)">
                <path id="Path_65" data-name="Path 65" d="M484.831,93.99s4.725.375,4.245,8.652c-.32,5.529-1.152,15.783-1.669,21.984a5.633,5.633,0,0,1-5.616,5.165h-7.828l3.614-29.068Z" transform="translate(-438.8 -93.99)" fill="#c1ccff"/>
                <g id="Group_65" data-name="Group 65" transform="translate(0 24.246)">
                  <path id="Path_66" data-name="Path 66" d="M526.761,128.012h-9.21a7.25,7.25,0,0,0-4.6,1.644l-2.934,2.406,1.531,1.056H527.8Z" transform="translate(-510.02 -121.564)" fill="#ffc9bd"/>
                  <path id="Path_67" data-name="Path 67" d="M509.908,120.865l-24.438,4.078.84,7.476H509.89Z" transform="translate(-469.98 -120.865)" fill="#c1ccff"/>
                </g>
                <path id="Path_68" data-name="Path 68" d="M510.052,103.58,508.8,119.6l-21.859,3.648.291,2.588" transform="translate(-471.455 -94.928)" fill="none" stroke="#98abed" stroke-miterlimit="10" stroke-width="0.75"/>
                <line id="Line_19" data-name="Line 19" y1="0.567" x2="5.033" transform="translate(36.528 24.246)" fill="none" stroke="#98abed" stroke-miterlimit="10" stroke-width="0.75"/>
              </g>
            </g>
            <g id="Group_72" data-name="Group 72" transform="translate(63.686)">
              <g id="Group_71" data-name="Group 71" transform="translate(0)">
                <g id="Group_68" data-name="Group 68" transform="translate(1.059 16.925)">
                  <path id="Path_69" data-name="Path 69" d="M506.449,74.663a3.207,3.207,0,1,1-3.567-2.8A3.207,3.207,0,0,1,506.449,74.663Z" transform="translate(-500.057 -71.838)" fill="#efb2a8"/>
                </g>
                <path id="Path_70" data-name="Path 70" d="M486.27,58.2a5.117,5.117,0,1,0,5.117-5.118A5.117,5.117,0,0,0,486.27,58.2Z" transform="translate(-476.591 -53.078)" fill="#000003"/>
                <path id="Path_71" data-name="Path 71" d="M482.814,67.578a9.736,9.736,0,0,0,9.736,9.736c5.377,0,10.669-3.43,10.669-8.807s-5.292-10.666-10.669-10.666A9.737,9.737,0,0,0,482.814,67.578Z" transform="translate(-480.189 -53.544)" fill="#000003"/>
                <path id="Path_72" data-name="Path 72" d="M488.328,84.57l.793,6.945c.273,2.439,1.923,3.574,4.322,3.287h0c2.048-.246,3.844-1.535,3.854-3.6l-1.774-10.869Z" transform="translate(-479.24 -55.744)" fill="#ffc9bd"/>
                <path id="Path_73" data-name="Path 73" d="M490.024,88.029c4.872-.422,7.486-6.435,7.486-6.435l-7.963,2.389Z" transform="translate(-480.555 -55.867)" fill="#dd9790"/>
                <path id="Path_74" data-name="Path 74" d="M495.385,83.312h0c-4.116.218-7.678-2.852-7.969-6.207l-.641-7.919a7.823,7.823,0,0,1,6.86-8.445h0c4.29-.516,8.938,2.454,9.453,6.743l.447,6.376A8.551,8.551,0,0,1,495.385,83.312Z" transform="translate(-484.077 -53.822)" fill="#ffc9bd"/>
                <path id="Path_80" data-name="Path 80" d="M493.9,71.956a11.315,11.315,0,0,1-7.629-7.816L487,60.232s10.55-1,8.484,10.032Z" transform="translate(-475.842 -53.775)" fill="#000003"/>
                <path id="Path_81" data-name="Path 81" d="M506.87,64.562S503.64,68.878,493.3,69.7c0,0-.527-10.492,11.157-9.472Z" transform="translate(-493.298 -53.77)" fill="#000003"/>
                <path id="Path_82" data-name="Path 82" d="M496.412,60.759a12.539,12.539,0,0,0-4.883-2.58,9.2,9.2,0,0,0-4.586,0" transform="translate(-477.107 -53.55)" fill="none" stroke="#fff" stroke-linecap="round" stroke-linejoin="round" stroke-width="0.757"/>
                <path id="Path_83" data-name="Path 83" d="M486.944,71.508l2.466,3.876.675-5.99Z" transform="translate(-470.781 -54.674)" fill="#000003"/>
                <g id="Group_70" data-name="Group 70" transform="translate(17.428 16.192)">
                  <path id="Path_84" data-name="Path 84" d="M488.306,73.85a3.207,3.207,0,1,1-3.566-2.8A3.207,3.207,0,0,1,488.306,73.85Z" transform="translate(-481.914 -71.025)" fill="#ffc9bd"/>
                  <path id="Path_85" data-name="Path 85" d="M484.4,75.538s-.277-2.309,1.974-2.21" transform="translate(-482.191 -71.25)" fill="none" stroke="#201d2f" stroke-linecap="round" stroke-linejoin="round" stroke-width="0.568"/>
                </g>
              </g>
              <path id="Path_86" data-name="Path 86" d="M501.579,92.274s-2.837,3.5-9.263,4.9a8.735,8.735,0,0,1-9.5-4.722s5.8-2.54,7.4-2.54l6.11.493Z" transform="translate(-478.548 -56.681)" fill="#ffc9bd"/>
            </g>
          </g>
        </g>
        <g id="Group_82" data-name="Group 82" transform="translate(0 19.879)">
          <g id="Group_76" data-name="Group 76" transform="translate(22.489 52.873)">
            <g id="Group_75" data-name="Group 75" transform="translate(14.42 2.794)">
              <path id="Path_87" data-name="Path 87" d="M607,136.815l-22.181,69.336-22.736-68.493" transform="translate(-562.082 -136.815)" fill="none" stroke="#213033" stroke-miterlimit="10" stroke-width="2"/>
              <path id="Path_88" data-name="Path 88" d="M494.072,136.815l-22.181,69.336-22.736-68.493" transform="translate(-347.275 -136.815)" fill="none" stroke="#172f33" stroke-miterlimit="10" stroke-width="2"/>
            </g>
            <rect id="Rectangle_17" data-name="Rectangle 17" width="63.098" height="5.587" transform="translate(105.589)" fill="#111d36"/>
            <rect id="Rectangle_18" data-name="Rectangle 18" width="106.992" height="5.587" transform="translate(0)" fill="#24385b"/>
          </g>
          <g id="Group_81" data-name="Group 81" transform="translate(43.008)">
            <g id="Group_77" data-name="Group 77" transform="translate(37.122 50.673)">
              <path id="Path_89" data-name="Path 89" d="M559.627,131.28H532.09a1.108,1.108,0,0,0-1.108,1.108h0a1.108,1.108,0,0,0,1.108,1.109h27.537a1.108,1.108,0,0,0,1.108-1.109h0A1.108,1.108,0,0,0,559.627,131.28Z" transform="translate(-530.982 -131.28)" fill="#090b0c"/>
              <path id="Path_90" data-name="Path 90" d="M536.223,131.28h-19.81a1.109,1.109,0,0,0-1.109,1.108h0a1.109,1.109,0,0,0,1.109,1.109h19.81a1.108,1.108,0,0,0,1.109-1.109h0A1.108,1.108,0,0,0,536.223,131.28Z" transform="translate(-493.434 -131.28)" fill="#3d5056"/>
            </g>
            <g id="Group_78" data-name="Group 78" transform="translate(0)">
              <rect id="Rectangle_19" data-name="Rectangle 19" width="63.29" height="42.315" rx="2.872" transform="translate(1.388 0)" fill="#273237"/>
              <rect id="Rectangle_20" data-name="Rectangle 20" width="63.291" height="42.315" rx="2.872" transform="translate(0 0)" fill="#273237"/>
            </g>
            <g id="Group_80" data-name="Group 80" transform="translate(16.679 19.097)">
              <path id="Path_91" data-name="Path 91" d="M555.353,96.921l15.166,22.64H548.7Z" transform="translate(-536.311 -96.343)" fill="#090b0c"/>
              <g id="Group_79" data-name="Group 79" transform="translate(0)">
                <path id="Path_92" data-name="Path 92" d="M573.386,96.28h9.756a1.384,1.384,0,0,1,1.356,1.659l-6.3,31.026a1.383,1.383,0,0,1-1.356,1.108H566.6a1.383,1.383,0,0,1-1.351-1.679l6.784-31.026A1.383,1.383,0,0,1,573.386,96.28Z" transform="translate(-565.218 -96.28)" fill="#3d5056"/>
                <path id="Path_93" data-name="Path 93" d="M578.546,131.28h-18V133.5h18a1.109,1.109,0,0,0,1.109-1.109h0A1.108,1.108,0,0,0,578.546,131.28Z" transform="translate(-556.131 -99.703)" fill="#3d5056"/>
              </g>
            </g>
          </g>
        </g>
      </g>
    </g>
    <g id="Group_123" data-name="Group 123" transform="translate(615 336)">
      <circle id="Ellipse_5" data-name="Ellipse 5" cx="28" cy="28" r="28" fill="#067cfc"/>
    </g>
    <g id="share" transform="translate(632 353)">
      <g id="Group_125" data-name="Group 125">
        <path id="Path_138" data-name="Path 138" d="M33.258,14.692a3.968,3.968,0,0,0-3.194,1.626L23.788,13.1a3.758,3.758,0,0,0-.117-2.6L30.24,6.551a3.961,3.961,0,1,0-.964-2.568,3.946,3.946,0,0,0,.277,1.432L22.964,9.379a3.976,3.976,0,1,0,.25,4.923l6.256,3.2a3.928,3.928,0,0,0-.2,1.169,3.983,3.983,0,1,0,3.983-3.983Z" transform="translate(-16)" fill="#fff"/>
      </g>
    </g>
  </g>
</svg>
