<svg xmlns="http://www.w3.org/2000/svg" width="190.32" height="160.615" viewBox="0 0 190.32 160.615">
  <g id="accilarate-2" transform="translate(-191.68 -336)">
    <g id="Group_44" data-name="Group 44" transform="translate(146.344 316.166)">
      <g id="Group_37" data-name="Group 37" transform="translate(45.336 34.834)">
        <g id="Group_20" data-name="Group 20" transform="translate(0 33.685)">
          <path id="Path_21" data-name="Path 21" d="M256.807,163.643s-10.595-6.061-6.387-27.251" transform="translate(-243.38 -99.499)" fill="none" stroke="#000103" stroke-miterlimit="10" stroke-width="1.038"/>
          <g id="Group_17" data-name="Group 17">
            <rect id="Rectangle_3" data-name="Rectangle 3" width="5.122" height="41.33" transform="translate(7.274 0.023)" fill="#3f51b5"/>
            <path id="Path_22" data-name="Path 22" d="M254.974,139.751h0a7.82,7.82,0,0,0,7.82-7.82V106.219a7.821,7.821,0,0,0-7.82-7.821h0a7.821,7.821,0,0,0-7.821,7.821v25.713A7.82,7.82,0,0,0,254.974,139.751Z" transform="translate(-247.153 -98.398)" fill="#3f51b5"/>
            <path id="Path_23" data-name="Path 23" d="M251.206,139.751h0a6.928,6.928,0,0,0,6.928-6.928v-27.5a6.928,6.928,0,0,0-6.928-6.928h0a6.928,6.928,0,0,0-6.928,6.928v27.5A6.928,6.928,0,0,0,251.206,139.751Z" transform="translate(-239.703 -98.398)" fill="#2a3f96"/>
          </g>
          <g id="Group_19" data-name="Group 19" transform="translate(5.434 60.727)">
            <g id="Group_18" data-name="Group 18" transform="translate(4.047 4.571)">
              <rect id="Rectangle_4" data-name="Rectangle 4" width="5.895" height="32.499" transform="translate(15.443)" fill="#000003"/>
              <path id="Path_24" data-name="Path 24" d="M216.614,194.849l16.937,7.655-.241,2.17-17.66-5.684Z" transform="translate(-196.801 -166.491)" fill="#000003"/>
              <path id="Path_25" data-name="Path 25" d="M252,194.849,235.06,202.5l.241,2.17,17.66-5.684Z" transform="translate(-235.06 -166.491)" fill="#000003"/>
            </g>
            <path id="Path_26" data-name="Path 26" d="M212.273,208.838a4.048,4.048,0,1,0,4.048-4.047A4.048,4.048,0,0,0,212.273,208.838Z" transform="translate(-176.293 -162.208)" fill="#000103"/>
            <path id="Path_27" data-name="Path 27" d="M249.327,208.838a4.048,4.048,0,1,0,4.047-4.047A4.047,4.047,0,0,0,249.327,208.838Z" transform="translate(-249.327 -162.208)" fill="#000103"/>
            <path id="Path_28" data-name="Path 28" d="M216.4,167.77h34.167a3.416,3.416,0,0,0,3.417-3.416h0a3.416,3.416,0,0,0-3.417-3.417H216.4a3.416,3.416,0,0,0-3.416,3.417h0A3.416,3.416,0,0,0,216.4,167.77Z" transform="translate(-210.595 -160.937)" fill="#3f51b5"/>
          </g>
        </g>
        <g id="Group_36" data-name="Group 36" transform="translate(12.177 0)">
          <g id="Group_24" data-name="Group 24" transform="translate(24.763)">
            <path id="Path_29" data-name="Path 29" d="M224.793,90.878,217.6,98.884l-7.046-7.336L221.361,79.68Z" transform="translate(-210.556 -64.171)" fill="#f1ba9a"/>
            <path id="Path_30" data-name="Path 30" d="M211.4,95.845c.126-.14.9-6.527.9-6.527l2.489,2.752Z" transform="translate(-201.372 -64.45)" fill="#d89877"/>
            <path id="Path_31" data-name="Path 31" d="M213.246,72.249s4.125,2.659,1.956,8.353c0,0-1.617,4.11-3.993,10.005a5.259,5.259,0,0,1-7.856,2.448,15.711,15.711,0,0,1-4.611-5.049l-1.535-3.518c-3.1-9.3,7.028-17.67,15.432-12.618C212.84,71.99,213.042,72.117,213.246,72.249Z" transform="translate(-188.076 -63.9)" fill="#f1ba9a"/>
            <path id="Path_32" data-name="Path 32" d="M200.1,85.409l1.2,2.8a.49.49,0,0,1-.6.66l-2.112-.655Z" transform="translate(-175.477 -64.337)" fill="#f1ba9a"/>
            <path id="Path_34" data-name="Path 34" d="M198.026,69.946a10.013,10.013,0,0,1,7.346-3.83,13.906,13.906,0,0,1,13.845,9.492C205.674,65.272,206.4,79.6,206.4,79.6a17.844,17.844,0,0,0-3.25,2.4c-2.886,3.788-5.569,2.614-5.569,2.614C196.791,77.275,195.756,73.423,198.026,69.946Z" transform="translate(-191.472 -63.777)" fill="#3a3e3f"/>
            <path id="Path_36" data-name="Path 36" d="M200.956,83.4h0a3.081,3.081,0,0,0,3.328-2.388l1.035-4.6s4.31,4.949,6.878.92c0,0,3.5,3.605,4.865-.893s.051-5.67-9.107-8.471L204.221,66.7l-4-.877s-11.313-1.87-9.693,10.615l1.954,10.125,6.621-4.944Z" transform="translate(-186.371 -65.721)" fill="#3a3e3f"/>
            <g id="Group_23" data-name="Group 23" transform="translate(8.917 13.426)">
              <path id="Path_37" data-name="Path 37" d="M209.752,79.251a3.234,3.234,0,1,0,4.373-1.337A3.233,3.233,0,0,0,209.752,79.251Z" transform="translate(-209.373 -77.535)" fill="#f1ba9a"/>
              <path id="Path_38" data-name="Path 38" d="M212.477,82.063a1.88,1.88,0,0,0-1.053-2.8" transform="translate(-208.282 -77.585)" fill="none" stroke="#000" stroke-linecap="round" stroke-linejoin="round" stroke-width="0.519"/>
            </g>
          </g>
          <g id="Group_29" data-name="Group 29" transform="translate(0 27.08)">
            <path id="Path_39" data-name="Path 39" d="M249.746,99.38s.068,5.737-3.711,15.078-2.359,25.588-2.359,25.588-10.56,5.685-26.4,5.482c0,0-1.653-25.291,5.889-40.818,6.9-14.216,18.888-13.094,18.888-13.094Z" transform="translate(-217.124 -91.596)" fill="#fefeff"/>
            <g id="Group_28" data-name="Group 28" transform="translate(18.914 7.761)">
              <g id="Group_27" data-name="Group 27">
                <g id="Group_25" data-name="Group 25" transform="translate(26.034 23.981)">
                  <path id="Path_40" data-name="Path 40" d="M181.79,124.765l21.058,4.655.706,4.655H174.17Z" transform="translate(-174.17 -124.299)" fill="#f1ba9a"/>
                  <path id="Path_41" data-name="Path 41" d="M156.7,134.061s7.835-.187,9.613-6.257l6.637.932a1.4,1.4,0,0,0,1.4-1.4h0a1.4,1.4,0,0,0-1.138-1.374l-5.312-1.577a5.726,5.726,0,0,0-2.1-.01c-1.659.3-5.6,2.364-9.806,5.029Z" transform="translate(-127.317 -124.285)" fill="#f1ba9a"/>
                </g>
                <g id="Group_26" data-name="Group 26">
                  <path id="Path_42" data-name="Path 42" d="M208.951,99.588l21.287,24.448-7.62,9.31-26.034-20.481Z" transform="translate(-196.583 -99.588)" fill="#fefeff"/>
                  <line id="Line_11" data-name="Line 11" x1="8.558" y1="6.733" transform="translate(0 13.276)" fill="none" stroke="#ebeff2" stroke-miterlimit="10" stroke-width="2"/>
                </g>
              </g>
            </g>
          </g>
          <g id="Group_35" data-name="Group 35" transform="translate(0.152 75.53)">
            <g id="Group_33" data-name="Group 33" transform="translate(32.396 5.488)">
              <g id="Group_32" data-name="Group 32" transform="translate(0 38.379)">
                <path id="Path_43" data-name="Path 43" d="M213.149,188.732l-6.929,14-8.757-.568,5.71-15.5Z" transform="translate(-193.984 -186.668)" fill="#f1b495"/>
                <g id="Group_31" data-name="Group 31" transform="translate(0 13.839)">
                  <g id="Group_30" data-name="Group 30">
                    <path id="Path_44" data-name="Path 44" d="M202.648,201.269l12.537,6.758a2.259,2.259,0,0,1,1.131,2.56h0l-27.166-.547,3.15-9.12Z" transform="translate(-189.15 -200.92)" fill="#000003"/>
                  </g>
                </g>
              </g>
              <path id="Path_46" data-name="Path 46" d="M197.6,196l-15.008-2.965L193.253,153.8a9.138,9.138,0,0,1,11.812-6.138h0a9.138,9.138,0,0,1,5.579,11.721Z" transform="translate(-177.582 -147.144)" fill="#203263"/>
            </g>
            <g id="Group_34" data-name="Group 34" transform="translate(0)">
              <path id="Path_47" data-name="Path 47" d="M215.116,141.492l32.4,5.7s2.516,4.492.413,7.179l-3.56,4.549c-.862,1.1-2.183,2.754-3.581,2.754l-39.744-1.009s-12.471,1.223-12.331-13.692Z" transform="translate(-188.715 -141.492)" fill="#203263"/>
              <line id="Line_12" data-name="Line 12" y1="3.299" x2="4.024" transform="translate(45.993 16.474)" fill="none" stroke="#203263" stroke-miterlimit="10" stroke-width="0.779"/>
            </g>
          </g>
        </g>
      </g>
      <g id="Group_43" data-name="Group 43" transform="translate(95.073 50.464)">
        <g id="Group_40" data-name="Group 40" transform="translate(53.688 0)">
          <g id="Group_39" data-name="Group 39" transform="translate(0 0)">
            <g id="Group_38" data-name="Group 38" transform="translate(3.592 22.549)">
              <rect id="Rectangle_6" data-name="Rectangle 6" width="1.722" height="30.617" transform="translate(8.111)" fill="#3a3e3f"/>
              <rect id="Rectangle_7" data-name="Rectangle 7" width="17.336" height="1.721" transform="translate(0 29.214)" fill="#3a3e3f"/>
            </g>
            <rect id="Rectangle_8" data-name="Rectangle 8" width="4.062" height="42.847" transform="translate(3.82 41.674) rotate(-160.116)" fill="#3a3e3f"/>
            <path id="Path_48" data-name="Path 48" d="M138.447,85.032a5.247,5.247,0,0,1-8.884,3.786,60.581,60.581,0,0,1,4-9.019A5.248,5.248,0,0,1,138.447,85.032Z" transform="translate(-123.589 -63.714)" fill="#3a3e3f"/>
            <path id="Path_49" data-name="Path 49" d="M136.159,81.245l-1.745,9.3a3.9,3.9,0,0,1-1.68.173Z" transform="translate(-123.474 -64.168)" fill="#3a3e3f"/>
          </g>
        </g>
        <g id="Group_42" data-name="Group 42" transform="translate(0 52.968)">
          <g id="Group_41" data-name="Group 41">
            <line id="Line_13" data-name="Line 13" y2="71.585" transform="translate(92.306 5.432)" fill="none" stroke="#656668" stroke-miterlimit="10" stroke-width="2.077"/>
            <line id="Line_14" data-name="Line 14" y2="71.585" transform="translate(18.25 5.432)" fill="none" stroke="#656668" stroke-miterlimit="10" stroke-width="2.077"/>
            <rect id="Rectangle_9" data-name="Rectangle 9" width="107.324" height="5.432" fill="#213033"/>
          </g>
        </g>
      </g>
    </g>
    <g id="Group_124" data-name="Group 124" transform="translate(326 336)">
      <circle id="Ellipse_5" data-name="Ellipse 5" cx="28" cy="28" r="28" fill="#ea6b2b"/>
    </g>
    <g id="alarm-clock" transform="translate(336.228 337.715)">
      <g id="Group_127" data-name="Group 127" transform="translate(3.111 9.658)">
        <g id="Group_126" data-name="Group 126" transform="translate(0 0)">
          <path id="Path_139" data-name="Path 139" d="M60.093,12.777V10.894h2.489V9.65H56.36v1.244h2.489v1.882a14.322,14.322,0,1,0,9.05,2.737A13.962,13.962,0,0,0,60.093,12.777Zm-.622,27.362A13.066,13.066,0,1,1,72.537,27.072,13.081,13.081,0,0,1,59.471,40.138Z" transform="translate(-45.16 -9.65)" fill="#fff"/>
        </g>
      </g>
      <g id="Group_129" data-name="Group 129" transform="translate(16.8 20.236)">
        <g id="Group_128" data-name="Group 128" transform="translate(0)">
          <path id="Path_140" data-name="Path 140" d="M201.61,163.192v6.587l1.062.7a.621.621,0,0,0,.182-.44v-6.844Z" transform="translate(-201.61 -163.192)" fill="#fff"/>
        </g>
      </g>
      <g id="Group_131" data-name="Group 131" transform="translate(16.8 15.258)">
        <g id="Group_130" data-name="Group 130">
          <rect id="Rectangle_33" data-name="Rectangle 33" width="1.244" height="1.867" fill="#fff"/>
        </g>
      </g>
      <g id="Group_133" data-name="Group 133" transform="translate(10.86 16.337)">
        <g id="Group_132" data-name="Group 132" transform="translate(0 0)">
          <path id="Path_141" data-name="Path 141" d="M158.721,106.6l-.539.311-.539.311,1.1,1.9,1.078-.622Z" transform="translate(-157.643 -106.599)" fill="#fff"/>
        </g>
      </g>
      <g id="Group_135" data-name="Group 135" transform="translate(6.679 20.519)">
        <g id="Group_134" data-name="Group 134" transform="translate(0 0)">
          <rect id="Rectangle_34" data-name="Rectangle 34" width="1.244" height="2.19" transform="matrix(0.5, -0.866, 0.866, 0.5, 0, 1.078)" fill="#fff"/>
        </g>
      </g>
      <g id="Group_137" data-name="Group 137" transform="translate(5.6 26.458)">
        <g id="Group_136" data-name="Group 136" transform="translate(0 0)">
          <rect id="Rectangle_35" data-name="Rectangle 35" width="1.867" height="1.244" fill="#fff"/>
        </g>
      </g>
      <g id="Group_139" data-name="Group 139" transform="translate(6.679 31.471)">
        <g id="Group_138" data-name="Group 138" transform="translate(0 0)">
          <rect id="Rectangle_36" data-name="Rectangle 36" width="2.19" height="1.244" transform="translate(0 1.095) rotate(-29.993)" fill="#fff"/>
        </g>
      </g>
      <g id="Group_141" data-name="Group 141" transform="translate(10.86 35.301)">
        <g id="Group_140" data-name="Group 140" transform="translate(0 0)">
          <rect id="Rectangle_37" data-name="Rectangle 37" width="2.19" height="1.244" transform="translate(0 1.897) rotate(-60.007)" fill="#fff"/>
        </g>
      </g>
      <g id="Group_143" data-name="Group 143" transform="translate(7.599 39.836)">
        <g id="Group_142" data-name="Group 142" transform="translate(0 0)">
          <rect id="Rectangle_38" data-name="Rectangle 38" width="3.627" height="1.244" transform="matrix(0.5, -0.866, 0.866, 0.5, 0, 3.141)" fill="#fff"/>
        </g>
      </g>
      <g id="Group_145" data-name="Group 145" transform="translate(24.406 39.837)">
        <g id="Group_144" data-name="Group 144" transform="translate(0 0)">
          <rect id="Rectangle_39" data-name="Rectangle 39" width="1.244" height="3.628" transform="translate(0 0.622) rotate(-29.993)" fill="#fff"/>
        </g>
      </g>
      <g id="Group_147" data-name="Group 147" transform="translate(16.8 37.036)">
        <g id="Group_146" data-name="Group 146">
          <rect id="Rectangle_40" data-name="Rectangle 40" width="1.244" height="1.867" fill="#fff"/>
        </g>
      </g>
      <g id="Group_149" data-name="Group 149" transform="translate(21.813 35.306)">
        <g id="Group_148" data-name="Group 148" transform="translate(0 0)">
          <rect id="Rectangle_41" data-name="Rectangle 41" width="1.244" height="2.19" transform="matrix(0.866, -0.5, 0.5, 0.866, 0, 0.622)" fill="#fff"/>
        </g>
      </g>
      <g id="Group_151" data-name="Group 151" transform="translate(25.648 31.471)">
        <g id="Group_150" data-name="Group 150" transform="translate(0 0)">
          <rect id="Rectangle_42" data-name="Rectangle 42" width="1.244" height="2.19" transform="matrix(0.5, -0.866, 0.866, 0.5, 0, 1.078)" fill="#fff"/>
        </g>
      </g>
      <g id="Group_153" data-name="Group 153" transform="translate(27.377 26.458)">
        <g id="Group_152" data-name="Group 152" transform="translate(0 0)">
          <rect id="Rectangle_43" data-name="Rectangle 43" width="1.867" height="1.244" fill="#fff"/>
        </g>
      </g>
      <g id="Group_155" data-name="Group 155" transform="translate(25.647 20.52)">
        <g id="Group_154" data-name="Group 154" transform="translate(0 0)">
          <rect id="Rectangle_44" data-name="Rectangle 44" width="2.19" height="1.244" transform="translate(0 1.095) rotate(-29.993)" fill="#fff"/>
        </g>
      </g>
      <g id="Group_157" data-name="Group 157" transform="translate(21.811 9.576)">
        <g id="Group_156" data-name="Group 156" transform="translate(0 6.759)">
          <rect id="Rectangle_45" data-name="Rectangle 45" width="2.19" height="1.244" transform="translate(0 1.897) rotate(-60.007)" fill="#fff"/>
        </g>
        <g id="Group_170" data-name="Group 170" transform="translate(2.223 2.313)">
          <rect id="Rectangle_45-2" data-name="Rectangle 45" width="2.19" height="1.244" transform="translate(0 1.897) rotate(-60.007)" fill="#fff"/>
        </g>
        <g id="Group_171" data-name="Group 171" transform="matrix(0.848, -0.53, 0.53, 0.848, 1.851, 1.446)">
          <rect id="Rectangle_45-3" data-name="Rectangle 45" width="3.302" height="1.244" transform="matrix(0.5, 0.866, -0.866, 0.5, 1.078, 0)" fill="#fff"/>
        </g>
      </g>
      <g id="Group_163" data-name="Group 163" transform="translate(0 30.191)">
        <g id="Group_162" data-name="Group 162" transform="translate(0 0)">
          <path id="Path_144" data-name="Path 144" d="M1.244,307.694H0c0,.194.032,4.756,2.833,6.157l.557-1.113C1.277,311.682,1.244,307.734,1.244,307.694Z" transform="translate(0 -307.694)" fill="#fff"/>
        </g>
      </g>
      <g id="Group_165" data-name="Group 165" transform="translate(0 27.703)">
        <g id="Group_164" data-name="Group 164" transform="translate(0 0)">
          <rect id="Rectangle_46" data-name="Rectangle 46" width="1.244" height="1.244" fill="#fff"/>
        </g>
      </g>
      <g id="Group_167" data-name="Group 167" transform="translate(33.099 22.351)">
        <g id="Group_166" data-name="Group 166" transform="translate(0 0)">
          <path id="Path_145" data-name="Path 145" d="M481.459,193.9l-1,.743c.017.023,1.666,2.359.519,6.946l1.207.3C483.489,196.687,481.542,194.012,481.459,193.9Z" transform="translate(-480.461 -193.901)" fill="#fff"/>
        </g>
      </g>
      <g id="Group_169" data-name="Group 169" transform="translate(32.418 31.16)">
        <g id="Group_168" data-name="Group 168" transform="translate(0 0)">
          <rect id="Rectangle_47" data-name="Rectangle 47" width="1.391" height="1.244" transform="translate(0 1.244) rotate(-63.435)" fill="#fff"/>
        </g>
      </g>
    </g>
  </g>
</svg>
