<svg xmlns="http://www.w3.org/2000/svg" width="197.003" height="160.615" viewBox="0 0 197.003 160.615">
  <g id="accilarate-1" transform="translate(-745.997 -336)">
    <g id="Group_120" data-name="Group 120" transform="translate(710.3 356.227)">
      <g id="Group_119" data-name="Group 119" transform="translate(0 0)">
        <g id="Group_114" data-name="Group 114" transform="translate(74.804)">
          <g id="Group_95" data-name="Group 95" transform="translate(47.726 36.164)">
            <path id="Path_97" data-name="Path 97" d="M170.645,386.793h-31.8a3.294,3.294,0,0,1-3.115-4.24L150.914,330.2a3.255,3.255,0,0,1,3.115-2.369h31.8a3.3,3.3,0,0,1,3.115,4.24l-15.188,52.353A3.255,3.255,0,0,1,170.645,386.793Z" transform="translate(-133.245 -327.831)" fill="#111d36"/>
            <path id="Path_98" data-name="Path 98" d="M171.527,386.793h-27.7a3.294,3.294,0,0,1-3.115-4.24L155.9,330.2a3.255,3.255,0,0,1,3.115-2.369h27.7a3.3,3.3,0,0,1,3.114,4.24l-15.188,52.353A3.255,3.255,0,0,1,171.527,386.793Z" transform="translate(-138.504 -327.831)" fill="#304da1"/>
            <g id="Group_94" data-name="Group 94" transform="translate(0.492 58.519)">
              <rect id="Rectangle_25" data-name="Rectangle 25" width="2.863" height="29.841" transform="translate(2.729 43.105) rotate(-90)" fill="#111d36"/>
              <path id="Path_99" data-name="Path 99" d="M197.827,442.6a2.728,2.728,0,1,1-3.138-2.245A2.727,2.727,0,0,1,197.827,442.6Z" transform="translate(-192.407 -400.065)" fill="#111d36"/>
              <rect id="Rectangle_26" data-name="Rectangle 26" width="2.863" height="41.414" transform="translate(16.298)" fill="#111d36"/>
              <path id="Path_100" data-name="Path 100" d="M163.843,442.6a2.728,2.728,0,1,1-3.138-2.245A2.728,2.728,0,0,1,163.843,442.6Z" transform="translate(-128.581 -400.065)" fill="#111d36"/>
            </g>
            <path id="Path_101" data-name="Path 101" d="M190.875,394.191H157.213a2.843,2.843,0,0,1-2.842-2.842h0a2.843,2.843,0,0,1,2.842-2.843h33.662a2.844,2.844,0,0,1,2.843,2.843h0A2.843,2.843,0,0,1,190.875,394.191Z" transform="translate(-154.371 -335.229)" fill="#111d36"/>
          </g>
          <g id="Group_113" data-name="Group 113" transform="translate(0)">
            <path id="Path_102" data-name="Path 102" d="M182.716,297.358l-11.025-1.5-8.828,5.416s12.255,8.938,12.535,14.607-11.413,8.067-11.413,8.067l12.469-.025s12.937.351,17.025-4.562c0,0-13.037.159-18.081-2.222-3.378-1.593,1.165-5.389,0-7.771C172.707,303.87,182.716,297.358,182.716,297.358Z" transform="translate(-114.53 -287.77)" fill="#000103"/>
            <g id="Group_100" data-name="Group 100" transform="translate(0 67.248)">
              <g id="Group_97" data-name="Group 97" transform="translate(25.203 2.351)">
                <g id="Group_96" data-name="Group 96" transform="translate(27.336 45.691)">
                  <path id="Path_103" data-name="Path 103" d="M187.834,427.893l2.956,6.723-4.291,3.6-1.181-1.811a22.942,22.942,0,0,1-14.224,6.672s-4.157-.215,2.6-5.833Z" transform="translate(-169.829 -419.159)" fill="#111d36"/>
                  <path id="Path_104" data-name="Path 104" d="M187.532,426.68l-5.782-8.734-6.32,3.912,4.262,6.746s-6.326,7.19-6.3,7.426-.868,1.454.939,1.246S187.2,430.25,187.532,426.68Z" transform="translate(-169.527 -417.946)" fill="#d48066"/>
                </g>
                <path id="Path_105" data-name="Path 105" d="M194.861,365.91l23.661,46.87L203.7,418.207l-28.814-37.859a8.76,8.76,0,0,1,6.723-14.061Z" transform="translate(-173.078 -365.91)" fill="#d0602b"/>
              </g>
              <g id="Group_99" data-name="Group 99" transform="translate(0)">
                <g id="Group_98" data-name="Group 98" transform="translate(0 48.715)">
                  <path id="Path_106" data-name="Path 106" d="M250.088,435.94l-2.188,8.087h-4.948v-2.093a21.757,21.757,0,0,1-9.8,1.142c-4.852-.761-9.038-1.236-7.611-3.092s7.849-3.19,7.849-3.19Z" transform="translate(-225.258 -420.813)" fill="#111d36"/>
                  <path id="Path_107" data-name="Path 107" d="M243.032,422.554,237.9,433.839s-.666,1.808-4.567,2.379-15.222,1.712-13.8-.666l11.35-4.545,5.17-12.295Z" transform="translate(-213.074 -418.712)" fill="#d48066"/>
                </g>
                <path id="Path_108" data-name="Path 108" d="M225.711,363.232a20.814,20.814,0,0,1,1.037,3.115,15.608,15.608,0,0,1-15.2,19.362H198.092l-18.673,33.935-18.612-1.028,20.956-46.952a9.6,9.6,0,0,1,8.029-5.66Z" transform="translate(-145.812 -363.232)" fill="#ea6b2b"/>
              </g>
            </g>
            <g id="Group_107" data-name="Group 107" transform="translate(28.041 26.086)">
              <g id="Group_101" data-name="Group 101" transform="translate(11.022 8.09)">
                <path id="Path_109" data-name="Path 109" d="M198.317,340.629l-6.31,17.667h6.671l8.293-17.216Z" transform="translate(-192.007 -327.404)" fill="#bc634b"/>
                <path id="Path_110" data-name="Path 110" d="M197.707,325.567s-3.992.559-7.217,15.942l12.206.214Z" transform="translate(-186.4 -325.567)" fill="#fefeff"/>
              </g>
              <g id="Group_102" data-name="Group 102" transform="translate(20.574)">
                <path id="Path_111" data-name="Path 111" d="M170.165,322.473l-4.7,1.97a2.51,2.51,0,0,0-1.5,2.162c-.238,4.193-.325,15.807,5.349,21.9l4.912,6.83h19.25l.332-33.324-1.75-5.659-8.078,2.01Z" transform="translate(-163.714 -316.354)" fill="#fefeff"/>
                <path id="Path_112" data-name="Path 112" d="M198,342.521a21.086,21.086,0,0,1-1.105-9.61" transform="translate(-196.8 -318.373)" fill="none" stroke="#ebeff2" stroke-miterlimit="10" stroke-width="0.762"/>
              </g>
              <g id="Group_106" data-name="Group 106" transform="translate(0 0)">
                <g id="Group_103" data-name="Group 103" transform="translate(0 28.906)">
                  <path id="Path_113" data-name="Path 113" d="M196.413,349.274l-25.986,1.078-.988,4.4,26.236,2.981a8.745,8.745,0,0,0,9.342-6.1l.535-1.73Z" transform="translate(-159.751 -349.274)" fill="#d48066"/>
                  <path id="Path_114" data-name="Path 114" d="M220.118,350.5s-3.311-.143-7.551,4.088l-3.126,3.619,4.343.365,6.334-4.037Z" transform="translate(-209.442 -349.424)" fill="#d48066"/>
                </g>
                <g id="Group_105" data-name="Group 105" transform="translate(36.662)">
                  <path id="Path_115" data-name="Path 115" d="M166.255,335.041l-3.465,12.038,9.139.629,5.839-16.439Z" transform="translate(-162.79 -318.173)" fill="#d48066"/>
                  <g id="Group_104" data-name="Group 104" transform="translate(3.465)">
                    <path id="Path_116" data-name="Path 116" d="M163.055,320.256l-4.147,12.966,11.953.4,2.778-10.337a5.506,5.506,0,0,0-4.3-6.84h0A5.505,5.505,0,0,0,163.055,320.256Z" transform="translate(-158.908 -316.354)" fill="#fefeff"/>
                    <line id="Line_21" data-name="Line 21" y1="6.451" x2="2.063" transform="translate(0 10.418)" fill="none" stroke="#ebeff2" stroke-miterlimit="10" stroke-width="0.762"/>
                  </g>
                </g>
              </g>
            </g>
            <g id="Group_112" data-name="Group 112" transform="translate(46.259)">
              <g id="Group_108" data-name="Group 108" transform="translate(9.476 20.976)">
                <path id="Path_117" data-name="Path 117" d="M188.653,319.943l-2.456-9.409s-1.54.558-2.956,1-2.611-.033-2.982.849c-.008.019-1.3-.911-1.3-.911l1.782,10.519a2.056,2.056,0,0,1,.008.328l7.954-2.1A2.025,2.025,0,0,1,188.653,319.943Z" transform="translate(-178.964 -310.534)" fill="#d48066"/>
              </g>
              <path id="Path_118" data-name="Path 118" d="M182.469,316.2s5.305.315,6.55-6.55l-7.349,1.911Z" transform="translate(-172.176 -289.45)" fill="#a54a35"/>
              <g id="Group_109" data-name="Group 109" transform="translate(0)">
                <path id="Path_119" data-name="Path 119" d="M197.665,296.068c1.052,6.081-4.544,11.443-10.432,12.091-3.144.345-10.723-3.921-11.4-10.057s3.165-10.619,9.043-11.359C190.318,286.06,196.426,288.906,197.665,296.068Z" transform="translate(-175.759 -286.646)" fill="#000103"/>
              </g>
              <path id="Path_120" data-name="Path 120" d="M198.747,305.358a2.658,2.658,0,1,1-2.933-2.351A2.659,2.659,0,0,1,198.747,305.358Z" transform="translate(-192.26 -288.639)" fill="#bc634b"/>
              <path id="Path_121" data-name="Path 121" d="M196.357,296.218a37.676,37.676,0,0,1-.043,8.494,7.334,7.334,0,0,1-3.172,5l-.319.246a6.541,6.541,0,0,1-6.56.795h0a7.369,7.369,0,0,1-4.434-4.476,55.031,55.031,0,0,1-1.8-8.26s-1.7-8.47,7.126-9.272S196.357,296.218,196.357,296.218Z" transform="translate(-178.174 -286.895)" fill="#d48066"/>
              <path id="Path_122" data-name="Path 122" d="M177.97,291.727s3.487,6.231,15.033,6.993c0,0-.521-11.655-9.14-11.531C183.864,287.189,179.522,286.7,177.97,291.727Z" transform="translate(-172.91 -286.71)" fill="#000103"/>
              <path id="Path_123" data-name="Path 123" d="M198.918,291.88s-1.711,5.664-6.487,7.917c0,0-1.783-8.851,6.393-11.742C198.824,288.055,197.381,287.447,198.918,291.88Z" transform="translate(-191.378 -286.814)" fill="#000103"/>
              <path id="Path_131" data-name="Path 131" d="M179.153,296.941c.079.171,2.942,5.994,2.942,5.994l.929-5.758Z" transform="translate(-163.969 -287.901)" fill="#000103"/>
              <g id="Group_111" data-name="Group 111" transform="translate(16.724 12.238)">
                <path id="Path_132" data-name="Path 132" d="M181.052,302.95a2.658,2.658,0,1,1-2.933-2.351A2.658,2.658,0,0,1,181.052,302.95Z" transform="translate(-175.752 -300.583)" fill="#d48066"/>
                <path id="Path_133" data-name="Path 133" d="M179.647,302.456a1.625,1.625,0,0,0-2.015,1.686" transform="translate(-175.982 -300.808)" fill="none" stroke="#000" stroke-linecap="round" stroke-linejoin="round" stroke-width="0.468"/>
              </g>
              <path id="Path_134" data-name="Path 134" d="M175.083,322.752l13.821-4.109s-.25,4.8-8.46,6.627a8.557,8.557,0,0,1-3.907.005C175.539,325.027,175.226,323.594,175.083,322.752Z" transform="translate(-166.276 -290.547)" fill="#d48066"/>
            </g>
          </g>
        </g>
        <g id="Group_118" data-name="Group 118" transform="translate(0 39.997)">
          <g id="Group_115" data-name="Group 115" transform="translate(35.697 25.071)">
            <rect id="Rectangle_27" data-name="Rectangle 27" width="2.882" height="71.522" transform="translate(9.443 3.381)" fill="#111d36"/>
            <rect id="Rectangle_28" data-name="Rectangle 28" width="2.882" height="71.522" transform="translate(50.993 3.381)" fill="#111d36"/>
            <rect id="Rectangle_29" data-name="Rectangle 29" width="2.882" height="71.522" transform="translate(111.133 3.381)" fill="#111d36"/>
            <rect id="Rectangle_30" data-name="Rectangle 30" width="2.882" height="71.522" transform="translate(152.683 3.381)" fill="#111d36"/>
            <rect id="Rectangle_31" data-name="Rectangle 31" width="127.398" height="6.761" transform="translate(0 0)" fill="#24385b"/>
            <rect id="Rectangle_32" data-name="Rectangle 32" width="37.053" height="6.761" transform="translate(127.398 0)" fill="#111d36"/>
          </g>
          <g id="Group_117" data-name="Group 117" transform="translate(62.758)">
            <path id="Path_135" data-name="Path 135" d="M221.447,360.708H200.624v-2.349h20.823a1.175,1.175,0,0,1,1.175,1.175h0A1.175,1.175,0,0,1,221.447,360.708Z" transform="translate(-164.117 -335.387)" fill="#162123"/>
            <g id="Group_116" data-name="Group 116" transform="translate(0)">
              <path id="Path_136" data-name="Path 136" d="M261.8,357.518h-29.9a3.538,3.538,0,0,1-3.41-2.59l-5.9-21.184a1.22,1.22,0,0,1,1.176-1.546h30.249a1.455,1.455,0,0,1,1.407,1.084Z" transform="translate(-222.555 -332.197)" fill="#273237"/>
              <path id="Path_137" data-name="Path 137" d="M248.9,346.807a2.61,2.61,0,1,1-2.61-2.61A2.61,2.61,0,0,1,248.9,346.807Z" transform="translate(-228.195 -333.66)" fill="#fff"/>
            </g>
          </g>
        </g>
      </g>
    </g>
    <g id="Group_122" data-name="Group 122" transform="translate(-3.2 15.8)">
      <circle id="Ellipse_5" data-name="Ellipse 5" cx="28" cy="28" r="28" transform="translate(890.2 320.2)" fill="#4cd964"/>
      <path id="Icon_feather-shield" data-name="Icon feather-shield" d="M17.511,31.777s11.511-5.755,11.511-14.388V7.317L17.511,3,6,7.317V17.388C6,26.021,17.511,31.777,17.511,31.777Z" transform="translate(900.664 331.1)" fill="#fafbfd"/>
      <g id="Group_121" data-name="Group 121" transform="translate(913.073 344.355)">
        <line id="Line_22" data-name="Line 22" x2="4.38" y2="4.38" transform="translate(0 2.628)" fill="none" stroke="#4cd964" stroke-linecap="round" stroke-width="1.5"/>
        <line id="Line_23" data-name="Line 23" y1="7.007" x2="7.007" transform="translate(4.38 0)" fill="none" stroke="#4cd964" stroke-linecap="round" stroke-width="1.5"/>
      </g>
    </g>
  </g>
</svg>
