<svg id="svg" version="1.1" width="400" height="324.5313444869986" viewBox="0 0 400 324.5313444869986" xmlns="http://www.w3.org/2000/svg" xmlns:xlink="http://www.w3.org/1999/xlink" ><g id="svgg"><path id="path0" d="M246.750 82.951 C 246.200 82.980,238.625 83.567,229.917 84.255 C 209.810 85.842,184.473 87.828,175.375 88.529 C 171.502 88.827,168.333 89.121,168.333 89.181 C 168.333 89.284,169.815 90.484,174.066 93.823 C 175.065 94.608,176.340 95.629,176.900 96.091 C 177.459 96.554,178.329 97.239,178.833 97.613 C 179.338 97.987,179.975 98.493,180.250 98.736 C 180.525 98.980,181.072 99.420,181.465 99.715 C 181.858 100.009,182.688 100.662,183.310 101.167 C 183.932 101.671,185.456 102.885,186.696 103.864 L 188.951 105.644 189.851 105.393 C 191.595 104.906,198.958 102.781,202.333 101.791 C 204.213 101.239,206.387 100.621,207.167 100.417 C 207.946 100.213,210.271 99.551,212.333 98.946 C 218.790 97.052,224.054 95.532,224.833 95.335 C 225.246 95.232,225.733 95.109,225.917 95.062 C 226.214 94.986,222.506 96.977,216.500 100.120 C 215.354 100.719,213.067 101.924,211.417 102.797 C 209.767 103.670,207.517 104.849,206.417 105.418 C 205.317 105.987,203.104 107.149,201.500 107.999 C 199.896 108.850,198.140 109.772,197.598 110.047 L 196.614 110.548 197.503 111.315 C 197.993 111.737,198.754 112.345,199.195 112.666 C 199.636 112.987,201.690 114.563,203.760 116.167 C 205.829 117.771,208.108 119.533,208.823 120.083 C 209.538 120.633,211.747 122.340,213.731 123.875 C 215.715 125.410,217.404 126.667,217.484 126.667 C 217.564 126.667,218.181 125.908,218.856 124.981 C 219.531 124.054,220.503 122.723,221.016 122.023 C 221.528 121.323,222.759 119.625,223.752 118.250 C 224.744 116.875,225.974 115.177,226.486 114.478 C 227.478 113.121,228.840 111.248,230.781 108.570 C 232.648 105.994,237.186 99.750,238.445 98.024 C 239.071 97.167,239.891 96.042,240.267 95.524 C 240.642 95.007,241.655 93.613,242.517 92.426 C 244.889 89.160,245.484 88.338,246.703 86.641 C 247.319 85.784,248.200 84.577,248.660 83.958 L 249.498 82.833 248.624 82.865 C 248.143 82.882,247.300 82.921,246.750 82.951 M294.035 99.548 L 289.490 104.096 292.120 106.692 C 293.930 108.478,295.036 109.435,295.667 109.759 C 298.796 111.370,301.776 108.659,300.414 105.439 C 300.299 105.165,300.324 105.150,300.630 105.314 C 301.997 106.045,304.054 104.989,304.502 103.326 C 304.918 101.782,304.241 100.631,301.051 97.459 L 298.580 95.001 294.035 99.548 M300.388 100.148 C 301.837 101.637,302.006 102.176,301.258 102.924 C 300.465 103.717,299.526 103.345,297.787 101.550 L 296.990 100.728 297.870 99.784 C 298.973 98.599,298.865 98.583,300.388 100.148 M296.778 103.708 C 298.188 105.158,298.479 105.745,298.165 106.503 C 297.623 107.812,296.427 107.588,294.609 105.837 L 293.250 104.529 294.250 103.451 C 295.486 102.118,295.204 102.090,296.778 103.708 M303.539 107.935 C 298.335 109.850,299.551 117.673,305.124 118.135 L 306.017 118.209 305.967 117.149 L 305.917 116.088 305.333 115.990 C 303.542 115.691,302.430 114.230,302.739 112.583 C 302.903 111.710,303.044 111.799,305.679 114.429 L 308.113 116.859 308.868 116.019 C 312.370 112.124,308.423 106.137,303.539 107.935 M306.343 110.167 C 307.710 110.546,308.487 112.369,307.694 113.335 L 307.353 113.750 305.842 112.253 C 304.205 110.629,304.158 110.515,305.013 110.218 C 305.728 109.968,305.642 109.972,306.343 110.167 M314.501 113.749 L 313.597 114.664 313.083 114.166 L 312.568 113.668 311.865 114.384 L 311.162 115.100 311.669 115.585 L 312.175 116.070 310.272 117.993 C 307.751 120.542,307.463 121.304,308.408 122.918 C 308.939 123.823,310.960 125.281,311.250 124.968 C 311.277 124.940,311.528 124.524,311.810 124.044 L 312.322 123.172 311.952 122.982 C 310.417 122.191,310.491 121.752,312.499 119.751 L 314.164 118.092 315.046 118.963 C 316.094 119.998,315.986 119.981,316.733 119.233 C 317.481 118.486,317.498 118.594,316.464 117.547 L 315.595 116.667 316.464 115.786 C 317.529 114.708,317.529 114.765,316.453 113.703 C 315.388 112.651,315.590 112.646,314.501 113.749 M194.105 115.292 C 193.849 116.087,193.523 117.220,191.335 124.917 C 190.683 127.208,189.750 130.471,189.261 132.167 C 188.771 133.862,188.432 135.273,188.507 135.302 C 188.583 135.330,191.556 133.873,195.114 132.062 C 198.672 130.252,202.783 128.176,204.250 127.448 C 205.717 126.721,207.236 125.940,207.626 125.713 L 208.336 125.300 207.231 124.395 C 206.624 123.897,205.442 122.968,204.605 122.329 C 203.768 121.691,202.408 120.641,201.583 119.997 C 200.758 119.354,199.408 118.309,198.583 117.676 C 197.758 117.042,196.500 116.069,195.788 115.512 C 194.241 114.303,194.416 114.326,194.105 115.292 M317.916 121.042 C 317.759 121.431,317.594 121.842,317.549 121.953 C 317.500 122.076,317.853 122.327,318.442 122.587 C 320.059 123.301,321.124 124.556,320.917 125.501 C 320.690 126.531,320.423 126.478,319.037 125.131 C 316.534 122.699,314.566 122.479,313.216 124.481 C 311.899 126.435,313.574 129.440,316.174 129.789 L 316.848 129.879 316.475 130.277 L 316.101 130.674 317.089 131.672 L 318.076 132.670 320.390 130.377 C 323.231 127.561,323.667 126.937,323.667 125.687 C 323.667 123.952,322.036 121.924,319.774 120.845 C 318.387 120.183,318.258 120.196,317.916 121.042 M317.443 125.979 C 317.887 126.334,318.460 126.849,318.718 127.123 L 319.185 127.621 318.663 128.061 C 317.797 128.790,316.676 128.570,315.770 127.493 C 315.197 126.813,315.198 126.131,315.772 125.679 C 316.370 125.209,316.514 125.235,317.443 125.979 " stroke="none" fill="#a9d155" fill-rule="evenodd"></path><path id="path1" d="M195.417 152.978 C 193.720 153.750,192.839 155.619,193.357 157.346 C 194.308 160.521,199.440 160.798,200.851 157.750 C 202.258 154.710,198.623 151.518,195.417 152.978 M98.278 153.278 C 98.217 153.339,98.167 164.814,98.167 178.778 L 98.167 204.167 100.653 204.167 L 103.140 204.167 103.229 203.708 C 103.278 203.456,103.367 202.200,103.428 200.917 C 103.489 199.633,103.576 198.521,103.621 198.446 C 103.666 198.370,104.350 198.941,105.143 199.714 C 112.467 206.864,124.734 206.987,132.232 199.984 C 140.136 192.603,140.374 179.640,132.748 171.910 C 125.475 164.538,112.617 164.387,105.375 171.590 L 104.000 172.957 104.000 163.062 L 104.000 153.167 101.194 153.167 C 99.651 153.167,98.339 153.217,98.278 153.278 M214.000 178.667 L 214.000 204.167 216.833 204.167 L 219.667 204.167 219.667 178.667 L 219.667 153.167 216.833 153.167 L 214.000 153.167 214.000 178.667 M264.333 163.109 L 264.333 173.051 262.875 171.619 C 254.753 163.645,240.656 164.744,233.820 173.886 C 226.346 183.879,230.165 198.544,241.551 203.576 C 249.149 206.934,259.740 204.541,264.169 198.466 L 264.619 197.849 264.731 199.966 C 264.793 201.131,264.889 202.552,264.945 203.125 L 265.046 204.167 267.523 204.167 L 270.000 204.167 270.000 178.667 L 270.000 153.167 267.167 153.167 L 264.333 153.167 264.333 163.109 M291.417 166.570 C 284.115 167.785,280.500 171.411,280.500 177.517 C 280.500 183.155,284.038 186.000,292.500 187.165 C 302.196 188.501,305.423 190.167,305.413 193.833 C 305.403 197.503,302.445 199.629,296.582 200.180 C 290.715 200.731,285.649 198.103,284.912 194.125 L 284.796 193.500 282.065 193.500 L 279.333 193.500 279.334 193.958 C 279.347 199.840,285.617 204.778,293.500 205.113 C 301.784 205.466,308.288 202.782,310.415 198.134 C 311.392 195.997,311.646 192.248,310.940 190.358 C 309.327 186.036,305.354 184.046,295.917 182.829 C 287.306 181.720,284.726 179.547,286.666 175.039 C 289.319 168.872,304.000 170.397,304.000 176.839 C 304.000 177.152,304.128 177.167,306.833 177.167 L 309.667 177.167 309.667 176.594 C 309.667 169.557,301.248 164.932,291.417 166.570 M147.378 178.708 C 147.434 188.764,147.479 190.454,147.731 191.833 C 149.415 201.037,156.663 205.990,167.042 205.029 C 174.609 204.328,178.980 201.314,181.349 195.167 C 182.565 192.010,182.548 192.219,182.621 179.042 L 182.688 167.167 179.856 167.167 L 177.025 167.167 176.952 178.292 C 176.869 191.103,176.848 191.303,175.276 194.667 C 172.081 201.504,158.966 201.936,155.096 195.332 C 153.219 192.130,153.129 191.379,153.048 178.292 L 152.979 167.167 150.147 167.167 L 147.315 167.167 147.378 178.708 M194.333 185.667 L 194.333 204.167 197.167 204.167 L 200.000 204.167 200.000 185.667 L 200.000 167.167 197.167 167.167 L 194.333 167.167 194.333 185.667 M121.917 171.826 C 134.721 175.169,136.462 192.579,124.595 198.614 C 120.171 200.863,113.499 200.367,109.847 197.517 C 109.518 197.261,109.111 196.977,108.942 196.885 C 108.285 196.529,106.172 193.940,105.526 192.698 C 99.616 181.337,109.608 168.613,121.917 171.826 M253.833 171.846 C 270.089 176.024,266.898 200.011,250.083 200.032 C 233.489 200.053,230.264 175.830,246.333 171.866 C 248.915 171.229,251.409 171.222,253.833 171.846 M99.750 216.702 C 98.330 217.199,97.728 218.834,98.503 220.088 C 98.913 220.752,99.521 221.052,101.491 221.564 C 103.595 222.110,104.187 222.820,103.375 223.823 C 102.399 225.029,99.167 224.259,99.167 222.821 C 99.167 222.556,99.046 222.500,98.479 222.500 C 97.794 222.500,97.792 222.502,97.899 223.034 C 98.626 226.673,105.000 226.606,105.000 222.959 C 105.000 221.515,104.137 220.759,101.895 220.239 C 100.287 219.866,99.500 219.428,99.500 218.906 C 99.500 217.371,102.646 217.113,103.266 218.597 C 103.515 219.192,104.839 219.499,104.830 218.958 C 104.797 217.121,102.044 215.898,99.750 216.702 M108.667 221.083 L 108.667 225.500 109.333 225.500 L 110.000 225.500 110.000 223.325 C 110.000 220.459,110.219 220.000,111.585 220.000 C 112.636 220.000,112.833 220.505,112.833 223.189 L 112.833 225.500 113.417 225.500 L 114.000 225.500 114.000 222.995 C 114.000 219.580,113.792 219.125,112.127 218.897 C 111.645 218.831,111.195 218.887,110.766 219.066 C 110.414 219.213,110.098 219.333,110.063 219.333 C 110.028 219.333,110.000 218.733,110.000 218.000 L 110.000 216.667 109.333 216.667 L 108.667 216.667 108.667 221.083 M268.667 221.083 L 268.667 225.500 269.250 225.500 L 269.833 225.500 269.833 221.083 L 269.833 216.667 269.250 216.667 L 268.667 216.667 268.667 221.083 M299.833 221.083 L 299.833 225.500 300.500 225.500 L 301.167 225.500 301.167 221.083 L 301.167 216.667 300.500 216.667 L 299.833 216.667 299.833 221.083 M119.112 219.104 C 118.390 219.326,117.373 220.622,117.694 220.911 C 118.074 221.252,118.826 221.145,119.029 220.720 C 119.603 219.522,121.624 219.622,121.923 220.863 C 122.044 221.369,121.407 221.651,120.083 221.678 C 118.427 221.712,117.404 222.642,117.550 223.978 C 117.717 225.498,119.515 226.173,121.210 225.353 C 122.077 224.933,122.167 224.923,122.167 225.250 C 122.167 225.432,122.354 225.500,122.851 225.500 C 123.442 225.500,123.518 225.460,123.404 225.208 C 123.331 225.048,123.229 223.781,123.178 222.392 C 123.070 219.516,122.991 219.330,121.749 219.017 C 120.797 218.777,120.100 218.800,119.112 219.104 M128.606 219.179 C 128.242 219.465,128.167 219.479,128.167 219.262 C 128.167 219.074,128.003 219.000,127.583 219.000 L 127.000 219.000 127.000 222.250 L 127.000 225.500 127.583 225.500 L 128.167 225.500 128.168 223.708 C 128.169 220.877,128.527 220.059,129.696 220.216 C 130.296 220.297,130.340 220.272,130.472 219.776 C 130.711 218.881,129.483 218.489,128.606 219.179 M134.866 219.113 C 132.533 219.939,132.440 224.308,134.734 225.349 C 136.418 226.114,138.413 225.468,138.978 223.975 C 139.245 223.271,138.025 223.029,137.709 223.724 C 137.077 225.111,134.500 224.578,134.500 223.061 L 134.500 222.667 136.833 222.667 L 139.167 222.667 139.166 222.125 C 139.162 219.664,137.198 218.289,134.866 219.113 M158.500 219.028 C 157.132 219.414,156.403 220.771,156.539 222.675 C 156.829 226.731,162.337 226.731,162.627 222.675 C 162.827 219.892,161.038 218.311,158.500 219.028 M177.083 219.017 C 176.900 219.122,176.656 219.326,176.542 219.469 C 176.359 219.698,176.333 219.685,176.333 219.365 C 176.333 219.059,176.239 219.000,175.750 219.000 L 175.167 219.000 175.167 222.250 L 175.167 225.500 175.833 225.500 L 176.500 225.500 176.500 223.458 C 176.501 220.792,176.723 220.250,177.819 220.250 C 178.586 220.250,179.137 219.570,178.713 219.146 C 178.457 218.891,177.445 218.811,177.083 219.017 M188.785 219.102 C 187.977 219.350,187.335 220.054,187.334 220.695 C 187.333 221.036,188.365 221.322,188.469 221.010 C 188.952 219.562,191.635 219.545,191.466 220.991 C 191.414 221.441,191.318 221.472,189.093 221.757 C 187.484 221.964,186.658 223.505,187.444 224.835 C 187.997 225.770,189.696 225.980,190.944 225.266 C 191.606 224.887,191.641 224.884,191.720 225.185 C 191.784 225.430,191.955 225.500,192.490 225.500 C 193.105 225.500,193.161 225.467,193.016 225.196 C 192.926 225.028,192.799 223.742,192.734 222.337 C 192.601 219.483,192.540 219.332,191.386 219.012 C 190.540 218.777,189.753 218.804,188.785 219.102 M198.670 219.019 C 198.443 219.110,198.124 219.304,197.962 219.451 C 197.688 219.699,197.667 219.692,197.667 219.359 C 197.667 219.071,197.568 219.000,197.167 219.000 L 196.667 219.000 196.667 223.500 L 196.667 228.000 197.250 228.000 L 197.833 228.000 197.833 226.583 C 197.833 225.105,197.876 225.020,198.407 225.422 C 199.422 226.190,201.338 225.391,202.018 223.917 C 203.274 221.195,201.119 218.042,198.670 219.019 M207.619 219.149 C 207.130 219.398,207.000 219.415,207.000 219.232 C 207.000 219.078,206.804 219.000,206.417 219.000 L 205.833 219.000 205.833 223.500 L 205.833 228.000 206.500 228.000 L 207.167 228.000 207.167 226.574 L 207.167 225.148 207.537 225.407 C 208.739 226.249,210.780 225.260,211.340 223.564 C 212.285 220.699,209.969 217.951,207.619 219.149 M216.020 219.062 C 213.861 219.844,214.458 221.954,217.064 222.749 C 218.956 223.326,219.298 223.991,217.958 224.488 C 217.125 224.798,215.833 224.244,215.833 223.577 C 215.833 223.326,215.394 223.257,214.930 223.434 C 214.318 223.669,214.997 225.043,215.915 225.427 C 217.885 226.250,219.917 225.307,219.917 223.570 C 219.917 222.387,219.591 222.075,217.909 221.644 C 215.967 221.146,215.540 220.756,216.271 220.149 C 216.909 219.620,218.500 220.081,218.500 220.795 C 218.500 220.967,218.611 221.009,218.875 220.938 C 219.081 220.883,219.389 220.837,219.560 220.836 C 219.812 220.834,219.850 220.749,219.762 220.375 C 219.480 219.174,217.567 218.503,216.020 219.062 M230.250 219.088 C 229.883 219.220,229.567 219.329,229.546 219.331 C 229.525 219.332,229.394 219.555,229.254 219.825 C 228.618 221.056,229.238 222.162,230.806 222.590 C 232.776 223.129,233.303 223.555,232.753 224.163 C 232.102 224.883,230.539 224.633,230.134 223.744 C 229.964 223.371,229.859 223.320,229.437 223.404 C 227.999 223.692,229.471 225.523,231.230 225.635 C 235.025 225.877,235.567 222.461,231.874 221.570 C 230.157 221.156,229.650 220.418,230.786 219.986 C 231.508 219.712,232.316 219.941,232.639 220.512 C 232.879 220.937,232.985 220.990,233.417 220.899 C 234.057 220.765,234.060 220.762,233.932 220.254 C 233.634 219.065,231.866 218.506,230.250 219.088 M239.250 219.074 C 236.695 220.014,236.673 224.524,239.219 225.489 C 240.845 226.105,243.333 225.038,243.333 223.725 C 243.333 223.253,242.290 223.273,241.942 223.751 C 240.936 225.131,238.667 224.441,238.667 222.755 C 238.667 222.707,239.761 222.667,241.099 222.667 L 243.531 222.667 243.416 221.792 C 243.115 219.514,241.290 218.324,239.250 219.074 M248.583 218.988 C 247.208 219.320,246.227 220.799,247.208 221.062 C 247.821 221.226,247.908 221.190,248.136 220.676 C 248.559 219.719,250.311 219.621,250.819 220.526 C 251.188 221.184,250.971 221.452,249.970 221.573 C 247.987 221.814,247.783 221.875,247.207 222.403 C 245.217 224.226,247.810 226.578,250.376 225.279 C 251.099 224.913,251.147 224.908,251.222 225.195 C 251.282 225.421,251.462 225.500,251.921 225.500 C 252.486 225.500,252.529 225.468,252.420 225.125 C 252.354 224.919,252.252 223.600,252.192 222.195 C 252.095 219.924,252.047 219.613,251.758 219.401 C 251.061 218.893,249.708 218.717,248.583 218.988 M258.170 219.019 C 257.943 219.110,257.624 219.304,257.462 219.451 C 257.188 219.699,257.167 219.692,257.167 219.359 C 257.167 219.071,257.068 219.000,256.667 219.000 L 256.167 219.000 256.167 222.250 L 256.167 225.500 256.737 225.500 L 257.308 225.500 257.362 223.180 C 257.426 220.465,257.644 220.000,258.857 220.000 C 259.750 220.000,259.833 220.261,259.833 223.072 L 259.833 225.500 260.500 225.500 L 261.167 225.500 261.167 223.263 C 261.167 220.666,261.454 220.000,262.572 220.000 C 263.558 220.000,263.667 220.303,263.667 223.055 L 263.667 225.500 264.250 225.500 L 264.833 225.500 264.833 222.825 C 264.833 219.698,264.712 219.294,263.682 218.985 C 262.853 218.736,261.976 218.902,261.356 219.423 C 260.947 219.767,260.853 219.792,260.770 219.576 C 260.547 218.995,259.040 218.672,258.170 219.019 M275.495 218.990 C 273.482 219.602,272.699 222.783,274.106 224.628 C 275.401 226.326,278.574 225.922,279.316 223.965 C 279.620 223.161,278.468 223.093,277.823 223.877 C 276.975 224.905,275.484 224.756,274.930 223.587 C 274.489 222.659,274.472 222.667,277.083 222.667 L 279.500 222.667 279.499 222.125 C 279.495 219.835,277.599 218.351,275.495 218.990 M283.917 219.088 C 283.550 219.220,283.233 219.329,283.213 219.331 C 283.061 219.341,282.667 220.413,282.667 220.816 C 282.667 221.676,283.295 222.191,285.026 222.748 C 286.460 223.210,286.588 223.287,286.636 223.712 C 286.765 224.831,284.357 224.915,283.939 223.806 C 283.768 223.353,283.695 223.312,283.188 223.395 C 282.415 223.520,282.377 223.599,282.754 224.288 C 284.239 227.001,289.168 225.409,287.754 222.674 C 287.504 222.192,287.315 222.101,285.083 221.398 C 283.912 221.030,283.671 220.556,284.408 220.073 C 285.109 219.615,286.500 220.095,286.500 220.795 C 286.500 220.967,286.611 221.009,286.875 220.938 C 287.081 220.883,287.344 220.837,287.458 220.836 C 287.573 220.834,287.667 220.656,287.667 220.439 C 287.667 219.199,285.637 218.468,283.917 219.088 M292.574 219.011 C 290.798 219.528,290.792 221.937,292.566 222.483 C 292.851 222.570,293.510 222.760,294.031 222.906 C 295.100 223.204,295.400 223.632,294.914 224.169 C 294.261 224.892,292.666 224.626,292.329 223.738 C 292.180 223.348,292.095 223.306,291.634 223.398 C 290.943 223.536,290.920 223.572,291.156 224.142 C 292.127 226.484,296.496 226.055,296.499 223.617 C 296.501 222.460,295.996 222.073,293.647 221.427 C 292.152 221.017,291.939 220.348,293.184 219.975 C 293.980 219.737,294.578 219.956,294.868 220.592 C 295.014 220.913,295.151 220.999,295.407 220.930 C 295.596 220.879,295.876 220.837,296.030 220.836 C 296.368 220.833,296.187 219.983,295.745 219.494 C 295.249 218.946,293.641 218.701,292.574 219.011 M147.900 219.411 C 147.957 219.637,148.496 221.072,149.097 222.600 C 150.439 226.007,150.379 226.833,148.794 226.833 C 148.126 226.833,147.969 227.651,148.563 228.039 C 149.917 228.924,150.765 227.599,153.149 220.875 L 153.813 219.000 153.185 219.000 L 152.557 219.000 151.752 221.208 C 150.762 223.920,150.795 223.883,150.428 222.711 C 150.262 222.182,149.904 221.131,149.631 220.375 L 149.135 219.000 148.466 219.000 C 147.838 219.000,147.804 219.025,147.900 219.411 M166.000 221.422 C 166.000 224.182,166.163 224.800,167.032 225.329 C 167.753 225.769,168.910 225.771,169.625 225.335 C 170.067 225.066,170.167 225.050,170.167 225.252 C 170.167 225.424,170.345 225.500,170.750 225.500 L 171.333 225.500 171.333 222.250 L 171.333 219.000 170.750 219.000 L 170.167 219.000 170.167 221.159 C 170.167 224.005,169.907 224.500,168.418 224.500 C 167.463 224.500,167.333 224.127,167.333 221.380 L 167.333 219.000 166.667 219.000 L 166.000 219.000 166.000 221.422 M304.333 219.051 C 304.333 219.099,304.735 220.137,306.238 223.973 L 306.847 225.528 306.549 226.139 C 306.283 226.682,306.171 226.756,305.542 226.801 C 304.343 226.888,304.590 228.167,305.805 228.167 C 306.962 228.167,307.293 227.551,309.821 220.694 C 310.455 218.976,310.456 219.000,309.767 219.000 C 309.168 219.000,308.839 219.632,307.708 222.965 L 307.409 223.847 306.847 222.132 C 305.863 219.129,305.787 219.000,305.006 219.000 C 304.636 219.000,304.333 219.023,304.333 219.051 M137.375 220.502 C 138.266 221.480,138.069 221.667,136.149 221.667 L 134.464 221.667 134.578 221.208 C 134.921 219.835,136.422 219.456,137.375 220.502 M160.559 220.304 C 162.254 221.832,161.019 225.227,159.042 224.474 C 158.151 224.135,157.800 223.553,157.790 222.395 C 157.771 220.356,159.319 219.187,160.559 220.304 M200.131 220.093 C 201.952 221.369,200.809 225.352,198.884 224.435 C 197.132 223.599,197.567 219.833,199.417 219.833 C 199.605 219.833,199.926 219.950,200.131 220.093 M209.324 220.078 C 210.585 220.731,210.482 223.823,209.180 224.411 C 207.563 225.140,206.396 222.930,207.321 220.892 C 207.794 219.851,208.404 219.603,209.324 220.078 M241.188 220.094 C 241.599 220.307,242.167 221.168,242.167 221.578 C 242.167 221.627,241.381 221.667,240.421 221.667 L 238.675 221.667 238.849 221.209 C 239.298 220.028,240.215 219.591,241.188 220.094 M277.188 220.094 C 277.599 220.307,278.167 221.168,278.167 221.578 C 278.167 221.627,277.381 221.667,276.421 221.667 L 274.675 221.667 274.849 221.209 C 275.298 220.028,276.215 219.591,277.188 220.094 M121.842 223.303 C 121.444 224.781,118.833 225.183,118.833 223.767 C 118.833 223.195,119.204 222.970,120.638 222.672 C 122.071 222.373,122.089 222.383,121.842 223.303 M191.333 223.668 C 190.849 224.572,189.522 224.911,188.772 224.321 C 187.945 223.671,188.452 223.078,190.172 222.686 L 191.417 222.402 191.468 222.860 C 191.497 223.112,191.436 223.475,191.333 223.668 M250.845 223.551 C 250.516 224.419,249.313 224.878,248.428 224.475 C 247.661 224.126,247.739 223.103,248.546 222.920 C 251.162 222.325,251.298 222.362,250.845 223.551 " stroke="none" fill="#5c5c5c" fill-rule="evenodd"></path><path id="path2" d="M109.443 94.508 C 102.385 95.693,98.262 101.103,98.177 109.292 L 98.167 110.333 94.917 110.333 L 91.667 110.333 91.667 115.917 L 91.667 121.500 94.917 121.500 L 98.167 121.500 98.167 134.833 L 98.167 148.167 104.917 148.167 L 111.667 148.167 111.667 134.833 L 111.667 121.500 116.500 121.500 L 121.333 121.500 121.333 115.917 L 121.333 110.333 116.479 110.333 L 111.624 110.333 111.701 109.042 C 111.904 105.636,113.126 104.868,118.375 104.846 L 121.333 104.833 121.333 99.583 L 121.333 94.333 115.792 94.353 C 112.744 94.364,109.887 94.433,109.443 94.508 M145.333 108.926 C 145.333 108.977,145.476 109.333,145.651 109.717 C 145.826 110.102,146.543 111.767,147.244 113.417 C 147.946 115.067,148.620 116.642,148.742 116.917 C 149.461 118.525,150.500 120.978,150.500 121.064 C 150.500 121.151,151.520 123.494,152.272 125.134 C 152.410 125.436,152.773 126.299,153.077 127.050 C 153.381 127.802,153.819 128.829,154.050 129.333 C 154.281 129.837,154.808 131.075,155.220 132.083 C 155.631 133.092,156.388 134.848,156.901 135.987 C 157.414 137.126,157.833 138.121,157.833 138.199 C 157.833 138.277,158.133 138.984,158.500 139.770 C 158.867 140.556,159.167 141.243,159.167 141.295 C 159.167 141.347,159.398 141.891,159.680 142.503 L 160.193 143.616 159.702 144.683 C 159.431 145.270,158.145 147.962,156.842 150.667 C 155.539 153.371,154.104 156.351,153.653 157.290 C 153.202 158.229,152.833 159.110,152.833 159.248 C 152.833 159.469,153.716 159.500,159.975 159.500 L 167.116 159.500 167.383 158.875 C 167.529 158.531,168.138 157.118,168.735 155.735 C 169.333 154.351,169.897 153.021,169.989 152.779 C 170.081 152.537,170.676 151.156,171.312 149.711 C 171.947 148.266,172.968 145.921,173.580 144.500 C 174.192 143.079,174.793 141.692,174.915 141.417 C 175.037 141.142,175.360 140.392,175.633 139.750 C 175.907 139.108,176.476 137.817,176.899 136.881 C 177.321 135.945,177.667 135.138,177.667 135.087 C 177.667 135.007,179.126 131.614,179.748 130.250 C 180.394 128.833,182.402 124.183,182.590 123.672 C 182.708 123.348,183.230 122.146,183.750 121.000 C 184.270 119.854,184.792 118.654,184.911 118.333 C 185.098 117.827,185.750 116.313,188.034 111.083 C 188.315 110.442,188.648 109.673,188.774 109.375 L 189.004 108.833 181.794 108.836 L 174.583 108.839 173.878 110.711 C 173.490 111.741,172.675 113.896,172.068 115.500 C 171.461 117.104,170.564 119.504,170.074 120.833 C 168.515 125.068,167.256 128.312,167.195 128.250 C 167.162 128.217,166.957 127.604,166.740 126.887 C 166.329 125.530,165.280 122.611,164.174 119.750 C 163.820 118.833,163.215 117.221,162.829 116.167 C 162.444 115.112,161.884 113.612,161.585 112.833 C 161.286 112.054,160.826 110.836,160.562 110.127 L 160.083 108.837 152.708 108.835 C 148.652 108.834,145.333 108.875,145.333 108.926 " stroke="none" fill="#148ca4" fill-rule="evenodd"></path><path id="path3" d="M127.000 122.000 L 127.000 148.500 133.750 148.500 L 140.500 148.500 140.500 122.000 L 140.500 95.500 133.750 95.500 L 127.000 95.500 127.000 122.000 " stroke="none" fill="#1494a4" fill-rule="evenodd"></path><path id="path4" d="M225.329 57.875 C 225.326 58.372,226.214 59.299,236.069 69.083 C 241.977 74.950,266.147 99.025,289.778 122.583 C 313.410 146.142,339.593 172.242,347.964 180.583 C 356.335 188.925,363.292 195.774,363.425 195.804 C 363.635 195.851,363.667 192.444,363.667 169.630 L 363.667 143.402 331.905 111.743 C 314.436 94.330,295.002 74.965,288.719 68.708 L 277.296 57.333 251.314 57.333 L 225.333 57.333 225.329 57.875 M303.914 100.583 C 305.544 103.357,303.223 106.701,300.630 105.314 C 300.324 105.150,300.299 105.165,300.414 105.439 C 301.776 108.659,298.796 111.370,295.667 109.759 C 295.036 109.435,293.930 108.478,292.120 106.692 L 289.490 104.096 294.035 99.548 L 298.580 95.001 301.051 97.459 C 302.410 98.811,303.699 100.217,303.914 100.583 M297.870 99.784 L 296.990 100.728 297.787 101.550 C 299.526 103.345,300.465 103.717,301.258 102.924 C 302.006 102.176,301.837 101.637,300.388 100.148 C 298.865 98.583,298.973 98.599,297.870 99.784 M294.250 103.451 L 293.250 104.529 294.609 105.837 C 296.427 107.588,297.623 107.812,298.165 106.503 C 298.479 105.745,298.188 105.158,296.778 103.708 C 295.204 102.090,295.486 102.118,294.250 103.451 M307.487 108.259 C 310.644 109.977,311.248 113.372,308.868 116.019 L 308.113 116.859 305.679 114.429 C 303.044 111.799,302.903 111.710,302.739 112.583 C 302.430 114.230,303.542 115.691,305.333 115.990 L 305.917 116.088 305.967 117.149 L 306.017 118.209 305.124 118.135 C 303.362 117.989,301.363 116.528,300.492 114.750 C 298.502 110.684,303.471 106.073,307.487 108.259 M305.013 110.218 C 304.158 110.515,304.205 110.629,305.842 112.253 L 307.353 113.750 307.694 113.335 C 308.487 112.369,307.710 110.546,306.343 110.167 C 305.642 109.972,305.728 109.968,305.013 110.218 M316.453 113.703 C 317.529 114.765,317.529 114.708,316.464 115.786 L 315.595 116.667 316.464 117.547 C 317.498 118.594,317.481 118.486,316.733 119.233 C 315.986 119.981,316.094 119.998,315.046 118.963 L 314.164 118.092 312.499 119.751 C 310.491 121.752,310.417 122.191,311.952 122.982 L 312.322 123.172 311.810 124.044 C 311.528 124.524,311.277 124.940,311.250 124.968 C 310.960 125.281,308.939 123.823,308.408 122.918 C 307.463 121.304,307.751 120.542,310.272 117.993 L 312.175 116.070 311.669 115.585 L 311.162 115.100 311.865 114.384 L 312.568 113.668 313.083 114.166 L 313.597 114.664 314.501 113.749 C 315.590 112.646,315.388 112.651,316.453 113.703 M319.774 120.845 C 322.036 121.924,323.667 123.952,323.667 125.687 C 323.667 126.937,323.231 127.561,320.390 130.377 L 318.076 132.670 317.089 131.672 L 316.101 130.674 316.475 130.277 L 316.848 129.879 316.174 129.789 C 313.574 129.440,311.899 126.435,313.216 124.481 C 314.566 122.479,316.534 122.699,319.037 125.131 C 320.423 126.478,320.690 126.531,320.917 125.501 C 321.124 124.556,320.059 123.301,318.442 122.587 C 317.853 122.327,317.500 122.076,317.549 121.953 C 318.305 120.055,318.214 120.100,319.774 120.845 M315.772 125.679 C 315.198 126.131,315.197 126.813,315.770 127.493 C 316.676 128.570,317.797 128.790,318.663 128.061 L 319.185 127.621 318.718 127.123 C 317.224 125.531,316.445 125.149,315.772 125.679 " stroke="none" fill="#fc3b3b" fill-rule="evenodd"></path></g></svg>