<svg id="svg" version="1.1" width="400" height="324.5313444869986" viewBox="0 0 400 324.5313444869986" xmlns="http://www.w3.org/2000/svg" xmlns:xlink="http://www.w3.org/1999/xlink" ><g id="svgg"><path id="path0" d="M246.750 82.951 C 246.200 82.980,238.625 83.567,229.917 84.255 C 205.224 86.204,183.072 87.935,175.500 88.507 C 167.436 89.116,167.943 89.028,168.772 89.674 C 169.372 90.142,171.085 91.487,174.478 94.154 C 175.246 94.757,176.582 95.831,177.447 96.542 C 178.313 97.252,179.072 97.835,179.135 97.838 C 179.198 97.841,179.588 98.145,180.000 98.514 C 180.412 98.883,181.072 99.425,181.465 99.717 C 181.858 100.010,182.688 100.662,183.310 101.167 C 183.932 101.671,185.456 102.885,186.696 103.864 L 188.951 105.644 189.851 105.393 C 191.595 104.906,198.958 102.781,202.333 101.791 C 204.213 101.239,206.387 100.621,207.167 100.417 C 207.946 100.213,210.271 99.551,212.333 98.946 C 218.790 97.052,224.054 95.532,224.833 95.335 C 225.246 95.232,225.733 95.108,225.917 95.061 C 226.221 94.983,221.188 97.682,216.250 100.244 C 215.150 100.815,212.938 101.981,211.333 102.836 C 209.729 103.690,207.667 104.775,206.750 105.246 C 205.833 105.717,203.179 107.105,200.851 108.330 L 196.619 110.557 197.351 111.207 C 197.754 111.564,198.515 112.170,199.042 112.553 C 200.008 113.255,204.865 116.992,207.421 119.000 C 212.521 123.005,217.323 126.667,217.476 126.667 C 217.610 126.667,218.490 125.517,220.857 122.250 C 221.454 121.425,222.612 119.826,223.430 118.697 C 224.248 117.568,225.479 115.870,226.167 114.924 C 226.854 113.978,227.942 112.479,228.583 111.592 C 230.383 109.106,231.964 106.938,233.555 104.772 C 234.681 103.239,234.966 102.744,234.823 102.571 C 234.587 102.287,233.855 103.330,241.838 92.575 C 245.652 87.438,248.828 83.144,248.896 83.034 C 249.024 82.827,249.031 82.827,246.750 82.951 M194.105 115.292 C 193.965 115.727,193.551 117.133,193.184 118.417 C 190.662 127.258,190.090 129.263,189.283 132.083 C 188.784 133.825,188.436 135.273,188.508 135.301 C 188.581 135.329,191.777 133.757,195.612 131.807 C 199.446 129.857,203.542 127.792,204.713 127.219 C 205.884 126.645,207.176 125.980,207.583 125.741 L 208.324 125.307 207.614 124.695 C 207.224 124.359,206.045 123.427,204.994 122.625 C 203.943 121.823,202.408 120.637,201.583 119.991 C 200.758 119.344,199.521 118.392,198.833 117.876 C 198.146 117.360,197.546 116.892,197.500 116.835 C 197.369 116.673,194.516 114.500,194.434 114.500 C 194.393 114.500,194.245 114.856,194.105 115.292 " stroke="none" fill="#9bcb3c" fill-rule="evenodd"></path><path id="path1" d="M248.333 82.589 C 248.333 82.637,248.484 82.733,248.667 82.801 C 248.962 82.910,248.183 84.026,241.953 92.420 C 238.076 97.643,234.842 102.017,234.767 102.139 C 234.597 102.414,235.162 103.019,237.415 104.973 C 238.330 105.767,240.978 108.104,243.297 110.167 C 245.617 112.229,247.914 114.254,248.401 114.667 C 248.889 115.079,250.769 116.729,252.581 118.333 C 254.392 119.938,256.221 121.548,256.646 121.913 C 257.070 122.277,258.729 123.730,260.333 125.142 C 261.938 126.553,264.031 128.393,264.986 129.229 C 265.940 130.066,266.848 130.871,267.004 131.018 C 267.159 131.165,268.553 132.399,270.101 133.760 C 271.650 135.120,272.954 136.276,273.000 136.327 C 273.046 136.379,273.946 137.170,275.000 138.085 C 276.054 139.000,277.892 140.616,279.083 141.676 C 280.275 142.736,281.853 144.124,282.590 144.760 C 284.164 146.118,285.892 147.639,289.092 150.484 C 291.715 152.816,292.313 153.345,296.750 157.252 C 298.492 158.786,300.213 160.311,300.575 160.642 C 300.938 160.972,301.806 161.732,302.505 162.330 C 304.591 164.113,308.640 167.670,309.957 168.875 C 311.244 170.052,311.500 170.191,311.500 169.708 C 311.500 168.824,310.940 159.254,310.493 152.500 C 310.399 151.079,310.247 148.679,310.156 147.167 C 310.064 145.654,309.916 143.329,309.827 142.000 C 309.738 140.671,309.617 138.701,309.557 137.623 L 309.449 135.663 308.349 134.715 C 307.745 134.195,306.987 133.528,306.667 133.235 C 305.220 131.914,303.844 130.691,303.027 130.000 C 302.539 129.587,301.817 128.950,301.422 128.583 C 301.028 128.217,299.972 127.279,299.077 126.500 C 298.181 125.721,297.022 124.708,296.501 124.250 C 295.981 123.792,294.774 122.730,293.819 121.890 C 292.865 121.050,290.677 119.119,288.958 117.598 C 287.239 116.078,285.757 114.833,285.666 114.833 C 285.575 114.833,285.500 114.770,285.500 114.694 C 285.500 114.617,284.769 113.912,283.875 113.128 C 282.981 112.344,281.950 111.436,281.583 111.111 C 279.287 109.073,275.458 105.697,273.992 104.417 C 273.047 103.592,271.852 102.542,271.337 102.083 C 269.426 100.385,266.686 97.973,264.500 96.064 C 263.262 94.984,260.945 92.933,259.350 91.508 C 257.755 90.083,256.180 88.693,255.850 88.419 C 255.520 88.146,253.874 86.702,252.193 85.211 C 249.442 82.772,248.333 82.019,248.333 82.589 M266.533 108.000 C 268.435 109.688,268.917 110.368,268.917 111.364 C 268.917 112.497,268.256 113.167,267.140 113.167 C 266.352 113.167,266.344 113.172,266.504 113.594 C 267.235 115.516,265.267 117.118,263.297 116.204 C 262.101 115.649,259.110 112.842,259.378 112.525 C 261.959 109.475,264.729 106.519,264.908 106.624 C 265.027 106.693,265.758 107.313,266.533 108.000 M264.491 109.597 L 263.917 110.194 264.803 111.014 C 266.017 112.135,267.000 112.121,267.000 110.982 C 267.000 110.650,266.775 110.328,266.149 109.765 C 265.128 108.848,265.204 108.855,264.491 109.597 M262.252 112.137 L 261.587 112.872 262.419 113.597 C 263.565 114.597,264.047 114.783,264.582 114.433 C 265.351 113.929,265.121 113.256,263.801 112.146 L 262.917 111.403 262.252 112.137 M271.083 114.811 C 273.069 115.715,273.730 117.884,272.538 119.581 C 271.915 120.468,271.924 120.470,270.021 118.801 C 268.311 117.302,268.167 117.241,268.167 118.020 C 268.167 119.029,269.144 120.000,270.160 120.000 C 270.446 120.000,270.500 120.107,270.500 120.667 C 270.500 122.420,267.032 120.641,266.484 118.607 C 265.812 116.111,268.701 113.726,271.083 114.811 M269.542 116.172 C 268.995 116.392,269.059 116.523,270.188 117.505 C 271.454 118.606,272.142 118.236,271.422 116.843 C 271.082 116.186,270.248 115.888,269.542 116.172 M277.238 118.059 L 277.893 118.613 277.321 119.323 L 276.750 120.034 277.417 120.595 L 278.083 121.156 277.631 121.610 L 277.178 122.065 276.516 121.533 L 275.854 121.001 274.885 122.097 C 273.843 123.277,273.690 123.794,274.295 124.095 C 274.502 124.199,274.714 124.325,274.765 124.376 C 274.837 124.448,274.452 125.390,274.254 125.627 C 274.125 125.783,272.960 125.082,272.524 124.585 C 271.570 123.499,271.765 122.810,273.617 120.708 C 274.468 119.741,274.478 119.718,274.168 119.404 C 273.664 118.891,274.495 117.961,275.028 118.440 C 275.369 118.746,275.382 118.741,275.895 118.129 C 276.526 117.377,276.438 117.382,277.238 118.059 M280.922 123.243 C 282.156 124.184,282.723 125.407,282.360 126.350 C 282.036 127.195,279.156 130.340,278.856 130.177 C 278.371 129.916,277.789 129.190,277.878 128.958 C 277.936 128.807,277.701 128.639,277.165 128.448 C 275.537 127.870,274.809 126.204,275.662 125.006 C 276.474 123.866,277.621 123.968,279.250 125.323 C 280.147 126.069,280.271 126.126,280.458 125.879 C 280.909 125.282,280.098 124.143,278.985 123.809 C 278.291 123.601,278.200 123.373,278.496 122.593 L 278.659 122.165 279.506 122.487 C 279.972 122.664,280.609 123.004,280.922 123.243 M277.200 125.867 C 276.850 126.216,276.981 126.787,277.513 127.235 C 278.114 127.741,278.834 127.793,279.228 127.358 C 279.768 126.761,277.773 125.294,277.200 125.867 " stroke="none" fill="#fb3c3c" fill-rule="evenodd"></path><path id="path2" d="M109.443 94.508 C 102.708 95.638,98.564 100.694,98.215 108.208 L 98.116 110.333 94.892 110.333 L 91.667 110.333 91.667 115.917 L 91.667 121.500 94.917 121.500 L 98.167 121.500 98.167 134.833 L 98.167 148.167 104.917 148.167 L 111.667 148.167 111.667 134.833 L 111.667 121.500 116.500 121.500 L 121.333 121.500 121.333 115.917 L 121.333 110.333 116.478 110.333 L 111.623 110.333 111.701 109.125 C 111.921 105.733,113.031 104.989,118.042 104.877 L 121.333 104.803 121.333 99.568 L 121.333 94.333 115.792 94.353 C 112.744 94.364,109.887 94.433,109.443 94.508 M127.000 122.000 L 127.000 148.500 133.750 148.500 L 140.500 148.500 140.500 122.000 L 140.500 95.500 133.750 95.500 L 127.000 95.500 127.000 122.000 M145.333 108.931 C 145.333 108.984,145.891 110.316,146.572 111.889 C 149.697 119.109,150.500 120.985,150.500 121.072 C 150.500 121.162,151.333 123.065,152.353 125.303 C 152.617 125.883,152.833 126.408,152.833 126.470 C 152.833 126.577,153.611 128.395,156.343 134.667 C 157.002 136.179,157.649 137.717,157.782 138.083 C 157.914 138.450,158.509 139.851,159.105 141.197 L 160.188 143.645 159.444 145.197 C 159.034 146.051,157.747 148.737,156.583 151.167 C 155.420 153.596,154.167 156.183,153.800 156.917 C 153.433 157.650,153.031 158.532,152.907 158.877 L 152.680 159.503 159.944 159.460 L 167.209 159.417 167.663 158.250 C 167.913 157.608,168.474 156.296,168.910 155.333 C 169.347 154.371,169.837 153.246,170.000 152.833 C 170.163 152.421,170.834 150.846,171.492 149.333 C 172.530 146.947,174.030 143.480,175.676 139.667 C 175.933 139.071,176.382 138.058,176.673 137.417 C 176.964 136.775,177.350 135.875,177.529 135.417 C 177.848 134.603,178.662 132.728,181.235 126.872 C 181.931 125.289,182.500 123.951,182.500 123.898 C 182.500 123.846,183.052 122.553,183.727 121.026 C 184.402 119.499,184.993 118.138,185.041 118.000 C 185.115 117.784,185.972 115.804,188.034 111.083 C 188.315 110.442,188.648 109.673,188.774 109.375 L 189.004 108.833 181.793 108.833 L 174.581 108.833 174.313 109.542 C 174.166 109.931,173.656 111.300,173.181 112.583 C 172.706 113.867,171.913 115.967,171.419 117.250 C 170.001 120.935,168.364 125.284,167.790 126.893 C 167.400 127.986,167.232 128.290,167.144 128.060 C 167.078 127.890,166.843 127.188,166.621 126.500 C 166.081 124.829,164.137 119.553,161.201 111.795 L 160.083 108.840 152.708 108.837 C 148.652 108.835,145.333 108.877,145.333 108.931 " stroke="none" fill="#148ea3" fill-rule="evenodd"></path><path id="path3" d="M195.417 152.978 C 193.720 153.750,192.839 155.619,193.357 157.346 C 194.308 160.521,199.440 160.798,200.851 157.750 C 202.258 154.710,198.623 151.518,195.417 152.978 M98.278 153.278 C 98.217 153.339,98.167 164.814,98.167 178.778 L 98.167 204.167 100.653 204.167 L 103.140 204.167 103.229 203.708 C 103.278 203.456,103.367 202.200,103.428 200.917 C 103.489 199.633,103.576 198.521,103.621 198.446 C 103.666 198.370,104.350 198.941,105.143 199.714 C 112.467 206.864,124.734 206.987,132.232 199.984 C 140.136 192.603,140.374 179.640,132.748 171.910 C 125.475 164.538,112.617 164.387,105.375 171.590 L 104.000 172.957 104.000 163.062 L 104.000 153.167 101.194 153.167 C 99.651 153.167,98.339 153.217,98.278 153.278 M214.000 178.667 L 214.000 204.167 216.833 204.167 L 219.667 204.167 219.667 178.667 L 219.667 153.167 216.833 153.167 L 214.000 153.167 214.000 178.667 M264.333 163.109 L 264.333 173.051 262.875 171.619 C 254.753 163.645,240.656 164.744,233.820 173.886 C 226.346 183.879,230.165 198.544,241.551 203.576 C 249.149 206.934,259.740 204.541,264.169 198.466 L 264.619 197.849 264.731 199.966 C 264.793 201.131,264.889 202.552,264.945 203.125 L 265.046 204.167 267.523 204.167 L 270.000 204.167 270.000 178.667 L 270.000 153.167 267.167 153.167 L 264.333 153.167 264.333 163.109 M291.417 166.570 C 284.115 167.785,280.500 171.411,280.500 177.517 C 280.500 183.155,284.038 186.000,292.500 187.165 C 302.196 188.501,305.423 190.167,305.413 193.833 C 305.403 197.503,302.445 199.629,296.582 200.180 C 290.715 200.731,285.649 198.103,284.912 194.125 L 284.796 193.500 282.065 193.500 L 279.333 193.500 279.334 193.958 C 279.347 199.840,285.617 204.778,293.500 205.113 C 301.784 205.466,308.288 202.782,310.415 198.134 C 311.392 195.997,311.646 192.248,310.940 190.358 C 309.327 186.036,305.354 184.046,295.917 182.829 C 287.306 181.720,284.726 179.547,286.666 175.039 C 289.319 168.872,304.000 170.397,304.000 176.839 C 304.000 177.152,304.128 177.167,306.833 177.167 L 309.667 177.167 309.667 176.594 C 309.667 169.557,301.248 164.932,291.417 166.570 M147.378 178.708 C 147.434 188.764,147.479 190.454,147.731 191.833 C 149.415 201.037,156.663 205.990,167.042 205.029 C 174.609 204.328,178.980 201.314,181.349 195.167 C 182.565 192.010,182.548 192.219,182.621 179.042 L 182.688 167.167 179.856 167.167 L 177.025 167.167 176.952 178.292 C 176.869 191.103,176.848 191.303,175.276 194.667 C 172.081 201.504,158.966 201.936,155.096 195.332 C 153.219 192.130,153.129 191.379,153.048 178.292 L 152.979 167.167 150.147 167.167 L 147.315 167.167 147.378 178.708 M194.333 185.667 L 194.333 204.167 197.167 204.167 L 200.000 204.167 200.000 185.667 L 200.000 167.167 197.167 167.167 L 194.333 167.167 194.333 185.667 M121.917 171.826 C 134.721 175.169,136.462 192.579,124.595 198.614 C 120.171 200.863,113.499 200.367,109.847 197.517 C 109.518 197.261,109.111 196.977,108.942 196.885 C 108.285 196.529,106.172 193.940,105.526 192.698 C 99.616 181.337,109.608 168.613,121.917 171.826 M253.833 171.846 C 270.089 176.024,266.898 200.011,250.083 200.032 C 233.489 200.053,230.264 175.830,246.333 171.866 C 248.915 171.229,251.409 171.222,253.833 171.846 M99.750 216.702 C 98.330 217.199,97.728 218.834,98.503 220.088 C 98.913 220.752,99.521 221.052,101.491 221.564 C 103.595 222.110,104.187 222.820,103.375 223.823 C 102.399 225.029,99.167 224.259,99.167 222.821 C 99.167 222.556,99.046 222.500,98.479 222.500 C 97.794 222.500,97.792 222.502,97.899 223.034 C 98.626 226.673,105.000 226.606,105.000 222.959 C 105.000 221.515,104.137 220.759,101.895 220.239 C 100.287 219.866,99.500 219.428,99.500 218.906 C 99.500 217.371,102.646 217.113,103.266 218.597 C 103.515 219.192,104.839 219.499,104.830 218.958 C 104.797 217.121,102.044 215.898,99.750 216.702 M108.667 221.083 L 108.667 225.500 109.333 225.500 L 110.000 225.500 110.000 223.325 C 110.000 220.459,110.219 220.000,111.585 220.000 C 112.636 220.000,112.833 220.505,112.833 223.189 L 112.833 225.500 113.417 225.500 L 114.000 225.500 114.000 222.995 C 114.000 219.580,113.792 219.125,112.127 218.897 C 111.645 218.831,111.195 218.887,110.766 219.066 C 110.414 219.213,110.098 219.333,110.063 219.333 C 110.028 219.333,110.000 218.733,110.000 218.000 L 110.000 216.667 109.333 216.667 L 108.667 216.667 108.667 221.083 M268.667 221.083 L 268.667 225.500 269.250 225.500 L 269.833 225.500 269.833 221.083 L 269.833 216.667 269.250 216.667 L 268.667 216.667 268.667 221.083 M299.833 221.083 L 299.833 225.500 300.500 225.500 L 301.167 225.500 301.167 221.083 L 301.167 216.667 300.500 216.667 L 299.833 216.667 299.833 221.083 M119.112 219.104 C 118.390 219.326,117.373 220.622,117.694 220.911 C 118.074 221.252,118.826 221.145,119.029 220.720 C 119.603 219.522,121.624 219.622,121.923 220.863 C 122.044 221.369,121.407 221.651,120.083 221.678 C 118.427 221.712,117.404 222.642,117.550 223.978 C 117.717 225.498,119.515 226.173,121.210 225.353 C 122.077 224.933,122.167 224.923,122.167 225.250 C 122.167 225.432,122.354 225.500,122.851 225.500 C 123.442 225.500,123.518 225.460,123.404 225.208 C 123.331 225.048,123.229 223.781,123.178 222.392 C 123.070 219.516,122.991 219.330,121.749 219.017 C 120.797 218.777,120.100 218.800,119.112 219.104 M128.606 219.179 C 128.242 219.465,128.167 219.479,128.167 219.262 C 128.167 219.074,128.003 219.000,127.583 219.000 L 127.000 219.000 127.000 222.250 L 127.000 225.500 127.583 225.500 L 128.167 225.500 128.168 223.708 C 128.169 220.877,128.527 220.059,129.696 220.216 C 130.296 220.297,130.340 220.272,130.472 219.776 C 130.711 218.881,129.483 218.489,128.606 219.179 M134.866 219.113 C 132.533 219.939,132.440 224.308,134.734 225.349 C 136.418 226.114,138.413 225.468,138.978 223.975 C 139.245 223.271,138.025 223.029,137.709 223.724 C 137.077 225.111,134.500 224.578,134.500 223.061 L 134.500 222.667 136.833 222.667 L 139.167 222.667 139.166 222.125 C 139.162 219.664,137.198 218.289,134.866 219.113 M158.500 219.028 C 157.132 219.414,156.403 220.771,156.539 222.675 C 156.829 226.731,162.337 226.731,162.627 222.675 C 162.827 219.892,161.038 218.311,158.500 219.028 M177.083 219.017 C 176.900 219.122,176.656 219.326,176.542 219.469 C 176.359 219.698,176.333 219.685,176.333 219.365 C 176.333 219.059,176.239 219.000,175.750 219.000 L 175.167 219.000 175.167 222.250 L 175.167 225.500 175.833 225.500 L 176.500 225.500 176.500 223.458 C 176.501 220.792,176.723 220.250,177.819 220.250 C 178.586 220.250,179.137 219.570,178.713 219.146 C 178.457 218.891,177.445 218.811,177.083 219.017 M188.785 219.102 C 187.977 219.350,187.335 220.054,187.334 220.695 C 187.333 221.036,188.365 221.322,188.469 221.010 C 188.952 219.562,191.635 219.545,191.466 220.991 C 191.414 221.441,191.318 221.472,189.093 221.757 C 187.484 221.964,186.658 223.505,187.444 224.835 C 187.997 225.770,189.696 225.980,190.944 225.266 C 191.606 224.887,191.641 224.884,191.720 225.185 C 191.784 225.430,191.955 225.500,192.490 225.500 C 193.105 225.500,193.161 225.467,193.016 225.196 C 192.926 225.028,192.799 223.742,192.734 222.337 C 192.601 219.483,192.540 219.332,191.386 219.012 C 190.540 218.777,189.753 218.804,188.785 219.102 M198.670 219.019 C 198.443 219.110,198.124 219.304,197.962 219.451 C 197.688 219.699,197.667 219.692,197.667 219.359 C 197.667 219.071,197.568 219.000,197.167 219.000 L 196.667 219.000 196.667 223.500 L 196.667 228.000 197.250 228.000 L 197.833 228.000 197.833 226.583 C 197.833 225.105,197.876 225.020,198.407 225.422 C 199.422 226.190,201.338 225.391,202.018 223.917 C 203.274 221.195,201.119 218.042,198.670 219.019 M207.619 219.149 C 207.130 219.398,207.000 219.415,207.000 219.232 C 207.000 219.078,206.804 219.000,206.417 219.000 L 205.833 219.000 205.833 223.500 L 205.833 228.000 206.500 228.000 L 207.167 228.000 207.167 226.574 L 207.167 225.148 207.537 225.407 C 208.739 226.249,210.780 225.260,211.340 223.564 C 212.285 220.699,209.969 217.951,207.619 219.149 M216.020 219.062 C 213.861 219.844,214.458 221.954,217.064 222.749 C 218.956 223.326,219.298 223.991,217.958 224.488 C 217.125 224.798,215.833 224.244,215.833 223.577 C 215.833 223.326,215.394 223.257,214.930 223.434 C 214.318 223.669,214.997 225.043,215.915 225.427 C 217.885 226.250,219.917 225.307,219.917 223.570 C 219.917 222.387,219.591 222.075,217.909 221.644 C 215.967 221.146,215.540 220.756,216.271 220.149 C 216.909 219.620,218.500 220.081,218.500 220.795 C 218.500 220.967,218.611 221.009,218.875 220.938 C 219.081 220.883,219.389 220.837,219.560 220.836 C 219.812 220.834,219.850 220.749,219.762 220.375 C 219.480 219.174,217.567 218.503,216.020 219.062 M230.250 219.088 C 229.883 219.220,229.567 219.329,229.546 219.331 C 229.525 219.332,229.394 219.555,229.254 219.825 C 228.618 221.056,229.238 222.162,230.806 222.590 C 232.776 223.129,233.303 223.555,232.753 224.163 C 232.102 224.883,230.539 224.633,230.134 223.744 C 229.964 223.371,229.859 223.320,229.437 223.404 C 227.999 223.692,229.471 225.523,231.230 225.635 C 235.025 225.877,235.567 222.461,231.874 221.570 C 230.157 221.156,229.650 220.418,230.786 219.986 C 231.508 219.712,232.316 219.941,232.639 220.512 C 232.879 220.937,232.985 220.990,233.417 220.899 C 234.057 220.765,234.060 220.762,233.932 220.254 C 233.634 219.065,231.866 218.506,230.250 219.088 M239.250 219.074 C 236.695 220.014,236.673 224.524,239.219 225.489 C 240.845 226.105,243.333 225.038,243.333 223.725 C 243.333 223.253,242.290 223.273,241.942 223.751 C 240.936 225.131,238.667 224.441,238.667 222.755 C 238.667 222.707,239.761 222.667,241.099 222.667 L 243.531 222.667 243.416 221.792 C 243.115 219.514,241.290 218.324,239.250 219.074 M248.583 218.988 C 247.208 219.320,246.227 220.799,247.208 221.062 C 247.821 221.226,247.908 221.190,248.136 220.676 C 248.559 219.719,250.311 219.621,250.819 220.526 C 251.188 221.184,250.971 221.452,249.970 221.573 C 247.987 221.814,247.783 221.875,247.207 222.403 C 245.217 224.226,247.810 226.578,250.376 225.279 C 251.099 224.913,251.147 224.908,251.222 225.195 C 251.282 225.421,251.462 225.500,251.921 225.500 C 252.486 225.500,252.529 225.468,252.420 225.125 C 252.354 224.919,252.252 223.600,252.192 222.195 C 252.095 219.924,252.047 219.613,251.758 219.401 C 251.061 218.893,249.708 218.717,248.583 218.988 M258.170 219.019 C 257.943 219.110,257.624 219.304,257.462 219.451 C 257.188 219.699,257.167 219.692,257.167 219.359 C 257.167 219.071,257.068 219.000,256.667 219.000 L 256.167 219.000 256.167 222.250 L 256.167 225.500 256.737 225.500 L 257.308 225.500 257.362 223.180 C 257.426 220.465,257.644 220.000,258.857 220.000 C 259.750 220.000,259.833 220.261,259.833 223.072 L 259.833 225.500 260.500 225.500 L 261.167 225.500 261.167 223.263 C 261.167 220.666,261.454 220.000,262.572 220.000 C 263.558 220.000,263.667 220.303,263.667 223.055 L 263.667 225.500 264.250 225.500 L 264.833 225.500 264.833 222.825 C 264.833 219.698,264.712 219.294,263.682 218.985 C 262.853 218.736,261.976 218.902,261.356 219.423 C 260.947 219.767,260.853 219.792,260.770 219.576 C 260.547 218.995,259.040 218.672,258.170 219.019 M275.495 218.990 C 273.482 219.602,272.699 222.783,274.106 224.628 C 275.401 226.326,278.574 225.922,279.316 223.965 C 279.620 223.161,278.468 223.093,277.823 223.877 C 276.975 224.905,275.484 224.756,274.930 223.587 C 274.489 222.659,274.472 222.667,277.083 222.667 L 279.500 222.667 279.499 222.125 C 279.495 219.835,277.599 218.351,275.495 218.990 M283.917 219.088 C 283.550 219.220,283.233 219.329,283.213 219.331 C 283.061 219.341,282.667 220.413,282.667 220.816 C 282.667 221.676,283.295 222.191,285.026 222.748 C 286.460 223.210,286.588 223.287,286.636 223.712 C 286.765 224.831,284.357 224.915,283.939 223.806 C 283.768 223.353,283.695 223.312,283.188 223.395 C 282.415 223.520,282.377 223.599,282.754 224.288 C 284.239 227.001,289.168 225.409,287.754 222.674 C 287.504 222.192,287.315 222.101,285.083 221.398 C 283.912 221.030,283.671 220.556,284.408 220.073 C 285.109 219.615,286.500 220.095,286.500 220.795 C 286.500 220.967,286.611 221.009,286.875 220.938 C 287.081 220.883,287.344 220.837,287.458 220.836 C 287.573 220.834,287.667 220.656,287.667 220.439 C 287.667 219.199,285.637 218.468,283.917 219.088 M292.574 219.011 C 290.798 219.528,290.792 221.937,292.566 222.483 C 292.851 222.570,293.510 222.760,294.031 222.906 C 295.100 223.204,295.400 223.632,294.914 224.169 C 294.261 224.892,292.666 224.626,292.329 223.738 C 292.180 223.348,292.095 223.306,291.634 223.398 C 290.943 223.536,290.920 223.572,291.156 224.142 C 292.127 226.484,296.496 226.055,296.499 223.617 C 296.501 222.460,295.996 222.073,293.647 221.427 C 292.152 221.017,291.939 220.348,293.184 219.975 C 293.980 219.737,294.578 219.956,294.868 220.592 C 295.014 220.913,295.151 220.999,295.407 220.930 C 295.596 220.879,295.876 220.837,296.030 220.836 C 296.368 220.833,296.187 219.983,295.745 219.494 C 295.249 218.946,293.641 218.701,292.574 219.011 M147.900 219.411 C 147.957 219.637,148.496 221.072,149.097 222.600 C 150.439 226.007,150.379 226.833,148.794 226.833 C 148.126 226.833,147.969 227.651,148.563 228.039 C 149.917 228.924,150.765 227.599,153.149 220.875 L 153.813 219.000 153.185 219.000 L 152.557 219.000 151.752 221.208 C 150.762 223.920,150.795 223.883,150.428 222.711 C 150.262 222.182,149.904 221.131,149.631 220.375 L 149.135 219.000 148.466 219.000 C 147.838 219.000,147.804 219.025,147.900 219.411 M166.000 221.422 C 166.000 224.182,166.163 224.800,167.032 225.329 C 167.753 225.769,168.910 225.771,169.625 225.335 C 170.067 225.066,170.167 225.050,170.167 225.252 C 170.167 225.424,170.345 225.500,170.750 225.500 L 171.333 225.500 171.333 222.250 L 171.333 219.000 170.750 219.000 L 170.167 219.000 170.167 221.159 C 170.167 224.005,169.907 224.500,168.418 224.500 C 167.463 224.500,167.333 224.127,167.333 221.380 L 167.333 219.000 166.667 219.000 L 166.000 219.000 166.000 221.422 M304.333 219.051 C 304.333 219.099,304.735 220.137,306.238 223.973 L 306.847 225.528 306.549 226.139 C 306.283 226.682,306.171 226.756,305.542 226.801 C 304.343 226.888,304.590 228.167,305.805 228.167 C 306.962 228.167,307.293 227.551,309.821 220.694 C 310.455 218.976,310.456 219.000,309.767 219.000 C 309.168 219.000,308.839 219.632,307.708 222.965 L 307.409 223.847 306.847 222.132 C 305.863 219.129,305.787 219.000,305.006 219.000 C 304.636 219.000,304.333 219.023,304.333 219.051 M137.375 220.502 C 138.266 221.480,138.069 221.667,136.149 221.667 L 134.464 221.667 134.578 221.208 C 134.921 219.835,136.422 219.456,137.375 220.502 M160.559 220.304 C 162.254 221.832,161.019 225.227,159.042 224.474 C 158.151 224.135,157.800 223.553,157.790 222.395 C 157.771 220.356,159.319 219.187,160.559 220.304 M200.131 220.093 C 201.952 221.369,200.809 225.352,198.884 224.435 C 197.132 223.599,197.567 219.833,199.417 219.833 C 199.605 219.833,199.926 219.950,200.131 220.093 M209.324 220.078 C 210.585 220.731,210.482 223.823,209.180 224.411 C 207.563 225.140,206.396 222.930,207.321 220.892 C 207.794 219.851,208.404 219.603,209.324 220.078 M241.188 220.094 C 241.599 220.307,242.167 221.168,242.167 221.578 C 242.167 221.627,241.381 221.667,240.421 221.667 L 238.675 221.667 238.849 221.209 C 239.298 220.028,240.215 219.591,241.188 220.094 M277.188 220.094 C 277.599 220.307,278.167 221.168,278.167 221.578 C 278.167 221.627,277.381 221.667,276.421 221.667 L 274.675 221.667 274.849 221.209 C 275.298 220.028,276.215 219.591,277.188 220.094 M121.842 223.303 C 121.444 224.781,118.833 225.183,118.833 223.767 C 118.833 223.195,119.204 222.970,120.638 222.672 C 122.071 222.373,122.089 222.383,121.842 223.303 M191.333 223.668 C 190.849 224.572,189.522 224.911,188.772 224.321 C 187.945 223.671,188.452 223.078,190.172 222.686 L 191.417 222.402 191.468 222.860 C 191.497 223.112,191.436 223.475,191.333 223.668 M250.845 223.551 C 250.516 224.419,249.313 224.878,248.428 224.475 C 247.661 224.126,247.739 223.103,248.546 222.920 C 251.162 222.325,251.298 222.362,250.845 223.551 " stroke="none" fill="#5c5c5c" fill-rule="evenodd"></path><path id="path4" d="M262.151 109.374 C 260.754 110.956,259.506 112.374,259.378 112.525 C 259.110 112.842,262.101 115.649,263.297 116.204 C 265.267 117.118,267.235 115.516,266.504 113.594 C 266.344 113.172,266.352 113.167,267.140 113.167 C 268.809 113.167,269.512 111.397,268.429 109.917 C 267.990 109.317,265.447 106.938,264.908 106.624 C 264.761 106.538,263.889 107.406,262.151 109.374 M266.149 109.765 C 266.775 110.328,267.000 110.650,267.000 110.982 C 267.000 112.121,266.017 112.135,264.803 111.014 L 263.917 110.194 264.491 109.597 C 265.204 108.855,265.128 108.848,266.149 109.765 M264.842 113.184 C 265.680 114.749,264.057 115.026,262.419 113.597 L 261.587 112.872 262.252 112.137 L 262.917 111.403 263.801 112.146 C 264.287 112.555,264.756 113.022,264.842 113.184 M268.318 114.885 C 266.959 115.596,266.127 117.283,266.484 118.607 C 267.032 120.641,270.500 122.420,270.500 120.667 C 270.500 120.107,270.446 120.000,270.160 120.000 C 269.144 120.000,268.167 119.029,268.167 118.020 C 268.167 117.241,268.311 117.302,270.021 118.801 C 271.924 120.470,271.915 120.468,272.538 119.581 C 274.445 116.867,271.274 113.337,268.318 114.885 M270.647 116.185 C 271.476 116.474,271.890 117.465,271.438 118.082 C 271.223 118.377,271.153 118.345,270.188 117.505 C 269.059 116.523,268.995 116.392,269.542 116.172 C 270.039 115.972,270.036 115.972,270.647 116.185 M275.895 118.129 C 275.382 118.741,275.369 118.746,275.028 118.440 C 274.495 117.961,273.664 118.891,274.168 119.404 C 274.478 119.718,274.468 119.741,273.617 120.708 C 271.765 122.810,271.570 123.499,272.524 124.585 C 272.960 125.082,274.125 125.783,274.254 125.627 C 274.452 125.390,274.837 124.448,274.765 124.376 C 274.714 124.325,274.502 124.199,274.295 124.095 C 273.690 123.794,273.843 123.277,274.885 122.097 L 275.854 121.001 276.516 121.533 L 277.178 122.065 277.631 121.610 L 278.083 121.156 277.417 120.595 L 276.750 120.034 277.321 119.323 L 277.893 118.613 277.238 118.059 C 276.438 117.382,276.526 117.377,275.895 118.129 M278.496 122.593 C 278.200 123.373,278.291 123.601,278.985 123.809 C 280.098 124.143,280.909 125.282,280.458 125.879 C 280.271 126.126,280.147 126.069,279.250 125.323 C 277.621 123.968,276.474 123.866,275.662 125.006 C 274.809 126.204,275.537 127.870,277.165 128.448 C 277.701 128.639,277.936 128.807,277.878 128.958 C 277.789 129.190,278.371 129.916,278.856 130.177 C 279.156 130.340,282.036 127.195,282.360 126.350 C 282.868 125.028,281.570 123.271,279.506 122.487 L 278.659 122.165 278.496 122.593 M278.757 126.358 C 279.469 127.014,279.493 127.065,279.228 127.358 C 278.639 128.009,277.000 127.330,277.000 126.435 C 277.000 125.475,277.763 125.441,278.757 126.358 " stroke="none" fill="#fcfafa" fill-rule="evenodd"></path></g></svg>