<svg xmlns="http://www.w3.org/2000/svg" viewBox="0 0 146.5 157.5"><defs><style>.cls-1{fill:#1e95a5;}</style></defs><title>Asset 3</title><g id="Layer_2" data-name="Layer 2"><g id="Layer_1-2" data-name="Layer 1"><path class="cls-1" d="M143.6,1.09a6.5,6.5,0,0,0-7-.14L3.11,82.45A6.5,6.5,0,0,0,3.9,94l39.36,17.16L44.5,150.7a7.7,7.7,0,0,0,5.38,6.59,6.46,6.46,0,0,0,7.74-4.2l25.16-24.74,34.61,15.1a6.5,6.5,0,0,0,9-5l20-131A6.5,6.5,0,0,0,143.6,1.09ZM63.94,128.67l2-7.67,4,1.76Zm50.91-.5L72.08,109.51,114.2,53.4a6.5,6.5,0,0,0-9.71-8.58L48.24,99.11,20.55,87,131.47,19.32Z"/></g></g></svg>