<svg xmlns="http://www.w3.org/2000/svg" width="502.322" height="364.487" viewBox="0 0 502.322 364.487">
  <g id="Group_229" data-name="Group 229" transform="translate(-124.54 -820.5)">
    <path id="Path_894" data-name="Path 894" d="M0,0,45,43" transform="translate(220.5 982.5)" fill="none" stroke="#76bac9" stroke-width="1"/>
    <path id="Path_901" data-name="Path 901" d="M0,0,40,50" transform="translate(453.5 984.5)" fill="none" stroke="#79bcca" stroke-width="1"/>
    <path id="Path_897" data-name="Path 897" d="M37,0,0,48" transform="translate(350.5 988.5)" fill="none" stroke="#8ec6d3" stroke-width="1"/>
    <path id="Path_895" data-name="Path 895" d="M7.778-3.357A1.353,1.353,0,0,0,7.251-4.5a6.917,6.917,0,0,0-1.9-.844,13.458,13.458,0,0,1-2.171-.875A3.547,3.547,0,0,1,1-9.4a3.09,3.09,0,0,1,.584-1.85,3.812,3.812,0,0,1,1.679-1.27,6.318,6.318,0,0,1,2.457-.457,5.751,5.751,0,0,1,2.443.5,3.891,3.891,0,0,1,1.666,1.4,3.668,3.668,0,0,1,.593,2.057H7.787a1.726,1.726,0,0,0-.554-1.367,2.276,2.276,0,0,0-1.556-.488,2.432,2.432,0,0,0-1.5.409,1.289,1.289,0,0,0-.536,1.077,1.235,1.235,0,0,0,.628,1.046,7.1,7.1,0,0,0,1.85.791A7.994,7.994,0,0,1,9.4-5.871a3.343,3.343,0,0,1,1.028,2.5A3.08,3.08,0,0,1,9.167-.769,5.5,5.5,0,0,1,5.783.176,6.534,6.534,0,0,1,3.094-.365a4.256,4.256,0,0,1-1.85-1.481,3.793,3.793,0,0,1-.637-2.18H3.252q0,2.118,2.531,2.118A2.462,2.462,0,0,0,7.251-2.29,1.244,1.244,0,0,0,7.778-3.357ZM14.722,0H12.173V-9.51h2.549Zm-2.7-11.971a1.251,1.251,0,0,1,.382-.94,1.436,1.436,0,0,1,1.042-.369,1.44,1.44,0,0,1,1.037.369,1.244,1.244,0,0,1,.387.94,1.247,1.247,0,0,1-.391.949,1.443,1.443,0,0,1-1.033.369,1.443,1.443,0,0,1-1.033-.369A1.247,1.247,0,0,1,12.023-11.971Zm4.421,7.146A5.573,5.573,0,0,1,17.486-8.35a3.375,3.375,0,0,1,2.808-1.336,2.96,2.96,0,0,1,2.435,1.072l.105-.9h2.3V-.316a4.064,4.064,0,0,1-.567,2.171,3.641,3.641,0,0,1-1.6,1.406,5.608,5.608,0,0,1-2.408.483,5.215,5.215,0,0,1-2.039-.417,3.619,3.619,0,0,1-1.5-1.077L18.149.7a2.975,2.975,0,0,0,2.3,1.063,2.178,2.178,0,0,0,1.573-.541,2.027,2.027,0,0,0,.563-1.534v-.51a2.938,2.938,0,0,1-2.312.993A3.366,3.366,0,0,1,17.5-1.165,5.572,5.572,0,0,1,16.444-4.72Zm2.54.189A3.47,3.47,0,0,0,19.5-2.607a1.65,1.65,0,0,0,1.424.735,1.764,1.764,0,0,0,1.661-.871V-6.749a1.76,1.76,0,0,0-1.644-.871,1.66,1.66,0,0,0-1.437.748A3.911,3.911,0,0,0,18.984-4.636ZM29.426-9.51l.079,1.1a3.32,3.32,0,0,1,2.733-1.274,2.759,2.759,0,0,1,2.25.888,4.142,4.142,0,0,1,.756,2.654V0H32.7V-6.082a1.648,1.648,0,0,0-.352-1.173,1.574,1.574,0,0,0-1.169-.365,1.747,1.747,0,0,0-1.608.914V0h-2.54V-9.51ZM51.5-12.8v8.429A4.315,4.315,0,0,1,50.19-1.046,5.066,5.066,0,0,1,46.6.176a5.123,5.123,0,0,1-3.56-1.187A4.242,4.242,0,0,1,41.7-4.271V-12.8h2.637v8.446a2.438,2.438,0,0,0,.6,1.833,2.311,2.311,0,0,0,1.666.576q2.224,0,2.259-2.338V-12.8ZM62.06-4.667a5.7,5.7,0,0,1-1,3.52A3.2,3.2,0,0,1,58.368.176a2.963,2.963,0,0,1-2.329-1V3.656H53.5V-9.51h2.355l.088.932a2.985,2.985,0,0,1,2.408-1.107,3.22,3.22,0,0,1,2.733,1.3A5.858,5.858,0,0,1,62.06-4.8Zm-2.54-.185a3.743,3.743,0,0,0-.47-2.048,1.532,1.532,0,0,0-1.367-.721,1.663,1.663,0,0,0-1.644.914v3.894a1.692,1.692,0,0,0,1.661.94Q59.52-1.872,59.52-4.852Z" transform="translate(124 1032)" fill="#425066"/>
    <path id="Path_898" data-name="Path 898" d="M10.828-12.8v8.429A4.315,4.315,0,0,1,9.514-1.046,5.066,5.066,0,0,1,5.924.176a5.123,5.123,0,0,1-3.56-1.187A4.242,4.242,0,0,1,1.02-4.271V-12.8H3.656v8.446a2.438,2.438,0,0,0,.6,1.833,2.311,2.311,0,0,0,1.666.576q2.224,0,2.259-2.338V-12.8Zm10.556,8.13a5.7,5.7,0,0,1-1,3.52A3.2,3.2,0,0,1,17.692.176a2.963,2.963,0,0,1-2.329-1V3.656h-2.54V-9.51h2.355l.088.932a2.985,2.985,0,0,1,2.408-1.107,3.22,3.22,0,0,1,2.733,1.3A5.858,5.858,0,0,1,21.384-4.8Zm-2.54-.185a3.743,3.743,0,0,0-.47-2.048,1.532,1.532,0,0,0-1.367-.721,1.663,1.663,0,0,0-1.644.914v3.894a1.692,1.692,0,0,0,1.661.94Q18.844-1.872,18.844-4.852ZM25.638,0H23.089V-13.5h2.549Zm1.7-4.843a5.64,5.64,0,0,1,.545-2.522,3.989,3.989,0,0,1,1.569-1.714,4.577,4.577,0,0,1,2.377-.606,4.33,4.33,0,0,1,3.142,1.178,4.727,4.727,0,0,1,1.358,3.2l.018.65a4.97,4.97,0,0,1-1.222,3.511A4.247,4.247,0,0,1,31.843.176,4.268,4.268,0,0,1,28.56-1.143a5.058,5.058,0,0,1-1.226-3.586Zm2.54.18a3.555,3.555,0,0,0,.51,2.073,1.682,1.682,0,0,0,1.459.717,1.686,1.686,0,0,0,1.441-.709A3.89,3.89,0,0,0,33.8-4.847a3.519,3.519,0,0,0-.519-2.06,1.686,1.686,0,0,0-1.459-.731,1.658,1.658,0,0,0-1.441.726A3.955,3.955,0,0,0,29.874-4.662ZM43.418,0a2.821,2.821,0,0,1-.255-.853,3.073,3.073,0,0,1-2.4,1.028,3.376,3.376,0,0,1-2.316-.809,2.6,2.6,0,0,1-.918-2.039,2.687,2.687,0,0,1,1.121-2.32,5.529,5.529,0,0,1,3.239-.817h1.169v-.545a1.567,1.567,0,0,0-.338-1.055,1.331,1.331,0,0,0-1.068-.4,1.513,1.513,0,0,0-1.006.308,1.045,1.045,0,0,0-.365.844H37.74a2.551,2.551,0,0,1,.51-1.529,3.37,3.37,0,0,1,1.441-1.1,5.253,5.253,0,0,1,2.092-.4,4.15,4.15,0,0,1,2.791.883,3.09,3.09,0,0,1,1.033,2.483V-2.2a4.546,4.546,0,0,0,.378,2.048V0Zm-2.1-1.767a2.188,2.188,0,0,0,1.037-.25,1.645,1.645,0,0,0,.7-.672V-4.324h-.949q-1.907,0-2.03,1.318l-.009.149a1.017,1.017,0,0,0,.334.782A1.3,1.3,0,0,0,41.317-1.767Zm5.845-3.059a5.731,5.731,0,0,1,1-3.542,3.237,3.237,0,0,1,2.729-1.318,2.913,2.913,0,0,1,2.294,1.037V-13.5h2.549V0H53.438l-.123-1.011A2.989,2.989,0,0,1,50.871.176a3.228,3.228,0,0,1-2.694-1.323A5.916,5.916,0,0,1,47.162-4.825Zm2.54.189a3.754,3.754,0,0,0,.466,2.051,1.517,1.517,0,0,0,1.354.713,1.7,1.7,0,0,0,1.661-.995V-6.625a1.675,1.675,0,0,0-1.644-.995Q49.7-7.62,49.7-4.636ZM61.831-3.445a2.935,2.935,0,0,1,.5-1.644,6.9,6.9,0,0,1,1.824-1.679,8.954,8.954,0,0,1-.9-1.437,3.182,3.182,0,0,1-.325-1.4,3.271,3.271,0,0,1,.945-2.43,3.457,3.457,0,0,1,2.544-.936,3.319,3.319,0,0,1,2.351.853,2.782,2.782,0,0,1,.918,2.127,3.354,3.354,0,0,1-1.547,2.7l-.984.712,2.206,2.566a4.891,4.891,0,0,0,.519-2.25h2.162a6.6,6.6,0,0,1-1.151,4.043L72.809,0H69.926l-.659-.756a5.779,5.779,0,0,1-3.252.932,4.459,4.459,0,0,1-3.041-1A3.314,3.314,0,0,1,61.831-3.445Zm4.307,1.573a3.225,3.225,0,0,0,1.731-.508L65.347-5.291l-.185.132A2.006,2.006,0,0,0,64.38-3.59a1.66,1.66,0,0,0,.488,1.24A1.738,1.738,0,0,0,66.138-1.872Zm-.932-7.77a3,3,0,0,0,.773,1.661l.677-.448a2.3,2.3,0,0,0,.716-.65,1.4,1.4,0,0,0,.2-.756,1.046,1.046,0,0,0-.325-.765,1.13,1.13,0,0,0-.835-.325,1.142,1.142,0,0,0-.875.352A1.307,1.307,0,0,0,65.206-9.642ZM85.28-3.357A1.353,1.353,0,0,0,84.753-4.5a6.917,6.917,0,0,0-1.9-.844,13.458,13.458,0,0,1-2.171-.875A3.547,3.547,0,0,1,78.5-9.4a3.09,3.09,0,0,1,.584-1.85,3.812,3.812,0,0,1,1.679-1.27,6.318,6.318,0,0,1,2.457-.457,5.751,5.751,0,0,1,2.443.5,3.891,3.891,0,0,1,1.666,1.4,3.668,3.668,0,0,1,.593,2.057H85.289a1.726,1.726,0,0,0-.554-1.367,2.276,2.276,0,0,0-1.556-.488,2.432,2.432,0,0,0-1.5.409,1.289,1.289,0,0,0-.536,1.077,1.235,1.235,0,0,0,.628,1.046,7.1,7.1,0,0,0,1.85.791A7.994,7.994,0,0,1,86.9-5.871a3.343,3.343,0,0,1,1.028,2.5A3.08,3.08,0,0,1,86.669-.769a5.5,5.5,0,0,1-3.384.945A6.534,6.534,0,0,1,80.6-.365a4.256,4.256,0,0,1-1.85-1.481,3.793,3.793,0,0,1-.637-2.18h2.646q0,2.118,2.531,2.118a2.462,2.462,0,0,0,1.468-.382A1.244,1.244,0,0,0,85.28-3.357Zm6.741-5.115a3.17,3.17,0,0,1,2.54-1.213q3.094,0,3.138,3.595V0h-2.54V-6.021a1.767,1.767,0,0,0-.352-1.208,1.507,1.507,0,0,0-1.169-.391,1.729,1.729,0,0,0-1.617.861V0h-2.54V-13.5h2.54ZM105.126,0a2.821,2.821,0,0,1-.255-.853,3.073,3.073,0,0,1-2.4,1.028,3.376,3.376,0,0,1-2.316-.809,2.6,2.6,0,0,1-.918-2.039,2.687,2.687,0,0,1,1.121-2.32A5.529,5.529,0,0,1,103.6-5.81h1.169v-.545a1.567,1.567,0,0,0-.338-1.055,1.331,1.331,0,0,0-1.068-.4,1.513,1.513,0,0,0-1.006.308,1.045,1.045,0,0,0-.365.844h-2.54a2.551,2.551,0,0,1,.51-1.529,3.37,3.37,0,0,1,1.441-1.1,5.253,5.253,0,0,1,2.092-.4,4.15,4.15,0,0,1,2.791.883,3.09,3.09,0,0,1,1.033,2.483V-2.2a4.546,4.546,0,0,0,.378,2.048V0Zm-2.1-1.767a2.188,2.188,0,0,0,1.037-.25,1.645,1.645,0,0,0,.7-.672V-4.324h-.949q-1.907,0-2.03,1.318l-.009.149a1.017,1.017,0,0,0,.334.782A1.3,1.3,0,0,0,103.025-1.767Zm11.584-5.361a6.9,6.9,0,0,0-.914-.07,1.86,1.86,0,0,0-1.89.976V0h-2.54V-9.51h2.4l.07,1.134a2.354,2.354,0,0,1,2.118-1.31,2.662,2.662,0,0,1,.791.114Zm5.6,7.3A4.668,4.668,0,0,1,116.8-1.107a4.561,4.561,0,0,1-1.314-3.419v-.246a5.745,5.745,0,0,1,.554-2.562,4.064,4.064,0,0,1,1.569-1.74,4.4,4.4,0,0,1,2.316-.611A3.947,3.947,0,0,1,123-8.455a5,5,0,0,1,1.121,3.489v1.037h-6.056a2.36,2.36,0,0,0,.743,1.494,2.245,2.245,0,0,0,1.569.563,2.742,2.742,0,0,0,2.294-1.063l1.248,1.4A3.813,3.813,0,0,1,122.37-.277,5.075,5.075,0,0,1,120.208.176Zm-.29-7.813a1.587,1.587,0,0,0-1.226.512,2.651,2.651,0,0,0-.6,1.466h3.533v-.2a1.891,1.891,0,0,0-.457-1.311A1.638,1.638,0,0,0,119.918-7.638Z" transform="translate(279 1142)" fill="#425066"/>
    <path id="Path_903" data-name="Path 903" d="M7.778-3.357A1.353,1.353,0,0,0,7.251-4.5a6.917,6.917,0,0,0-1.9-.844,13.458,13.458,0,0,1-2.171-.875A3.547,3.547,0,0,1,1-9.4a3.09,3.09,0,0,1,.584-1.85,3.812,3.812,0,0,1,1.679-1.27,6.318,6.318,0,0,1,2.457-.457,5.751,5.751,0,0,1,2.443.5,3.891,3.891,0,0,1,1.666,1.4,3.668,3.668,0,0,1,.593,2.057H7.787a1.726,1.726,0,0,0-.554-1.367,2.276,2.276,0,0,0-1.556-.488,2.432,2.432,0,0,0-1.5.409,1.289,1.289,0,0,0-.536,1.077,1.235,1.235,0,0,0,.628,1.046,7.1,7.1,0,0,0,1.85.791A7.994,7.994,0,0,1,9.4-5.871a3.343,3.343,0,0,1,1.028,2.5A3.08,3.08,0,0,1,9.167-.769,5.5,5.5,0,0,1,5.783.176,6.534,6.534,0,0,1,3.094-.365a4.256,4.256,0,0,1-1.85-1.481,3.793,3.793,0,0,1-.637-2.18H3.252q0,2.118,2.531,2.118A2.462,2.462,0,0,0,7.251-2.29,1.244,1.244,0,0,0,7.778-3.357ZM16.418.176a4.668,4.668,0,0,1-3.406-1.283A4.561,4.561,0,0,1,11.7-4.526v-.246a5.745,5.745,0,0,1,.554-2.562,4.064,4.064,0,0,1,1.569-1.74,4.4,4.4,0,0,1,2.316-.611,3.947,3.947,0,0,1,3.072,1.23,5,5,0,0,1,1.121,3.489v1.037H14.273a2.36,2.36,0,0,0,.743,1.494,2.245,2.245,0,0,0,1.569.563,2.742,2.742,0,0,0,2.294-1.063l1.248,1.4A3.813,3.813,0,0,1,18.58-.277,5.075,5.075,0,0,1,16.418.176Zm-.29-7.813a1.587,1.587,0,0,0-1.226.512,2.651,2.651,0,0,0-.6,1.466h3.533v-.2a1.891,1.891,0,0,0-.457-1.311A1.638,1.638,0,0,0,16.128-7.638Zm7.98-1.872.079,1.1a3.32,3.32,0,0,1,2.733-1.274,2.759,2.759,0,0,1,2.25.888,4.142,4.142,0,0,1,.756,2.654V0h-2.54V-6.082a1.648,1.648,0,0,0-.352-1.173,1.574,1.574,0,0,0-1.169-.365,1.747,1.747,0,0,0-1.608.914V0h-2.54V-9.51Zm7.348,4.685a5.731,5.731,0,0,1,1-3.542,3.237,3.237,0,0,1,2.729-1.318,2.913,2.913,0,0,1,2.294,1.037V-13.5h2.549V0H37.731l-.123-1.011A2.989,2.989,0,0,1,35.165.176a3.228,3.228,0,0,1-2.694-1.323A5.916,5.916,0,0,1,31.456-4.825ZM34-4.636a3.754,3.754,0,0,0,.466,2.051,1.517,1.517,0,0,0,1.354.713,1.7,1.7,0,0,0,1.661-.995V-6.625a1.675,1.675,0,0,0-1.644-.995Q34-7.62,34-4.636Zm8.8,5.735H40.9l4.711-13.9H47.5ZM53.622-4.685h-2.1V0H48.885V-12.8H53.64a5.375,5.375,0,0,1,3.5,1.011,3.488,3.488,0,0,1,1.23,2.856A3.937,3.937,0,0,1,57.8-6.746a3.866,3.866,0,0,1-1.718,1.393L58.852-.123V0h-2.83Zm-2.1-2.136h2.127a2.178,2.178,0,0,0,1.538-.505,1.806,1.806,0,0,0,.545-1.393,1.933,1.933,0,0,0-.514-1.424,2.137,2.137,0,0,0-1.578-.519H51.521Zm13.061,7a4.668,4.668,0,0,1-3.406-1.283,4.561,4.561,0,0,1-1.314-3.419v-.246a5.745,5.745,0,0,1,.554-2.562,4.064,4.064,0,0,1,1.569-1.74A4.4,4.4,0,0,1,64.3-9.686a3.947,3.947,0,0,1,3.072,1.23,5,5,0,0,1,1.121,3.489v1.037H62.438a2.36,2.36,0,0,0,.743,1.494,2.245,2.245,0,0,0,1.569.563,2.742,2.742,0,0,0,2.294-1.063l1.248,1.4A3.813,3.813,0,0,1,66.744-.277,5.075,5.075,0,0,1,64.582.176Zm-.29-7.813a1.587,1.587,0,0,0-1.226.512,2.651,2.651,0,0,0-.6,1.466H66v-.2a1.891,1.891,0,0,0-.457-1.311A1.638,1.638,0,0,0,64.292-7.638Zm9.6,5.766a1.666,1.666,0,0,0,1.143-.387,1.355,1.355,0,0,0,.457-1.028h2.382a3.258,3.258,0,0,1-.527,1.771A3.48,3.48,0,0,1,75.924-.268a4.442,4.442,0,0,1-1.991.444,4.129,4.129,0,0,1-3.217-1.3A5.13,5.13,0,0,1,69.539-4.7v-.167a5.071,5.071,0,0,1,1.169-3.507,4.08,4.08,0,0,1,3.208-1.31A4,4,0,0,1,76.777-8.67a3.594,3.594,0,0,1,1.094,2.7H75.489a1.745,1.745,0,0,0-.457-1.206,1.524,1.524,0,0,0-1.16-.464,1.53,1.53,0,0,0-1.34.647,3.749,3.749,0,0,0-.453,2.1v.264a3.8,3.8,0,0,0,.448,2.113A1.549,1.549,0,0,0,73.89-1.872ZM83.7.176a4.668,4.668,0,0,1-3.406-1.283,4.561,4.561,0,0,1-1.314-3.419v-.246a5.745,5.745,0,0,1,.554-2.562A4.064,4.064,0,0,1,81.1-9.075a4.4,4.4,0,0,1,2.316-.611,3.947,3.947,0,0,1,3.072,1.23,5,5,0,0,1,1.121,3.489v1.037H81.554A2.36,2.36,0,0,0,82.3-2.435a2.245,2.245,0,0,0,1.569.563,2.742,2.742,0,0,0,2.294-1.063l1.248,1.4A3.813,3.813,0,0,1,85.86-.277,5.075,5.075,0,0,1,83.7.176Zm-.29-7.813a1.587,1.587,0,0,0-1.226.512,2.651,2.651,0,0,0-.6,1.466h3.533v-.2a1.891,1.891,0,0,0-.457-1.311A1.638,1.638,0,0,0,83.408-7.638ZM91.731,0H89.183V-9.51h2.549Zm-2.7-11.971a1.251,1.251,0,0,1,.382-.94,1.436,1.436,0,0,1,1.042-.369,1.44,1.44,0,0,1,1.037.369,1.244,1.244,0,0,1,.387.94,1.247,1.247,0,0,1-.391.949,1.443,1.443,0,0,1-1.033.369,1.443,1.443,0,0,1-1.033-.369A1.247,1.247,0,0,1,89.033-11.971ZM97.383-3.1,99.149-9.51H101.8L98.6,0H96.17L92.962-9.51h2.654ZM107.3.176a4.668,4.668,0,0,1-3.406-1.283,4.561,4.561,0,0,1-1.314-3.419v-.246a5.745,5.745,0,0,1,.554-2.562,4.064,4.064,0,0,1,1.569-1.74,4.4,4.4,0,0,1,2.316-.611,3.947,3.947,0,0,1,3.072,1.23,5,5,0,0,1,1.121,3.489v1.037h-6.056a2.36,2.36,0,0,0,.743,1.494,2.245,2.245,0,0,0,1.569.563,2.742,2.742,0,0,0,2.294-1.063l1.248,1.4a3.813,3.813,0,0,1-1.547,1.261A5.075,5.075,0,0,1,107.3.176Zm-.29-7.813a1.587,1.587,0,0,0-1.226.512,2.651,2.651,0,0,0-.6,1.466h3.533v-.2a1.891,1.891,0,0,0-.457-1.311A1.638,1.638,0,0,0,107.007-7.638Z" transform="translate(511 1142)" fill="#425066"/>
    <path id="Path_899" data-name="Path 899" d="M11.188-4.263A4.528,4.528,0,0,1,9.664-1.011,5.355,5.355,0,0,1,6.038.176,4.816,4.816,0,0,1,2.167-1.481,6.793,6.793,0,0,1,.756-6.029v-.782a7.671,7.671,0,0,1,.65-3.252,4.874,4.874,0,0,1,1.859-2.158,5.207,5.207,0,0,1,2.808-.751,5.217,5.217,0,0,1,3.568,1.187,4.866,4.866,0,0,1,1.564,3.331H8.569a2.673,2.673,0,0,0-.69-1.8,2.555,2.555,0,0,0-1.806-.558A2.24,2.24,0,0,0,4.1-9.866a5.3,5.3,0,0,0-.672,2.931v.967a5.667,5.667,0,0,0,.628,3.032,2.2,2.2,0,0,0,1.982.958,2.6,2.6,0,0,0,1.824-.558,2.521,2.521,0,0,0,.69-1.727Zm1.169-.58A5.64,5.64,0,0,1,12.9-7.365a3.989,3.989,0,0,1,1.569-1.714,4.577,4.577,0,0,1,2.377-.606,4.33,4.33,0,0,1,3.142,1.178,4.727,4.727,0,0,1,1.358,3.2l.018.65a4.97,4.97,0,0,1-1.222,3.511A4.247,4.247,0,0,1,16.866.176a4.268,4.268,0,0,1-3.283-1.318,5.058,5.058,0,0,1-1.226-3.586Zm2.54.18a3.555,3.555,0,0,0,.51,2.073,1.682,1.682,0,0,0,1.459.717,1.686,1.686,0,0,0,1.441-.709,3.89,3.89,0,0,0,.519-2.267,3.519,3.519,0,0,0-.519-2.06,1.686,1.686,0,0,0-1.459-.731,1.658,1.658,0,0,0-1.441.726A3.955,3.955,0,0,0,14.9-4.662ZM25.611,0H23.063V-13.5h2.549Zm4.772,0H27.835V-13.5h2.549Zm7.6,0a2.821,2.821,0,0,1-.255-.853,3.073,3.073,0,0,1-2.4,1.028,3.376,3.376,0,0,1-2.316-.809A2.6,2.6,0,0,1,32.1-2.672a2.687,2.687,0,0,1,1.121-2.32,5.529,5.529,0,0,1,3.239-.817h1.169v-.545a1.567,1.567,0,0,0-.338-1.055,1.331,1.331,0,0,0-1.068-.4,1.513,1.513,0,0,0-1.006.308,1.045,1.045,0,0,0-.365.844h-2.54a2.551,2.551,0,0,1,.51-1.529,3.37,3.37,0,0,1,1.441-1.1,5.253,5.253,0,0,1,2.092-.4,4.15,4.15,0,0,1,2.791.883,3.09,3.09,0,0,1,1.033,2.483V-2.2a4.546,4.546,0,0,0,.378,2.048V0Zm-2.1-1.767a2.188,2.188,0,0,0,1.037-.25,1.645,1.645,0,0,0,.7-.672V-4.324h-.949q-1.907,0-2.03,1.318l-.009.149a1.017,1.017,0,0,0,.334.782A1.3,1.3,0,0,0,35.886-1.767Zm14.81-2.9A5.758,5.758,0,0,1,49.72-1.1,3.231,3.231,0,0,1,47,.176a2.969,2.969,0,0,1-2.47-1.187L44.411,0H42.126V-13.5h2.54v4.843a2.893,2.893,0,0,1,2.312-1.028,3.258,3.258,0,0,1,2.729,1.279,5.767,5.767,0,0,1,.989,3.6Zm-2.54-.185a3.783,3.783,0,0,0-.457-2.1,1.545,1.545,0,0,0-1.362-.664,1.676,1.676,0,0,0-1.67.993v3.753a1.7,1.7,0,0,0,1.688,1,1.568,1.568,0,0,0,1.617-1.213A6.257,6.257,0,0,0,48.155-4.852Zm3.709.009a5.64,5.64,0,0,1,.545-2.522,3.989,3.989,0,0,1,1.569-1.714,4.577,4.577,0,0,1,2.377-.606A4.33,4.33,0,0,1,59.5-8.508a4.727,4.727,0,0,1,1.358,3.2l.018.65a4.97,4.97,0,0,1-1.222,3.511A4.247,4.247,0,0,1,56.373.176,4.268,4.268,0,0,1,53.09-1.143a5.058,5.058,0,0,1-1.226-3.586Zm2.54.18a3.555,3.555,0,0,0,.51,2.073,1.682,1.682,0,0,0,1.459.717,1.686,1.686,0,0,0,1.441-.709,3.89,3.89,0,0,0,.519-2.267,3.519,3.519,0,0,0-.519-2.06,1.686,1.686,0,0,0-1.459-.731,1.658,1.658,0,0,0-1.441.726A3.955,3.955,0,0,0,54.4-4.662ZM67.781-7.128a6.9,6.9,0,0,0-.914-.07,1.86,1.86,0,0,0-1.89.976V0h-2.54V-9.51h2.4l.07,1.134a2.354,2.354,0,0,1,2.118-1.31,2.662,2.662,0,0,1,.791.114ZM74.25,0A2.821,2.821,0,0,1,74-.853,3.073,3.073,0,0,1,71.6.176,3.376,3.376,0,0,1,69.28-.633a2.6,2.6,0,0,1-.918-2.039,2.687,2.687,0,0,1,1.121-2.32,5.529,5.529,0,0,1,3.239-.817H73.89v-.545a1.567,1.567,0,0,0-.338-1.055,1.331,1.331,0,0,0-1.068-.4,1.513,1.513,0,0,0-1.006.308,1.045,1.045,0,0,0-.365.844h-2.54a2.551,2.551,0,0,1,.51-1.529,3.37,3.37,0,0,1,1.441-1.1,5.253,5.253,0,0,1,2.092-.4,4.15,4.15,0,0,1,2.791.883,3.09,3.09,0,0,1,1.033,2.483V-2.2a4.546,4.546,0,0,0,.378,2.048V0Zm-2.1-1.767a2.188,2.188,0,0,0,1.037-.25,1.645,1.645,0,0,0,.7-.672V-4.324H72.94q-1.907,0-2.03,1.318l-.009.149a1.017,1.017,0,0,0,.334.782A1.3,1.3,0,0,0,72.149-1.767Zm9.281-10.081V-9.51h1.626v1.863H81.431V-2.9a1.133,1.133,0,0,0,.2.756,1.015,1.015,0,0,0,.773.229,4.051,4.051,0,0,0,.747-.062V-.053a5.229,5.229,0,0,1-1.538.229,2.425,2.425,0,0,1-2.725-2.7V-7.646H77.5V-9.51h1.389v-2.338ZM88.849.176a4.668,4.668,0,0,1-3.406-1.283,4.561,4.561,0,0,1-1.314-3.419v-.246a5.745,5.745,0,0,1,.554-2.562,4.064,4.064,0,0,1,1.569-1.74,4.4,4.4,0,0,1,2.316-.611,3.947,3.947,0,0,1,3.072,1.23A5,5,0,0,1,92.76-4.966v1.037H86.7a2.36,2.36,0,0,0,.743,1.494,2.245,2.245,0,0,0,1.569.563A2.742,2.742,0,0,0,91.31-2.936l1.248,1.4A3.813,3.813,0,0,1,91.011-.277,5.075,5.075,0,0,1,88.849.176Zm-.29-7.813a1.587,1.587,0,0,0-1.226.512,2.651,2.651,0,0,0-.6,1.466h3.533v-.2a1.891,1.891,0,0,0-.457-1.311A1.638,1.638,0,0,0,88.559-7.638ZM95,1.1h-1.89l4.711-13.9h1.89Zm15.724-11.76H106.8V0h-2.637V-10.661H100.3V-12.8h10.424ZM116.438.176a4.668,4.668,0,0,1-3.406-1.283,4.561,4.561,0,0,1-1.314-3.419v-.246a5.745,5.745,0,0,1,.554-2.562,4.064,4.064,0,0,1,1.569-1.74,4.4,4.4,0,0,1,2.316-.611,3.947,3.947,0,0,1,3.072,1.23,5,5,0,0,1,1.121,3.489v1.037h-6.056a2.36,2.36,0,0,0,.743,1.494,2.245,2.245,0,0,0,1.569.563A2.742,2.742,0,0,0,118.9-2.936l1.248,1.4A3.813,3.813,0,0,1,118.6-.277,5.075,5.075,0,0,1,116.438.176Zm-.29-7.813a1.587,1.587,0,0,0-1.226.512,2.651,2.651,0,0,0-.6,1.466h3.533v-.2a1.891,1.891,0,0,0-.457-1.311A1.638,1.638,0,0,0,116.147-7.638Zm10.793,5.01a.818.818,0,0,0-.461-.734A5.241,5.241,0,0,0,125-3.841q-3.393-.712-3.393-2.883a2.613,2.613,0,0,1,1.05-2.114,4.237,4.237,0,0,1,2.747-.848,4.56,4.56,0,0,1,2.9.853,2.687,2.687,0,0,1,1.085,2.215h-2.54a1.229,1.229,0,0,0-.352-.9,1.488,1.488,0,0,0-1.1-.356,1.52,1.52,0,0,0-.993.29.916.916,0,0,0-.352.738.783.783,0,0,0,.4.681,4.114,4.114,0,0,0,1.349.448,11.019,11.019,0,0,1,1.6.426,2.628,2.628,0,0,1,2.013,2.558,2.481,2.481,0,0,1-1.116,2.1,4.815,4.815,0,0,1-2.883.8,5.029,5.029,0,0,1-2.123-.426,3.561,3.561,0,0,1-1.455-1.169,2.716,2.716,0,0,1-.527-1.6h2.408a1.326,1.326,0,0,0,.5,1.037,1.987,1.987,0,0,0,1.248.36,1.839,1.839,0,0,0,1.1-.277A.861.861,0,0,0,126.94-2.628Zm7.146-9.22V-9.51h1.626v1.863h-1.626V-2.9a1.133,1.133,0,0,0,.2.756,1.015,1.015,0,0,0,.773.229,4.051,4.051,0,0,0,.747-.062V-.053a5.229,5.229,0,0,1-1.538.229,2.425,2.425,0,0,1-2.725-2.7V-7.646h-1.389V-9.51h1.389v-2.338Z" transform="translate(396 834)" fill="#425066"/>
    <path id="Path_896" data-name="Path 896" d="M6.829-4.443H2.741v3.063H7.52V0H1.012V-9.953h6.46v1.395H2.741v2.748H6.829Zm4.594-.52L12.831-7.4h1.846L12.414-3.753,14.752,0H12.92L11.443-2.529,9.974,0H8.128l2.338-3.753L8.21-7.4h1.832Zm10.862,1.34a4.4,4.4,0,0,1-.779,2.738A2.5,2.5,0,0,1,19.414.137a2.512,2.512,0,0,1-1.948-.8V2.844H15.8V-7.4h1.531l.068.752a2.44,2.44,0,0,1,1.989-.889,2.521,2.521,0,0,1,2.123,1.008,4.521,4.521,0,0,1,.769,2.8Zm-1.654-.144a3.085,3.085,0,0,0-.441-1.757,1.433,1.433,0,0,0-1.261-.649,1.529,1.529,0,0,0-1.463.841v3.281a1.543,1.543,0,0,0,1.477.861,1.432,1.432,0,0,0,1.241-.639A3.4,3.4,0,0,0,20.631-3.767ZM25.457,0H23.8V-10.5h1.661Zm1.5-3.767a4.361,4.361,0,0,1,.431-1.958,3.145,3.145,0,0,1,1.21-1.34,3.409,3.409,0,0,1,1.791-.468,3.231,3.231,0,0,1,2.43.964,3.791,3.791,0,0,1,1.008,2.557l.007.39a4.4,4.4,0,0,1-.42,1.955,3.108,3.108,0,0,1-1.2,1.333A3.434,3.434,0,0,1,30.4.137,3.209,3.209,0,0,1,27.894-.906a3.993,3.993,0,0,1-.94-2.779Zm1.661.144a2.98,2.98,0,0,0,.472,1.788,1.533,1.533,0,0,0,1.313.646,1.517,1.517,0,0,0,1.309-.656,3.292,3.292,0,0,0,.468-1.921,2.942,2.942,0,0,0-.482-1.777A1.539,1.539,0,0,0,30.386-6.2a1.525,1.525,0,0,0-1.292.646A3.23,3.23,0,0,0,28.615-3.623ZM39.108-5.879a4.111,4.111,0,0,0-.677-.055,1.524,1.524,0,0,0-1.538.875V0H35.232V-7.4h1.586l.041.827a1.872,1.872,0,0,1,1.668-.964,1.555,1.555,0,0,1,.588.1ZM43.415.137a3.437,3.437,0,0,1-2.56-.995,3.608,3.608,0,0,1-.981-2.649v-.205A4.438,4.438,0,0,1,40.3-5.691a3.252,3.252,0,0,1,1.2-1.357,3.172,3.172,0,0,1,1.723-.485,2.9,2.9,0,0,1,2.334.964,4.076,4.076,0,0,1,.824,2.728v.67H41.549a2.221,2.221,0,0,0,.612,1.449,1.837,1.837,0,0,0,1.35.533,2.249,2.249,0,0,0,1.859-.923l.9.854A2.99,2.99,0,0,1,45.08-.229,3.713,3.713,0,0,1,43.415.137Zm-.2-6.337a1.4,1.4,0,0,0-1.1.479,2.48,2.48,0,0,0-.537,1.333h3.165v-.123A2.019,2.019,0,0,0,44.3-5.773,1.388,1.388,0,0,0,43.217-6.2ZM53.744-2.379l1.5-5.018h1.771L54.079,1.121a2.389,2.389,0,0,1-2.3,1.866,2.961,2.961,0,0,1-.8-.124V1.572l.314.021a1.617,1.617,0,0,0,.947-.229,1.517,1.517,0,0,0,.5-.768l.239-.635L50.388-7.4h1.791Zm3.917-1.388a4.361,4.361,0,0,1,.431-1.958,3.145,3.145,0,0,1,1.21-1.34,3.409,3.409,0,0,1,1.791-.468,3.231,3.231,0,0,1,2.43.964,3.791,3.791,0,0,1,1.008,2.557l.007.39a4.4,4.4,0,0,1-.42,1.955,3.108,3.108,0,0,1-1.2,1.333,3.434,3.434,0,0,1-1.808.472A3.209,3.209,0,0,1,58.6-.906a3.993,3.993,0,0,1-.94-2.779Zm1.661.144a2.98,2.98,0,0,0,.472,1.788,1.533,1.533,0,0,0,1.313.646,1.517,1.517,0,0,0,1.309-.656,3.292,3.292,0,0,0,.468-1.921A2.942,2.942,0,0,0,62.4-5.544,1.539,1.539,0,0,0,61.093-6.2a1.525,1.525,0,0,0-1.292.646A3.23,3.23,0,0,0,59.322-3.623Zm11.1,2.9a2.576,2.576,0,0,1-2.078.861,2.3,2.3,0,0,1-1.822-.7A3,3,0,0,1,65.905-2.6V-7.4h1.661v4.771q0,1.408,1.169,1.408a1.642,1.642,0,0,0,1.634-.868V-7.4H72.03V0H70.465Zm7.171-5.154a4.111,4.111,0,0,0-.677-.055,1.524,1.524,0,0,0-1.538.875V0H73.719V-7.4H75.3l.041.827a1.872,1.872,0,0,1,1.668-.964,1.555,1.555,0,0,1,.588.1ZM.54,13.247A4.4,4.4,0,0,1,1.333,10.5,2.541,2.541,0,0,1,3.459,9.467a2.414,2.414,0,0,1,1.9.82V6.5H7.021V17h-1.5l-.082-.766a2.449,2.449,0,0,1-1.989.9,2.527,2.527,0,0,1-2.1-1.046A4.558,4.558,0,0,1,.54,13.247Zm1.661.144a3.079,3.079,0,0,0,.434,1.76,1.408,1.408,0,0,0,1.234.632,1.569,1.569,0,0,0,1.49-.909V11.716a1.545,1.545,0,0,0-1.477-.889,1.419,1.419,0,0,0-1.244.639A3.429,3.429,0,0,0,2.2,13.391ZM13.173,17a2.564,2.564,0,0,1-.191-.69,2.586,2.586,0,0,1-1.941.827A2.61,2.61,0,0,1,9.222,16.5a2.034,2.034,0,0,1-.7-1.572A2.1,2.1,0,0,1,9.4,13.114a4.257,4.257,0,0,1,2.512-.632h1.019V12a1.3,1.3,0,0,0-.321-.919,1.274,1.274,0,0,0-.978-.345,1.463,1.463,0,0,0-.93.284.878.878,0,0,0-.362.721H8.675a1.844,1.844,0,0,1,.4-1.138,2.687,2.687,0,0,1,1.1-.831,3.854,3.854,0,0,1,1.548-.3,3.1,3.1,0,0,1,2.071.653,2.328,2.328,0,0,1,.793,1.835v3.336a3.781,3.781,0,0,0,.28,1.593V17Zm-1.825-1.2a1.89,1.89,0,0,0,.926-.239,1.6,1.6,0,0,0,.653-.643V13.527h-.9a2.449,2.449,0,0,0-1.388.321,1.041,1.041,0,0,0-.465.909.971.971,0,0,0,.318.762A1.231,1.231,0,0,0,11.348,15.8Zm9.126-.813a.753.753,0,0,0-.366-.677,3.89,3.89,0,0,0-1.213-.41,6.238,6.238,0,0,1-1.415-.451,1.889,1.889,0,0,1-1.244-1.743,1.969,1.969,0,0,1,.807-1.6,3.189,3.189,0,0,1,2.051-.643,3.318,3.318,0,0,1,2.143.656,2.082,2.082,0,0,1,.817,1.7H20.392a1.024,1.024,0,0,0-.355-.8,1.362,1.362,0,0,0-.943-.318,1.472,1.472,0,0,0-.892.253.8.8,0,0,0-.345.677.673.673,0,0,0,.321.595,4.418,4.418,0,0,0,1.3.427,6.148,6.148,0,0,1,1.535.513,2.173,2.173,0,0,1,.827.714,1.822,1.822,0,0,1,.27,1.012,1.927,1.927,0,0,1-.827,1.617,3.527,3.527,0,0,1-2.167.619,3.825,3.825,0,0,1-1.62-.328,2.666,2.666,0,0,1-1.107-.9,2.136,2.136,0,0,1-.4-1.237H17.6a1.171,1.171,0,0,0,.444.906,1.727,1.727,0,0,0,1.087.318,1.68,1.68,0,0,0,1-.25A.772.772,0,0,0,20.474,14.99Zm4.717-4.58a2.6,2.6,0,0,1,2.058-.943q2.365,0,2.4,2.7V17H27.986V12.229a1.461,1.461,0,0,0-.332-1.083,1.355,1.355,0,0,0-.974-.318,1.6,1.6,0,0,0-1.49.889V17H23.529V6.5H25.19Zm12.626,2.967a4.443,4.443,0,0,1-.769,2.741,2.505,2.505,0,0,1-2.116,1.019,2.413,2.413,0,0,1-2.023-.937l-.082.8h-1.5V6.5h1.661v3.814a2.4,2.4,0,0,1,1.935-.848,2.534,2.534,0,0,1,2.126,1,4.517,4.517,0,0,1,.772,2.81Zm-1.661-.144a3.14,3.14,0,0,0-.424-1.8,1.411,1.411,0,0,0-1.23-.6,1.542,1.542,0,0,0-1.518.943v3.049a1.558,1.558,0,0,0,1.531.964,1.4,1.4,0,0,0,1.2-.581,3.043,3.043,0,0,0,.438-1.757Zm2.741,0a4.361,4.361,0,0,1,.431-1.958,3.145,3.145,0,0,1,1.21-1.34,3.409,3.409,0,0,1,1.791-.468,3.231,3.231,0,0,1,2.43.964,3.791,3.791,0,0,1,1.008,2.557l.007.39a4.4,4.4,0,0,1-.42,1.955,3.108,3.108,0,0,1-1.2,1.333,3.434,3.434,0,0,1-1.808.472,3.209,3.209,0,0,1-2.505-1.042,3.993,3.993,0,0,1-.94-2.779Zm1.661.144a2.98,2.98,0,0,0,.472,1.788,1.533,1.533,0,0,0,1.313.646,1.517,1.517,0,0,0,1.309-.656,3.292,3.292,0,0,0,.468-1.921,2.942,2.942,0,0,0-.482-1.777,1.624,1.624,0,0,0-2.6-.01A3.23,3.23,0,0,0,40.558,13.377ZM51.6,17a2.564,2.564,0,0,1-.191-.69,2.794,2.794,0,0,1-3.76.191,2.034,2.034,0,0,1-.7-1.572,2.1,2.1,0,0,1,.878-1.815,4.257,4.257,0,0,1,2.512-.632h1.019V12a1.3,1.3,0,0,0-.321-.919,1.274,1.274,0,0,0-.978-.345,1.463,1.463,0,0,0-.93.284.878.878,0,0,0-.362.721H47.1a1.844,1.844,0,0,1,.4-1.138,2.687,2.687,0,0,1,1.1-.831,3.854,3.854,0,0,1,1.548-.3,3.1,3.1,0,0,1,2.071.653,2.328,2.328,0,0,1,.793,1.835v3.336a3.781,3.781,0,0,0,.28,1.593V17Zm-1.825-1.2a1.89,1.89,0,0,0,.926-.239,1.6,1.6,0,0,0,.653-.643V13.527h-.9a2.449,2.449,0,0,0-1.388.321,1.041,1.041,0,0,0-.465.909.971.971,0,0,0,.318.762A1.231,1.231,0,0,0,49.772,15.8Zm8.853-4.683a4.111,4.111,0,0,0-.677-.055,1.524,1.524,0,0,0-1.538.875V17H54.749V9.6h1.586l.041.827a1.872,1.872,0,0,1,1.668-.964,1.555,1.555,0,0,1,.588.1Zm.738,2.126a4.4,4.4,0,0,1,.793-2.745,2.541,2.541,0,0,1,2.126-1.036,2.414,2.414,0,0,1,1.9.82V6.5h1.661V17h-1.5l-.082-.766a2.449,2.449,0,0,1-1.989.9,2.526,2.526,0,0,1-2.1-1.046A4.558,4.558,0,0,1,59.363,13.247Zm1.661.144a3.079,3.079,0,0,0,.434,1.76,1.408,1.408,0,0,0,1.234.632,1.569,1.569,0,0,0,1.49-.909V11.716a1.545,1.545,0,0,0-1.477-.889,1.419,1.419,0,0,0-1.244.639A3.429,3.429,0,0,0,61.024,13.391Z" transform="translate(124 1055)" fill="#3fc904"/>
    <path id="Path_902" data-name="Path 902" d="M8.292-9.953V-3.3A3.232,3.232,0,0,1,7.277-.79a3.856,3.856,0,0,1-2.7.926A3.884,3.884,0,0,1,1.859-.776a3.248,3.248,0,0,1-1-2.533V-9.953H2.577v6.658a2.115,2.115,0,0,0,.506,1.524,1.973,1.973,0,0,0,1.49.526q2,0,2-2.105v-6.6Zm8.162,6.33a4.4,4.4,0,0,1-.779,2.738A2.5,2.5,0,0,1,13.583.137a2.512,2.512,0,0,1-1.948-.8V2.844H9.974V-7.4H11.5l.068.752a2.44,2.44,0,0,1,1.989-.889,2.521,2.521,0,0,1,2.123,1.008,4.521,4.521,0,0,1,.769,2.8ZM14.8-3.767a3.085,3.085,0,0,0-.441-1.757A1.433,1.433,0,0,0,13.1-6.173a1.529,1.529,0,0,0-1.463.841v3.281a1.543,1.543,0,0,0,1.477.861,1.432,1.432,0,0,0,1.241-.639A3.4,3.4,0,0,0,14.8-3.767ZM19.626,0H17.965V-10.5h1.661Zm1.5-3.767a4.361,4.361,0,0,1,.431-1.958,3.145,3.145,0,0,1,1.21-1.34,3.409,3.409,0,0,1,1.791-.468,3.231,3.231,0,0,1,2.43.964,3.791,3.791,0,0,1,1.008,2.557l.007.39a4.4,4.4,0,0,1-.42,1.955,3.108,3.108,0,0,1-1.2,1.333,3.434,3.434,0,0,1-1.808.472A3.209,3.209,0,0,1,22.063-.906a3.993,3.993,0,0,1-.94-2.779Zm1.661.144a2.98,2.98,0,0,0,.472,1.788,1.533,1.533,0,0,0,1.313.646,1.517,1.517,0,0,0,1.309-.656,3.292,3.292,0,0,0,.468-1.921,2.942,2.942,0,0,0-.482-1.777A1.539,1.539,0,0,0,24.555-6.2a1.525,1.525,0,0,0-1.292.646A3.23,3.23,0,0,0,22.784-3.623ZM33.824,0a2.564,2.564,0,0,1-.191-.69,2.586,2.586,0,0,1-1.941.827A2.61,2.61,0,0,1,29.873-.5a2.034,2.034,0,0,1-.7-1.572,2.1,2.1,0,0,1,.878-1.815,4.257,4.257,0,0,1,2.512-.632h1.019V-5a1.3,1.3,0,0,0-.321-.919,1.274,1.274,0,0,0-.978-.345,1.463,1.463,0,0,0-.93.284.878.878,0,0,0-.362.721H29.326a1.844,1.844,0,0,1,.4-1.138,2.687,2.687,0,0,1,1.1-.831,3.854,3.854,0,0,1,1.548-.3,3.1,3.1,0,0,1,2.071.653,2.328,2.328,0,0,1,.793,1.835v3.336a3.781,3.781,0,0,0,.28,1.593V0ZM32-1.2a1.89,1.89,0,0,0,.926-.239,1.6,1.6,0,0,0,.653-.643V-3.473h-.9a2.449,2.449,0,0,0-1.388.321,1.041,1.041,0,0,0-.465.909.971.971,0,0,0,.318.762A1.231,1.231,0,0,0,32-1.2Zm4.669-2.557A4.4,4.4,0,0,1,37.461-6.5a2.541,2.541,0,0,1,2.126-1.036,2.414,2.414,0,0,1,1.9.82V-10.5h1.661V0h-1.5l-.082-.766a2.449,2.449,0,0,1-1.989.9,2.526,2.526,0,0,1-2.1-1.046A4.558,4.558,0,0,1,36.668-3.753Zm1.661.144a3.079,3.079,0,0,0,.434,1.76A1.408,1.408,0,0,0,40-1.217a1.569,1.569,0,0,0,1.49-.909V-5.284a1.545,1.545,0,0,0-1.477-.889,1.419,1.419,0,0,0-1.244.639A3.429,3.429,0,0,0,38.329-3.609Zm16.529-.014a4.443,4.443,0,0,1-.769,2.741A2.505,2.505,0,0,1,51.974.137,2.413,2.413,0,0,1,49.95-.8l-.082.8h-1.5V-10.5h1.661v3.814a2.4,2.4,0,0,1,1.935-.848,2.534,2.534,0,0,1,2.126,1,4.517,4.517,0,0,1,.772,2.81ZM53.2-3.767a3.14,3.14,0,0,0-.424-1.8,1.411,1.411,0,0,0-1.23-.6,1.542,1.542,0,0,0-1.518.943v3.049a1.558,1.558,0,0,0,1.531.964,1.4,1.4,0,0,0,1.2-.581A3.043,3.043,0,0,0,53.2-3.555ZM60.73-.725a2.576,2.576,0,0,1-2.078.861,2.3,2.3,0,0,1-1.822-.7A3,3,0,0,1,56.212-2.6V-7.4h1.661v4.771q0,1.408,1.169,1.408a1.642,1.642,0,0,0,1.634-.868V-7.4h1.661V0H60.771ZM65.8,0H64.135V-7.4H65.8ZM64.032-9.317a.882.882,0,0,1,.243-.636.917.917,0,0,1,.694-.253.928.928,0,0,1,.7.253.875.875,0,0,1,.246.636.855.855,0,0,1-.246.625.935.935,0,0,1-.7.25.924.924,0,0,1-.694-.25A.861.861,0,0,1,64.032-9.317ZM69.371,0H67.71V-10.5h1.661Zm1.5-3.753A4.4,4.4,0,0,1,71.661-6.5a2.541,2.541,0,0,1,2.126-1.036,2.414,2.414,0,0,1,1.9.82V-10.5h1.661V0h-1.5l-.082-.766a2.449,2.449,0,0,1-1.989.9,2.527,2.527,0,0,1-2.1-1.046A4.558,4.558,0,0,1,70.868-3.753Zm1.661.144a3.079,3.079,0,0,0,.434,1.76,1.408,1.408,0,0,0,1.234.632,1.569,1.569,0,0,0,1.49-.909V-5.284a1.545,1.545,0,0,0-1.477-.889,1.419,1.419,0,0,0-1.244.639A3.429,3.429,0,0,0,72.529-3.609Zm12.12-5.585v1.8h1.306v1.23H84.649v4.129a.909.909,0,0,0,.167.612.777.777,0,0,0,.6.188A2.559,2.559,0,0,0,86-1.306V-.021A4.091,4.091,0,0,1,84.9.137q-1.914,0-1.914-2.112v-4.19H81.771V-7.4h1.217v-1.8Zm2.058,5.428a4.361,4.361,0,0,1,.431-1.958,3.145,3.145,0,0,1,1.21-1.34,3.409,3.409,0,0,1,1.791-.468,3.231,3.231,0,0,1,2.43.964,3.791,3.791,0,0,1,1.008,2.557l.007.39a4.4,4.4,0,0,1-.42,1.955,3.108,3.108,0,0,1-1.2,1.333,3.434,3.434,0,0,1-1.808.472A3.209,3.209,0,0,1,87.647-.906a3.993,3.993,0,0,1-.94-2.779Zm1.661.144a2.98,2.98,0,0,0,.472,1.788,1.533,1.533,0,0,0,1.313.646,1.517,1.517,0,0,0,1.309-.656,3.292,3.292,0,0,0,.468-1.921,2.942,2.942,0,0,0-.482-1.777A1.539,1.539,0,0,0,90.139-6.2a1.525,1.525,0,0,0-1.292.646A3.23,3.23,0,0,0,88.368-3.623ZM3.438,14.621,4.942,9.6H6.713L3.773,18.121a2.389,2.389,0,0,1-2.3,1.866,2.961,2.961,0,0,1-.8-.124V18.572l.314.021a1.617,1.617,0,0,0,.947-.229,1.517,1.517,0,0,0,.5-.768l.239-.635L.082,9.6H1.873Zm3.917-1.388a4.361,4.361,0,0,1,.431-1.958A3.145,3.145,0,0,1,9,9.935a3.409,3.409,0,0,1,1.791-.468,3.231,3.231,0,0,1,2.43.964,3.791,3.791,0,0,1,1.008,2.557l.007.39a4.4,4.4,0,0,1-.42,1.955,3.108,3.108,0,0,1-1.2,1.333,3.434,3.434,0,0,1-1.808.472A3.209,3.209,0,0,1,8.3,16.094a3.993,3.993,0,0,1-.94-2.779Zm1.661.144a2.98,2.98,0,0,0,.472,1.788,1.533,1.533,0,0,0,1.313.646,1.517,1.517,0,0,0,1.309-.656,3.292,3.292,0,0,0,.468-1.921,2.942,2.942,0,0,0-.482-1.777,1.624,1.624,0,0,0-2.6-.01A3.23,3.23,0,0,0,9.017,13.377Zm11.1,2.9a2.576,2.576,0,0,1-2.078.861,2.3,2.3,0,0,1-1.822-.7A3,3,0,0,1,15.6,14.4V9.6h1.661v4.771q0,1.408,1.169,1.408a1.642,1.642,0,0,0,1.634-.868V9.6h1.661V17H20.159Zm7.171-5.154a4.111,4.111,0,0,0-.677-.055,1.524,1.524,0,0,0-1.538.875V17H23.413V9.6H25l.041.827a1.872,1.872,0,0,1,1.668-.964,1.555,1.555,0,0,1,.588.1Zm7.574,4.689a1.5,1.5,0,0,0,1.032-.362,1.238,1.238,0,0,0,.438-.9H37.9a2.44,2.44,0,0,1-.431,1.289,2.825,2.825,0,0,1-1.094.947,3.259,3.259,0,0,1-1.49.349,3.154,3.154,0,0,1-2.461-1,3.986,3.986,0,0,1-.909-2.775v-.171a3.919,3.919,0,0,1,.9-2.7,3.125,3.125,0,0,1,2.461-1.015,3.039,3.039,0,0,1,2.15.769,2.755,2.755,0,0,1,.872,2.02H36.333A1.521,1.521,0,0,0,35.9,11.21a1.4,1.4,0,0,0-1.036-.41,1.462,1.462,0,0,0-1.244.584,2.982,2.982,0,0,0-.444,1.774v.267a3.032,3.032,0,0,0,.434,1.794A1.461,1.461,0,0,0,34.863,15.811ZM40.92,17H39.259V6.5H40.92Zm1.5-3.767a4.361,4.361,0,0,1,.431-1.958,3.145,3.145,0,0,1,1.21-1.34,3.409,3.409,0,0,1,1.791-.468,3.231,3.231,0,0,1,2.43.964,3.791,3.791,0,0,1,1.008,2.557l.007.39a4.4,4.4,0,0,1-.42,1.955,3.108,3.108,0,0,1-1.2,1.333,3.434,3.434,0,0,1-1.808.472,3.209,3.209,0,0,1-2.505-1.042,3.993,3.993,0,0,1-.94-2.779Zm1.661.144a2.98,2.98,0,0,0,.472,1.788,1.533,1.533,0,0,0,1.313.646,1.517,1.517,0,0,0,1.309-.656,3.292,3.292,0,0,0,.468-1.921,2.942,2.942,0,0,0-.482-1.777,1.624,1.624,0,0,0-2.6-.01A3.23,3.23,0,0,0,44.078,13.377Zm11.1,2.9a2.576,2.576,0,0,1-2.078.861,2.3,2.3,0,0,1-1.822-.7,3,3,0,0,1-.619-2.037V9.6h1.661v4.771q0,1.408,1.169,1.408a1.642,1.642,0,0,0,1.634-.868V9.6h1.661V17H55.221Zm2.987-3.028A4.4,4.4,0,0,1,58.96,10.5a2.541,2.541,0,0,1,2.126-1.036,2.414,2.414,0,0,1,1.9.82V6.5h1.661V17h-1.5l-.082-.766a2.449,2.449,0,0,1-1.989.9,2.526,2.526,0,0,1-2.1-1.046A4.558,4.558,0,0,1,58.167,13.247Zm1.661.144a3.079,3.079,0,0,0,.434,1.76,1.408,1.408,0,0,0,1.234.632,1.569,1.569,0,0,0,1.49-.909V11.716a1.545,1.545,0,0,0-1.477-.889,1.419,1.419,0,0,0-1.244.639A3.429,3.429,0,0,0,59.828,13.391ZM74.286,17a2.564,2.564,0,0,1-.191-.69,2.794,2.794,0,0,1-3.76.191,2.034,2.034,0,0,1-.7-1.572,2.1,2.1,0,0,1,.878-1.815,4.257,4.257,0,0,1,2.512-.632H74.04V12a1.3,1.3,0,0,0-.321-.919,1.274,1.274,0,0,0-.978-.345,1.463,1.463,0,0,0-.93.284.878.878,0,0,0-.362.721H69.788a1.844,1.844,0,0,1,.4-1.138,2.687,2.687,0,0,1,1.1-.831,3.854,3.854,0,0,1,1.548-.3,3.1,3.1,0,0,1,2.071.653,2.328,2.328,0,0,1,.793,1.835v3.336a3.781,3.781,0,0,0,.28,1.593V17Zm-1.825-1.2a1.89,1.89,0,0,0,.926-.239,1.6,1.6,0,0,0,.653-.643V13.527h-.9a2.449,2.449,0,0,0-1.388.321,1.041,1.041,0,0,0-.465.909.971.971,0,0,0,.318.762A1.231,1.231,0,0,0,72.461,15.8Zm6.521-6.2.048.854a2.659,2.659,0,0,1,2.153-.991q2.311,0,2.352,2.646V17H81.874V12.208a1.523,1.523,0,0,0-.3-1.042,1.28,1.28,0,0,0-.995-.338,1.6,1.6,0,0,0-1.5.909V17H77.417V9.6Zm5.934,3.644a4.4,4.4,0,0,1,.793-2.745,2.541,2.541,0,0,1,2.126-1.036,2.414,2.414,0,0,1,1.9.82V6.5H91.4V17h-1.5l-.082-.766a2.449,2.449,0,0,1-1.989.9,2.527,2.527,0,0,1-2.1-1.046A4.558,4.558,0,0,1,84.916,13.247Zm1.661.144a3.079,3.079,0,0,0,.434,1.76,1.408,1.408,0,0,0,1.234.632,1.569,1.569,0,0,0,1.49-.909V11.716a1.545,1.545,0,0,0-1.477-.889,1.419,1.419,0,0,0-1.244.639A3.429,3.429,0,0,0,86.577,13.391Zm14.185,1.6a.753.753,0,0,0-.366-.677,3.89,3.89,0,0,0-1.213-.41,6.238,6.238,0,0,1-1.415-.451,1.889,1.889,0,0,1-1.244-1.743,1.969,1.969,0,0,1,.807-1.6,3.189,3.189,0,0,1,2.051-.643,3.318,3.318,0,0,1,2.143.656,2.082,2.082,0,0,1,.817,1.7H100.68a1.024,1.024,0,0,0-.355-.8,1.362,1.362,0,0,0-.943-.318,1.472,1.472,0,0,0-.892.253.8.8,0,0,0-.345.677.673.673,0,0,0,.321.595,4.418,4.418,0,0,0,1.3.427,6.148,6.148,0,0,1,1.535.513,2.173,2.173,0,0,1,.827.714,1.822,1.822,0,0,1,.27,1.012,1.927,1.927,0,0,1-.827,1.617,3.527,3.527,0,0,1-2.167.619,3.825,3.825,0,0,1-1.62-.328,2.666,2.666,0,0,1-1.107-.9,2.136,2.136,0,0,1-.4-1.237h1.613a1.171,1.171,0,0,0,.444.906,1.727,1.727,0,0,0,1.087.318,1.68,1.68,0,0,0,1-.25A.772.772,0,0,0,100.762,14.99Zm4.717-4.58a2.6,2.6,0,0,1,2.058-.943q2.365,0,2.4,2.7V17h-1.661V12.229a1.461,1.461,0,0,0-.332-1.083,1.355,1.355,0,0,0-.974-.318,1.6,1.6,0,0,0-1.49.889V17h-1.661V6.5h1.661ZM116.033,17a2.564,2.564,0,0,1-.191-.69,2.794,2.794,0,0,1-3.76.191,2.034,2.034,0,0,1-.7-1.572,2.1,2.1,0,0,1,.878-1.815,4.257,4.257,0,0,1,2.512-.632h1.019V12a1.3,1.3,0,0,0-.321-.919,1.274,1.274,0,0,0-.978-.345,1.463,1.463,0,0,0-.93.284.878.878,0,0,0-.362.721h-1.661a1.844,1.844,0,0,1,.4-1.138,2.687,2.687,0,0,1,1.1-.831,3.854,3.854,0,0,1,1.548-.3,3.1,3.1,0,0,1,2.071.653,2.328,2.328,0,0,1,.793,1.835v3.336a3.781,3.781,0,0,0,.28,1.593V17Zm-1.825-1.2a1.89,1.89,0,0,0,.926-.239,1.6,1.6,0,0,0,.653-.643V13.527h-.9a2.449,2.449,0,0,0-1.388.321,1.041,1.041,0,0,0-.465.909.971.971,0,0,0,.318.762A1.231,1.231,0,0,0,114.208,15.8Zm8.853-4.683a4.111,4.111,0,0,0-.677-.055,1.524,1.524,0,0,0-1.538.875V17h-1.661V9.6h1.586l.041.827a1.872,1.872,0,0,1,1.668-.964,1.555,1.555,0,0,1,.588.1Zm4.307,6.016a3.437,3.437,0,0,1-2.56-.995,3.608,3.608,0,0,1-.981-2.649v-.205a4.438,4.438,0,0,1,.427-1.979,3.252,3.252,0,0,1,1.2-1.357,3.172,3.172,0,0,1,1.723-.485,2.9,2.9,0,0,1,2.334.964,4.076,4.076,0,0,1,.824,2.728v.67H125.5a2.221,2.221,0,0,0,.612,1.449,1.837,1.837,0,0,0,1.35.533,2.249,2.249,0,0,0,1.859-.923l.9.854a2.99,2.99,0,0,1-1.186,1.029A3.713,3.713,0,0,1,127.367,17.137Zm-.2-6.337a1.4,1.4,0,0,0-1.1.479,2.48,2.48,0,0,0-.537,1.333h3.165v-.123a2.019,2.019,0,0,0-.444-1.261A1.388,1.388,0,0,0,127.169,10.8Z" transform="translate(279 1165)" fill="#06c899"/>
    <path id="Path_904" data-name="Path 904" d="M4.669-3.828H2.741V0H1.012V-9.953h3.5a4.071,4.071,0,0,1,2.659.773,2.735,2.735,0,0,1,.937,2.237A2.8,2.8,0,0,1,7.625-5.27,3.067,3.067,0,0,1,6.282-4.233L8.518-.089V0H6.665ZM2.741-5.223H4.519a1.977,1.977,0,0,0,1.367-.441A1.538,1.538,0,0,0,6.378-6.87a1.637,1.637,0,0,0-.455-1.237,1.931,1.931,0,0,0-1.357-.451H2.741ZM12.845.137a3.437,3.437,0,0,1-2.56-.995A3.608,3.608,0,0,1,9.3-3.507v-.205a4.438,4.438,0,0,1,.427-1.979,3.252,3.252,0,0,1,1.2-1.357,3.172,3.172,0,0,1,1.723-.485,2.9,2.9,0,0,1,2.334.964,4.076,4.076,0,0,1,.824,2.728v.67H10.979a2.221,2.221,0,0,0,.612,1.449,1.837,1.837,0,0,0,1.35.533A2.249,2.249,0,0,0,14.8-2.112l.9.854A2.99,2.99,0,0,1,14.509-.229,3.713,3.713,0,0,1,12.845.137Zm-.2-6.337a1.4,1.4,0,0,0-1.1.479,2.48,2.48,0,0,0-.537,1.333h3.165v-.123a2.019,2.019,0,0,0-.444-1.261A1.388,1.388,0,0,0,12.646-6.2Zm7.492,5.011a1.5,1.5,0,0,0,1.032-.362,1.238,1.238,0,0,0,.438-.9h1.565a2.44,2.44,0,0,1-.431,1.289,2.825,2.825,0,0,1-1.094.947,3.259,3.259,0,0,1-1.49.349,3.154,3.154,0,0,1-2.461-1,3.986,3.986,0,0,1-.909-2.775v-.171a3.919,3.919,0,0,1,.9-2.7,3.125,3.125,0,0,1,2.461-1.015,3.039,3.039,0,0,1,2.15.769,2.755,2.755,0,0,1,.872,2.02H21.608a1.521,1.521,0,0,0-.434-1.046,1.4,1.4,0,0,0-1.036-.41,1.462,1.462,0,0,0-1.244.584,2.982,2.982,0,0,0-.444,1.774v.267a3.032,3.032,0,0,0,.434,1.794A1.461,1.461,0,0,0,20.139-1.189ZM27.686.137a3.437,3.437,0,0,1-2.56-.995,3.608,3.608,0,0,1-.981-2.649v-.205a4.438,4.438,0,0,1,.427-1.979,3.252,3.252,0,0,1,1.2-1.357,3.172,3.172,0,0,1,1.723-.485,2.9,2.9,0,0,1,2.334.964,4.076,4.076,0,0,1,.824,2.728v.67H25.819a2.221,2.221,0,0,0,.612,1.449,1.837,1.837,0,0,0,1.35.533,2.249,2.249,0,0,0,1.859-.923l.9.854A2.99,2.99,0,0,1,29.35-.229,3.713,3.713,0,0,1,27.686.137Zm-.2-6.337a1.4,1.4,0,0,0-1.1.479,2.48,2.48,0,0,0-.537,1.333h3.165v-.123a2.019,2.019,0,0,0-.444-1.261A1.388,1.388,0,0,0,27.487-6.2ZM33.708,0H32.047V-7.4h1.661ZM31.944-9.317a.882.882,0,0,1,.243-.636.917.917,0,0,1,.694-.253.928.928,0,0,1,.7.253.875.875,0,0,1,.246.636.855.855,0,0,1-.246.625.935.935,0,0,1-.7.25.924.924,0,0,1-.694-.25A.861.861,0,0,1,31.944-9.317Zm6.18,7.212L39.689-7.4h1.716L38.842,0H37.4L34.815-7.4h1.723ZM45.7.137a3.437,3.437,0,0,1-2.56-.995,3.608,3.608,0,0,1-.981-2.649v-.205a4.438,4.438,0,0,1,.427-1.979,3.252,3.252,0,0,1,1.2-1.357,3.172,3.172,0,0,1,1.723-.485,2.9,2.9,0,0,1,2.334.964,4.076,4.076,0,0,1,.824,2.728v.67H43.832a2.221,2.221,0,0,0,.612,1.449,1.837,1.837,0,0,0,1.35.533,2.249,2.249,0,0,0,1.859-.923l.9.854A2.99,2.99,0,0,1,47.363-.229,3.713,3.713,0,0,1,45.7.137ZM45.5-6.2a1.4,1.4,0,0,0-1.1.479,2.48,2.48,0,0,0-.537,1.333h3.165v-.123a2.019,2.019,0,0,0-.444-1.261A1.388,1.388,0,0,0,45.5-6.2Zm11.813.321a4.111,4.111,0,0,0-.677-.055,1.524,1.524,0,0,0-1.538.875V0H53.437V-7.4h1.586l.041.827a1.872,1.872,0,0,1,1.668-.964,1.555,1.555,0,0,1,.588.1ZM61.619.137a3.437,3.437,0,0,1-2.56-.995,3.608,3.608,0,0,1-.981-2.649v-.205a4.438,4.438,0,0,1,.427-1.979,3.252,3.252,0,0,1,1.2-1.357,3.172,3.172,0,0,1,1.723-.485,2.9,2.9,0,0,1,2.334.964,4.076,4.076,0,0,1,.824,2.728v.67H59.753a2.221,2.221,0,0,0,.612,1.449,1.837,1.837,0,0,0,1.35.533,2.249,2.249,0,0,0,1.859-.923l.9.854A2.991,2.991,0,0,1,63.284-.229,3.713,3.713,0,0,1,61.619.137Zm-.2-6.337a1.4,1.4,0,0,0-1.1.479,2.48,2.48,0,0,0-.537,1.333h3.165v-.123A2.019,2.019,0,0,0,62.5-5.773,1.388,1.388,0,0,0,61.421-6.2Zm8.6,4.19a.753.753,0,0,0-.366-.677,3.89,3.89,0,0,0-1.213-.41,6.238,6.238,0,0,1-1.415-.451,1.889,1.889,0,0,1-1.244-1.743,1.969,1.969,0,0,1,.807-1.6,3.189,3.189,0,0,1,2.051-.643,3.318,3.318,0,0,1,2.143.656,2.082,2.082,0,0,1,.817,1.7H69.938a1.024,1.024,0,0,0-.355-.8,1.362,1.362,0,0,0-.943-.318,1.472,1.472,0,0,0-.892.253.8.8,0,0,0-.345.677.673.673,0,0,0,.321.595,4.418,4.418,0,0,0,1.3.427,6.148,6.148,0,0,1,1.535.513,2.173,2.173,0,0,1,.827.714,1.822,1.822,0,0,1,.27,1.012,1.927,1.927,0,0,1-.827,1.617A3.527,3.527,0,0,1,68.66.137a3.825,3.825,0,0,1-1.62-.328,2.666,2.666,0,0,1-1.107-.9,2.136,2.136,0,0,1-.4-1.237h1.613a1.171,1.171,0,0,0,.444.906,1.727,1.727,0,0,0,1.087.318,1.68,1.68,0,0,0,1-.25A.772.772,0,0,0,70.021-2.01Zm9.557-1.613A4.4,4.4,0,0,1,78.8-.885,2.5,2.5,0,0,1,76.706.137a2.512,2.512,0,0,1-1.948-.8V2.844H73.1V-7.4h1.531l.068.752a2.44,2.44,0,0,1,1.989-.889,2.521,2.521,0,0,1,2.123,1.008,4.521,4.521,0,0,1,.769,2.8Zm-1.654-.144a3.085,3.085,0,0,0-.441-1.757,1.433,1.433,0,0,0-1.261-.649,1.529,1.529,0,0,0-1.463.841v3.281a1.543,1.543,0,0,0,1.477.861,1.432,1.432,0,0,0,1.241-.639A3.4,3.4,0,0,0,77.923-3.767Zm2.748,0A4.361,4.361,0,0,1,81.1-5.725a3.145,3.145,0,0,1,1.21-1.34A3.409,3.409,0,0,1,84.1-7.533a3.231,3.231,0,0,1,2.43.964,3.791,3.791,0,0,1,1.008,2.557l.007.39a4.4,4.4,0,0,1-.42,1.955,3.108,3.108,0,0,1-1.2,1.333,3.434,3.434,0,0,1-1.808.472A3.209,3.209,0,0,1,81.611-.906a3.993,3.993,0,0,1-.94-2.779Zm1.661.144A2.98,2.98,0,0,0,82.8-1.835a1.533,1.533,0,0,0,1.313.646,1.517,1.517,0,0,0,1.309-.656,3.292,3.292,0,0,0,.468-1.921,2.942,2.942,0,0,0-.482-1.777A1.539,1.539,0,0,0,84.1-6.2a1.525,1.525,0,0,0-1.292.646A3.23,3.23,0,0,0,82.332-3.623ZM90.494-7.4l.048.854A2.659,2.659,0,0,1,92.7-7.533q2.311,0,2.352,2.646V0H93.386V-4.792a1.523,1.523,0,0,0-.3-1.042,1.28,1.28,0,0,0-.995-.338,1.6,1.6,0,0,0-1.5.909V0H88.929V-7.4ZM100.885-2.01a.753.753,0,0,0-.366-.677,3.89,3.89,0,0,0-1.213-.41,6.238,6.238,0,0,1-1.415-.451,1.889,1.889,0,0,1-1.244-1.743,1.969,1.969,0,0,1,.807-1.6A3.189,3.189,0,0,1,99.5-7.533a3.318,3.318,0,0,1,2.143.656,2.082,2.082,0,0,1,.817,1.7H100.8a1.024,1.024,0,0,0-.355-.8,1.362,1.362,0,0,0-.943-.318,1.472,1.472,0,0,0-.892.253.8.8,0,0,0-.345.677.673.673,0,0,0,.321.595,4.418,4.418,0,0,0,1.3.427,6.148,6.148,0,0,1,1.535.513,2.173,2.173,0,0,1,.827.714,1.822,1.822,0,0,1,.27,1.012,1.927,1.927,0,0,1-.827,1.617,3.527,3.527,0,0,1-2.167.619A3.825,3.825,0,0,1,97.9-.191a2.666,2.666,0,0,1-1.107-.9,2.136,2.136,0,0,1-.4-1.237h1.613a1.171,1.171,0,0,0,.444.906,1.727,1.727,0,0,0,1.087.318,1.68,1.68,0,0,0,1-.25A.772.772,0,0,0,100.885-2.01ZM107.222.137a3.437,3.437,0,0,1-2.56-.995,3.608,3.608,0,0,1-.981-2.649v-.205a4.438,4.438,0,0,1,.427-1.979,3.252,3.252,0,0,1,1.2-1.357,3.172,3.172,0,0,1,1.723-.485,2.9,2.9,0,0,1,2.334.964,4.076,4.076,0,0,1,.824,2.728v.67h-4.833a2.221,2.221,0,0,0,.612,1.449,1.837,1.837,0,0,0,1.35.533,2.249,2.249,0,0,0,1.859-.923l.9.854a2.99,2.99,0,0,1-1.186,1.029A3.713,3.713,0,0,1,107.222.137Zm-.2-6.337a1.4,1.4,0,0,0-1.1.479,2.48,2.48,0,0,0-.537,1.333h3.165v-.123a2.019,2.019,0,0,0-.444-1.261A1.388,1.388,0,0,0,107.023-6.2ZM111.945.854H110.64l3.917-10.808h1.306ZM1.436,17V10.834H.308V9.6H1.436V8.927a2.54,2.54,0,0,1,.684-1.9,2.619,2.619,0,0,1,1.914-.67,3.839,3.839,0,0,1,.93.123l-.041,1.3a3.272,3.272,0,0,0-.636-.055A1.067,1.067,0,0,0,3.1,8.947V9.6H4.6v1.23H3.1V17Zm7.636.137a3.437,3.437,0,0,1-2.56-.995,3.608,3.608,0,0,1-.981-2.649v-.205a4.438,4.438,0,0,1,.427-1.979,3.252,3.252,0,0,1,1.2-1.357A3.172,3.172,0,0,1,8.88,9.467a2.9,2.9,0,0,1,2.334.964,4.076,4.076,0,0,1,.824,2.728v.67H7.205a2.221,2.221,0,0,0,.612,1.449,1.837,1.837,0,0,0,1.35.533,2.249,2.249,0,0,0,1.859-.923l.9.854a2.99,2.99,0,0,1-1.186,1.029A3.713,3.713,0,0,1,9.071,17.137Zm-.2-6.337a1.4,1.4,0,0,0-1.1.479,2.48,2.48,0,0,0-.537,1.333H10.4v-.123a2.019,2.019,0,0,0-.444-1.261A1.388,1.388,0,0,0,8.873,10.8Zm7.711,6.337a3.437,3.437,0,0,1-2.56-.995,3.608,3.608,0,0,1-.981-2.649v-.205a4.438,4.438,0,0,1,.427-1.979,3.252,3.252,0,0,1,1.2-1.357,3.172,3.172,0,0,1,1.723-.485,2.9,2.9,0,0,1,2.334.964,4.076,4.076,0,0,1,.824,2.728v.67H14.718a2.221,2.221,0,0,0,.612,1.449,1.837,1.837,0,0,0,1.35.533,2.249,2.249,0,0,0,1.859-.923l.9.854a2.99,2.99,0,0,1-1.186,1.029A3.713,3.713,0,0,1,16.584,17.137Zm-.2-6.337a1.4,1.4,0,0,0-1.1.479,2.48,2.48,0,0,0-.537,1.333H17.91v-.123a2.019,2.019,0,0,0-.444-1.261A1.388,1.388,0,0,0,16.386,10.8Zm4.143,2.447a4.4,4.4,0,0,1,.793-2.745,2.541,2.541,0,0,1,2.126-1.036,2.414,2.414,0,0,1,1.9.82V6.5h1.661V17H25.5l-.082-.766a2.449,2.449,0,0,1-1.989.9,2.527,2.527,0,0,1-2.1-1.046A4.558,4.558,0,0,1,20.528,13.247Zm1.661.144a3.079,3.079,0,0,0,.434,1.76,1.408,1.408,0,0,0,1.234.632,1.569,1.569,0,0,0,1.49-.909V11.716a1.545,1.545,0,0,0-1.477-.889,1.419,1.419,0,0,0-1.244.639A3.429,3.429,0,0,0,22.189,13.391Zm13.043-.014a4.443,4.443,0,0,1-.769,2.741,2.505,2.505,0,0,1-2.116,1.019,2.413,2.413,0,0,1-2.023-.937l-.082.8h-1.5V6.5H30.4v3.814a2.4,2.4,0,0,1,1.935-.848,2.534,2.534,0,0,1,2.126,1,4.517,4.517,0,0,1,.772,2.81Zm-1.661-.144a3.14,3.14,0,0,0-.424-1.8,1.411,1.411,0,0,0-1.23-.6,1.542,1.542,0,0,0-1.518.943v3.049a1.558,1.558,0,0,0,1.531.964,1.4,1.4,0,0,0,1.2-.581,3.043,3.043,0,0,0,.438-1.757ZM41.043,17a2.564,2.564,0,0,1-.191-.69,2.794,2.794,0,0,1-3.76.191,2.034,2.034,0,0,1-.7-1.572,2.1,2.1,0,0,1,.878-1.815,4.257,4.257,0,0,1,2.512-.632H40.8V12a1.3,1.3,0,0,0-.321-.919,1.274,1.274,0,0,0-.978-.345,1.463,1.463,0,0,0-.93.284.878.878,0,0,0-.362.721H36.545a1.844,1.844,0,0,1,.4-1.138,2.687,2.687,0,0,1,1.1-.831,3.854,3.854,0,0,1,1.548-.3,3.1,3.1,0,0,1,2.071.653,2.328,2.328,0,0,1,.793,1.835v3.336a3.781,3.781,0,0,0,.28,1.593V17Zm-1.825-1.2a1.89,1.89,0,0,0,.926-.239,1.6,1.6,0,0,0,.653-.643V13.527h-.9a2.449,2.449,0,0,0-1.388.321,1.041,1.041,0,0,0-.465.909.971.971,0,0,0,.318.762A1.231,1.231,0,0,0,39.218,15.8Zm8.019.007a1.5,1.5,0,0,0,1.032-.362,1.238,1.238,0,0,0,.438-.9h1.565a2.44,2.44,0,0,1-.431,1.289,2.825,2.825,0,0,1-1.094.947,3.259,3.259,0,0,1-1.49.349,3.154,3.154,0,0,1-2.461-1,3.986,3.986,0,0,1-.909-2.775v-.171a3.919,3.919,0,0,1,.9-2.7A3.125,3.125,0,0,1,47.25,9.467a3.039,3.039,0,0,1,2.15.769,2.755,2.755,0,0,1,.872,2.02H48.706a1.521,1.521,0,0,0-.434-1.046,1.4,1.4,0,0,0-1.036-.41,1.462,1.462,0,0,0-1.244.584,2.982,2.982,0,0,0-.444,1.774v.267a3.032,3.032,0,0,0,.434,1.794A1.461,1.461,0,0,0,47.236,15.811Zm6.692-1.982-.738.759V17H51.529V6.5H53.19v6.057l.52-.649,2.044-2.3h2L55,12.687,58.044,17H56.123Z" transform="translate(511 1165)" fill="#5058ac"/>
    <path id="Path_900" data-name="Path 900" d="M1.012,0V-9.953H4.423a4.165,4.165,0,0,1,2.57.677A2.384,2.384,0,0,1,7.875-7.26a2.149,2.149,0,0,1-.369,1.23,2.376,2.376,0,0,1-1.08.848,2.2,2.2,0,0,1,1.248.824,2.4,2.4,0,0,1,.441,1.453,2.65,2.65,0,0,1-.9,2.153A3.909,3.909,0,0,1,4.642,0ZM2.741-4.491v3.11H4.662a1.859,1.859,0,0,0,1.271-.4,1.416,1.416,0,0,0,.458-1.121A1.42,1.42,0,0,0,4.806-4.491Zm0-1.271h1.7A1.961,1.961,0,0,0,5.7-6.128a1.253,1.253,0,0,0,.455-1.036,1.27,1.27,0,0,0-.42-1.066,2.123,2.123,0,0,0-1.309-.328H2.741ZM14.164-.725a2.576,2.576,0,0,1-2.078.861,2.3,2.3,0,0,1-1.822-.7A3,3,0,0,1,9.646-2.6V-7.4h1.661v4.771q0,1.408,1.169,1.408a1.642,1.642,0,0,0,1.634-.868V-7.4h1.661V0H14.205ZM19.229,0H17.568V-7.4h1.661ZM17.466-9.317a.882.882,0,0,1,.243-.636.917.917,0,0,1,.694-.253.928.928,0,0,1,.7.253.875.875,0,0,1,.246.636.855.855,0,0,1-.246.625.935.935,0,0,1-.7.25.924.924,0,0,1-.694-.25A.861.861,0,0,1,17.466-9.317ZM22.8,0H21.144V-10.5H22.8Zm1.5-3.753A4.4,4.4,0,0,1,25.095-6.5a2.541,2.541,0,0,1,2.126-1.036,2.414,2.414,0,0,1,1.9.82V-10.5h1.661V0h-1.5L29.2-.766a2.449,2.449,0,0,1-1.989.9A2.527,2.527,0,0,1,25.1-.909,4.558,4.558,0,0,1,24.3-3.753Zm1.661.144a3.079,3.079,0,0,0,.434,1.76,1.408,1.408,0,0,0,1.234.632,1.569,1.569,0,0,0,1.49-.909V-5.284a1.545,1.545,0,0,0-1.477-.889,1.419,1.419,0,0,0-1.244.639A3.429,3.429,0,0,0,25.963-3.609ZM37.639-6.59A2.6,2.6,0,0,1,39.7-7.533q2.365,0,2.4,2.7V0H40.435V-4.771A1.461,1.461,0,0,0,40.1-5.855a1.355,1.355,0,0,0-.974-.318,1.6,1.6,0,0,0-1.49.889V0H35.978V-10.5h1.661ZM48.193,0A2.564,2.564,0,0,1,48-.69a2.586,2.586,0,0,1-1.941.827A2.61,2.61,0,0,1,44.242-.5a2.034,2.034,0,0,1-.7-1.572,2.1,2.1,0,0,1,.878-1.815,4.257,4.257,0,0,1,2.512-.632h1.019V-5a1.3,1.3,0,0,0-.321-.919,1.274,1.274,0,0,0-.978-.345,1.463,1.463,0,0,0-.93.284.878.878,0,0,0-.362.721H43.7A1.844,1.844,0,0,1,44.1-6.4a2.687,2.687,0,0,1,1.1-.831,3.854,3.854,0,0,1,1.548-.3,3.1,3.1,0,0,1,2.071.653,2.328,2.328,0,0,1,.793,1.835v3.336a3.781,3.781,0,0,0,.28,1.593V0ZM46.368-1.2a1.89,1.89,0,0,0,.926-.239,1.6,1.6,0,0,0,.653-.643V-3.473h-.9a2.449,2.449,0,0,0-1.388.321,1.041,1.041,0,0,0-.465.909.971.971,0,0,0,.318.762A1.231,1.231,0,0,0,46.368-1.2Zm9.126-.813a.753.753,0,0,0-.366-.677,3.89,3.89,0,0,0-1.213-.41A6.237,6.237,0,0,1,52.5-3.548a1.889,1.889,0,0,1-1.244-1.743,1.969,1.969,0,0,1,.807-1.6,3.189,3.189,0,0,1,2.051-.643,3.318,3.318,0,0,1,2.143.656,2.082,2.082,0,0,1,.817,1.7H55.412a1.024,1.024,0,0,0-.355-.8,1.362,1.362,0,0,0-.943-.318,1.472,1.472,0,0,0-.892.253.8.8,0,0,0-.345.677.673.673,0,0,0,.321.595,4.418,4.418,0,0,0,1.3.427,6.148,6.148,0,0,1,1.535.513,2.173,2.173,0,0,1,.827.714,1.822,1.822,0,0,1,.27,1.012A1.927,1.927,0,0,1,56.3-.482a3.527,3.527,0,0,1-2.167.619,3.825,3.825,0,0,1-1.62-.328,2.666,2.666,0,0,1-1.107-.9,2.136,2.136,0,0,1-.4-1.237h1.613a1.17,1.17,0,0,0,.444.906,1.727,1.727,0,0,0,1.087.318,1.68,1.68,0,0,0,1-.25A.772.772,0,0,0,55.494-2.01ZM65.933-5.879a4.111,4.111,0,0,0-.677-.055,1.524,1.524,0,0,0-1.538.875V0H62.057V-7.4h1.586l.041.827a1.872,1.872,0,0,1,1.668-.964,1.555,1.555,0,0,1,.588.1ZM70.239.137a3.437,3.437,0,0,1-2.56-.995A3.608,3.608,0,0,1,66.7-3.507v-.205a4.438,4.438,0,0,1,.427-1.979,3.252,3.252,0,0,1,1.2-1.357,3.172,3.172,0,0,1,1.723-.485,2.9,2.9,0,0,1,2.334.964,4.076,4.076,0,0,1,.824,2.728v.67H68.373a2.221,2.221,0,0,0,.612,1.449,1.837,1.837,0,0,0,1.35.533,2.249,2.249,0,0,0,1.859-.923l.9.854A2.99,2.99,0,0,1,71.9-.229,3.713,3.713,0,0,1,70.239.137Zm-.2-6.337a1.4,1.4,0,0,0-1.1.479A2.48,2.48,0,0,0,68.4-4.389h3.165v-.123a2.019,2.019,0,0,0-.444-1.261A1.388,1.388,0,0,0,70.041-6.2ZM78.914,0a2.564,2.564,0,0,1-.191-.69,2.586,2.586,0,0,1-1.941.827A2.61,2.61,0,0,1,74.963-.5a2.034,2.034,0,0,1-.7-1.572,2.1,2.1,0,0,1,.878-1.815,4.257,4.257,0,0,1,2.512-.632h1.019V-5a1.3,1.3,0,0,0-.321-.919,1.274,1.274,0,0,0-.978-.345,1.463,1.463,0,0,0-.93.284.878.878,0,0,0-.362.721H74.416a1.844,1.844,0,0,1,.4-1.138,2.687,2.687,0,0,1,1.1-.831,3.854,3.854,0,0,1,1.548-.3,3.1,3.1,0,0,1,2.071.653,2.328,2.328,0,0,1,.793,1.835v3.336a3.781,3.781,0,0,0,.28,1.593V0ZM77.089-1.2a1.89,1.89,0,0,0,.926-.239,1.6,1.6,0,0,0,.653-.643V-3.473h-.9a2.449,2.449,0,0,0-1.388.321,1.041,1.041,0,0,0-.465.909.971.971,0,0,0,.318.762A1.231,1.231,0,0,0,77.089-1.2Zm8.019.007a1.5,1.5,0,0,0,1.032-.362,1.238,1.238,0,0,0,.438-.9h1.565a2.44,2.44,0,0,1-.431,1.289,2.825,2.825,0,0,1-1.094.947,3.259,3.259,0,0,1-1.49.349,3.154,3.154,0,0,1-2.461-1,3.986,3.986,0,0,1-.909-2.775v-.171a3.919,3.919,0,0,1,.9-2.7,3.125,3.125,0,0,1,2.461-1.015,3.039,3.039,0,0,1,2.15.769,2.755,2.755,0,0,1,.872,2.02H86.577a1.521,1.521,0,0,0-.434-1.046,1.4,1.4,0,0,0-1.036-.41,1.462,1.462,0,0,0-1.244.584,2.982,2.982,0,0,0-.444,1.774v.267a3.032,3.032,0,0,0,.434,1.794A1.461,1.461,0,0,0,85.107-1.189Zm5.927-5.4a2.6,2.6,0,0,1,2.058-.943q2.365,0,2.4,2.7V0H93.83V-4.771A1.461,1.461,0,0,0,93.5-5.855a1.355,1.355,0,0,0-.974-.318,1.6,1.6,0,0,0-1.49.889V0H89.373V-10.5h1.661ZM100.427.137a3.437,3.437,0,0,1-2.56-.995,3.608,3.608,0,0,1-.981-2.649v-.205a4.438,4.438,0,0,1,.427-1.979,3.252,3.252,0,0,1,1.2-1.357,3.172,3.172,0,0,1,1.723-.485,2.9,2.9,0,0,1,2.334.964,4.076,4.076,0,0,1,.824,2.728v.67H98.561a2.221,2.221,0,0,0,.612,1.449,1.837,1.837,0,0,0,1.35.533,2.249,2.249,0,0,0,1.859-.923l.9.854a2.99,2.99,0,0,1-1.186,1.029A3.713,3.713,0,0,1,100.427.137Zm-.2-6.337a1.4,1.4,0,0,0-1.1.479,2.48,2.48,0,0,0-.537,1.333h3.165v-.123a2.019,2.019,0,0,0-.444-1.261A1.388,1.388,0,0,0,100.229-6.2Zm4.143,2.447a4.4,4.4,0,0,1,.793-2.745,2.541,2.541,0,0,1,2.126-1.036,2.414,2.414,0,0,1,1.9.82V-10.5h1.661V0h-1.5l-.082-.766a2.449,2.449,0,0,1-1.989.9,2.527,2.527,0,0,1-2.1-1.046A4.558,4.558,0,0,1,104.371-3.753Zm1.661.144a3.079,3.079,0,0,0,.434,1.76,1.408,1.408,0,0,0,1.234.632,1.569,1.569,0,0,0,1.49-.909V-5.284a1.545,1.545,0,0,0-1.477-.889,1.419,1.419,0,0,0-1.244.639A3.429,3.429,0,0,0,106.032-3.609ZM3.438,16.621l1.5-5.018H6.713L3.773,20.121a2.389,2.389,0,0,1-2.3,1.866,2.961,2.961,0,0,1-.8-.124V20.572l.314.021a1.617,1.617,0,0,0,.947-.229,1.517,1.517,0,0,0,.5-.768l.239-.635L.082,11.6H1.873Zm3.917-1.388a4.361,4.361,0,0,1,.431-1.958A3.145,3.145,0,0,1,9,11.935a3.409,3.409,0,0,1,1.791-.468,3.231,3.231,0,0,1,2.43.964,3.791,3.791,0,0,1,1.008,2.557l.007.39a4.4,4.4,0,0,1-.42,1.955,3.108,3.108,0,0,1-1.2,1.333,3.434,3.434,0,0,1-1.808.472A3.209,3.209,0,0,1,8.3,18.094a3.993,3.993,0,0,1-.94-2.779Zm1.661.144a2.98,2.98,0,0,0,.472,1.788,1.533,1.533,0,0,0,1.313.646,1.517,1.517,0,0,0,1.309-.656,3.292,3.292,0,0,0,.468-1.921,2.942,2.942,0,0,0-.482-1.777,1.624,1.624,0,0,0-2.6-.01A3.23,3.23,0,0,0,9.017,15.377Zm11.1,2.9a2.576,2.576,0,0,1-2.078.861,2.3,2.3,0,0,1-1.822-.7A3,3,0,0,1,15.6,16.4V11.6h1.661v4.771q0,1.408,1.169,1.408a1.642,1.642,0,0,0,1.634-.868V11.6h1.661V19H20.159Zm7.171-5.154a4.111,4.111,0,0,0-.677-.055,1.524,1.524,0,0,0-1.538.875V19H23.413V11.6H25l.041.827a1.872,1.872,0,0,1,1.668-.964,1.555,1.555,0,0,1,.588.1Zm6.617-3.315v1.8h1.306v1.23H33.906v4.129a.909.909,0,0,0,.167.612.777.777,0,0,0,.6.188,2.559,2.559,0,0,0,.581-.068v1.285a4.091,4.091,0,0,1-1.094.157q-1.914,0-1.914-2.112v-4.19H31.028V11.6h1.217v-1.8Zm5.831,9.331a3.437,3.437,0,0,1-2.56-.995,3.608,3.608,0,0,1-.981-2.649v-.205a4.438,4.438,0,0,1,.427-1.979,3.252,3.252,0,0,1,1.2-1.357,3.172,3.172,0,0,1,1.723-.485,2.9,2.9,0,0,1,2.334.964,4.076,4.076,0,0,1,.824,2.728v.67H37.871a2.221,2.221,0,0,0,.612,1.449,1.837,1.837,0,0,0,1.35.533,2.249,2.249,0,0,0,1.859-.923l.9.854A2.99,2.99,0,0,1,41.4,18.771,3.713,3.713,0,0,1,39.737,19.137Zm-.2-6.337a1.4,1.4,0,0,0-1.1.479,2.48,2.48,0,0,0-.537,1.333h3.165v-.123a2.019,2.019,0,0,0-.444-1.261A1.388,1.388,0,0,0,39.539,12.8ZM48.412,19a2.564,2.564,0,0,1-.191-.69,2.794,2.794,0,0,1-3.76.191,2.034,2.034,0,0,1-.7-1.572,2.1,2.1,0,0,1,.878-1.815,4.257,4.257,0,0,1,2.512-.632h1.019V14a1.3,1.3,0,0,0-.321-.919,1.274,1.274,0,0,0-.978-.345,1.463,1.463,0,0,0-.93.284.878.878,0,0,0-.362.721H43.914a1.844,1.844,0,0,1,.4-1.138,2.687,2.687,0,0,1,1.1-.831,3.854,3.854,0,0,1,1.548-.3,3.1,3.1,0,0,1,2.071.653,2.328,2.328,0,0,1,.793,1.835v3.336a3.781,3.781,0,0,0,.28,1.593V19Zm-1.825-1.2a1.89,1.89,0,0,0,.926-.239,1.6,1.6,0,0,0,.653-.643V15.527h-.9a2.449,2.449,0,0,0-1.388.321,1.041,1.041,0,0,0-.465.909.971.971,0,0,0,.318.762A1.231,1.231,0,0,0,46.587,17.8Zm6.542-6.2.048.772a2.662,2.662,0,0,1,2.133-.909A2.045,2.045,0,0,1,57.34,12.6a2.623,2.623,0,0,1,2.27-1.135,2.306,2.306,0,0,1,1.822.677,2.98,2.98,0,0,1,.612,2V19H60.382V14.188a1.471,1.471,0,0,0-.308-1.032,1.347,1.347,0,0,0-1.019-.328,1.383,1.383,0,0,0-.926.3,1.6,1.6,0,0,0-.5.8L57.634,19H55.973V14.133a1.185,1.185,0,0,0-1.333-1.306,1.462,1.462,0,0,0-1.415.813V19H51.563V11.6Z" transform="translate(396 856)" fill="#149fbf"/>
    <g id="Group_7" data-name="Group 7" transform="translate(134.482 898)">
      <g id="Group_4" data-name="Group 4">
        <path id="Path_3" data-name="Path 3" d="M76.951,0A3.472,3.472,0,0,1,79.92,1.671L104.142,41.6a3.472,3.472,0,0,1,0,3.6L79.92,85.127A3.472,3.472,0,0,1,76.951,86.8H28.2a3.472,3.472,0,0,1-2.968-1.671L1.012,45.2a3.472,3.472,0,0,1,0-3.6L25.235,1.671A3.472,3.472,0,0,1,28.2,0Z" transform="translate(-0.509)" fill="#7de019"/>
        <path id="Path_2" data-name="Path 2" d="M436.667,882.9l8.487,8.114h38.522l26.122-42.49L487.2,824.667Z" transform="translate(-405.237 -804.221)" fill="#3fc904"/>
        <path id="Polygon_3" data-name="Polygon 3" d="M61.978,0A4,4,0,0,1,65.4,1.925L84.382,33.217a4,4,0,0,1,0,4.149L65.4,68.658a4,4,0,0,1-3.42,1.925H23.662a4,4,0,0,1-3.42-1.925L1.259,37.366a4,4,0,0,1,0-4.149L20.242,1.925A4,4,0,0,1,23.662,0Z" transform="translate(9.827 8.101)" fill="#fcfefe"/>
      </g>
      <text id="_01" data-name="01" transform="translate(38.518 54)" fill="#425066" font-size="29" font-family="Poppins-SemiBold, Poppins" font-weight="600"><tspan x="0" y="0">01</tspan></text>
    </g>
    <g id="Group_8" data-name="Group 8" transform="translate(250.78 1017.202)">
      <g id="Group_5" data-name="Group 5">
        <path id="Polygon_2" data-name="Polygon 2" d="M77.056,0a3,3,0,0,1,2.569,1.45l24.44,40.5a3,3,0,0,1,0,3.1l-24.44,40.5A3,3,0,0,1,77.056,87H27.944a3,3,0,0,1-2.569-1.45L.935,45.05a3,3,0,0,1,0-3.1l24.44-40.5A3,3,0,0,1,27.944,0Z" transform="translate(0.22 -0.202)" fill="#06c899"/>
        <path id="Path_2-2" data-name="Path 2" d="M436.667,882.9l8.487,8.114h38.522l26.122-42.49L487.2,824.667Z" transform="translate(-404.648 -804.221)" fill="#039e5c"/>
        <path id="Polygon_3-2" data-name="Polygon 3" d="M61.978,0A4,4,0,0,1,65.4,1.925L84.382,33.217a4,4,0,0,1,0,4.149L65.4,68.658a4,4,0,0,1-3.42,1.925H23.662a4,4,0,0,1-3.42-1.925L1.259,37.366a4,4,0,0,1,0-4.149L20.242,1.925A4,4,0,0,1,23.662,0Z" transform="translate(10.416 8.101)" fill="#fcfefe"/>
      </g>
      <text id="_02" data-name="02" transform="translate(36.22 55.798)" fill="#425066" font-size="29" font-family="Poppins-SemiBold, Poppins" font-weight="600"><tspan x="0" y="0">02</tspan></text>
    </g>
    <g id="Group_9" data-name="Group 9" transform="translate(367.668 899.157)">
      <g id="Group_3" data-name="Group 3">
        <path id="Polygon_2-2" data-name="Polygon 2" d="M77.056,0a3,3,0,0,1,2.569,1.45l24.44,40.5a3,3,0,0,1,0,3.1l-24.44,40.5A3,3,0,0,1,77.056,87H27.944a3,3,0,0,1-2.569-1.45L.935,45.05a3,3,0,0,1,0-3.1l24.44-40.5A3,3,0,0,1,27.944,0Z" transform="translate(0.332 -0.157)" fill="#149fbf"/>
        <path id="Path_2-3" data-name="Path 2" d="M436.667,882.9l8.487,8.114h38.522l26.122-42.49L487.2,824.667Z" transform="translate(-404.648 -804.221)" fill="#016390"/>
        <path id="Polygon_3-3" data-name="Polygon 3" d="M61.978,0A4,4,0,0,1,65.4,1.925L84.382,33.217a4,4,0,0,1,0,4.149L65.4,68.658a4,4,0,0,1-3.42,1.925H23.662a4,4,0,0,1-3.42-1.925L1.259,37.366a4,4,0,0,1,0-4.149L20.242,1.925A4,4,0,0,1,23.662,0Z" transform="translate(10.416 8.101)" fill="#fcfefe"/>
      </g>
      <text id="_03" data-name="03" transform="translate(34.332 52.843)" fill="#425066" font-size="29" font-family="Poppins-SemiBold, Poppins" font-weight="600"><tspan x="0" y="0">03</tspan></text>
    </g>
    <g id="Group_10" data-name="Group 10" transform="translate(485.713 1017.202)">
      <g id="Group_6" data-name="Group 6">
        <path id="Polygon_2-3" data-name="Polygon 2" d="M77.056,0a3,3,0,0,1,2.569,1.45l24.44,40.5a3,3,0,0,1,0,3.1l-24.44,40.5A3,3,0,0,1,77.056,87H27.944a3,3,0,0,1-2.569-1.45L.935,45.05a3,3,0,0,1,0-3.1l24.44-40.5A3,3,0,0,1,27.944,0Z" transform="translate(0.287 -0.202)" fill="#5058ac"/>
        <path id="Path_2-4" data-name="Path 2" d="M436.667,882.9l8.487,8.114h38.522l26.122-42.49L487.2,824.667Z" transform="translate(-404.648 -804.221)" fill="#171f73"/>
        <path id="Polygon_3-4" data-name="Polygon 3" d="M61.978,0A4,4,0,0,1,65.4,1.925L84.382,33.217a4,4,0,0,1,0,4.149L65.4,68.658a4,4,0,0,1-3.42,1.925H23.662a4,4,0,0,1-3.42-1.925L1.259,37.366a4,4,0,0,1,0-4.149L20.242,1.925A4,4,0,0,1,23.662,0Z" transform="translate(10.416 8.101)" fill="#fcfefe"/>
      </g>
      <text id="_04" data-name="04" transform="translate(34.287 52.798)" fill="#425066" font-size="29" font-family="Poppins-SemiBold, Poppins" font-weight="600"><tspan x="0" y="0">04</tspan></text>
    </g>
  </g>
</svg>
