<svg xmlns="http://www.w3.org/2000/svg" width="42" height="42" viewBox="0 0 42 42">
  <g id="in" transform="translate(-363.69 -2786.69)">
    <g id="Group_234" data-name="Group 234">
      <g id="linkedin" transform="translate(363.69 2786.691)">
        <path id="Path_892" data-name="Path 892" d="M21,0A21,21,0,1,1,0,21,21,21,0,0,1,21,0Z" transform="translate(0 -0.001)" fill="#fafbff"/>
        <g id="Group_232" data-name="Group 232" transform="translate(13.719 12.385)">
          <path id="Path_889" data-name="Path 889" d="M44.159,33.981V40.3H40.5V34.4c0-1.48-.529-2.491-1.856-2.491a2,2,0,0,0-1.879,1.34,2.508,2.508,0,0,0-.121.893V40.3H32.975s.049-9.986,0-11.02h3.665v1.562c-.007.012-.018.024-.024.036h.024v-.036a3.638,3.638,0,0,1,3.3-1.82c2.411,0,4.218,1.575,4.218,4.959ZM29.141,23.969a1.909,1.909,0,1,0-.048,3.808h.024a1.91,1.91,0,1,0,.024-3.808ZM27.286,40.3h3.663V29.281H27.286Z" transform="translate(-27.068 -23.969)" fill="#29a3d2"/>
        </g>
      </g>
    </g>
  </g>
</svg>
