<svg xmlns="http://www.w3.org/2000/svg" width="72" height="72" viewBox="0 0 72 72">
  <g id="indefinite-url" transform="translate(-653 -567)">
    <g id="Polygon_3" data-name="Polygon 3" transform="translate(653 567)" fill="#fff">
      <path d="M 41.70171356201172 70.5 L 30.29829216003418 70.5 C 28.59420394897461 70.5 26.89718246459961 70.07901000976563 25.39069175720215 69.28253173828125 L 15.27039241790771 63.9319953918457 C 13.77232646942139 63.13997650146484 12.47419261932373 61.98246383666992 11.51632595062256 60.58457565307617 L 4.992270469665527 51.06340789794922 C 4.040492534637451 49.67439651489258 3.430892705917358 48.05657577514648 3.229392766952515 46.38484191894531 L 1.840670466423035 34.86366271972656 C 1.639492750167847 33.19462966918945 1.846237182617188 31.48081970214844 2.438559293746948 29.90751838684082 L 6.519381523132324 19.06827545166016 C 7.114359378814697 17.4878978729248 8.094803810119629 16.05824089050293 9.35472583770752 14.93384170532227 L 17.9299373626709 7.281074523925781 C 19.1983814239502 6.149074554443359 20.74099349975586 5.334174633026123 22.39103698730469 4.924497127532959 L 33.46979141235352 2.173774719238281 C 34.29670333862305 1.968463659286499 35.14799118041992 1.864352583885193 36.00001525878906 1.864352583885193 C 36.85202789306641 1.864352583885193 37.70330429077148 1.968452572822571 38.53020477294922 2.173763751983643 L 49.60897064208984 4.924497127532959 C 51.25901412963867 5.334174633026123 52.8016242980957 6.149074554443359 54.07006072998047 7.281063556671143 L 62.64529418945313 14.93384170532227 C 63.90520477294922 16.05822944641113 64.88565063476563 17.48788642883301 65.48062896728516 19.06826400756836 L 69.56144714355469 29.90754127502441 C 70.15377044677734 31.4808406829834 70.36051177978516 33.19462966918945 70.15933990478516 34.86363983154297 L 68.77062225341797 46.38483047485352 C 68.56912231445313 48.05656433105469 67.95952606201172 49.67439651489258 67.00773620605469 51.06343078613281 L 60.48368072509766 60.58458709716797 C 59.52583694458008 61.98246383666992 58.22770309448242 63.13997650146484 56.72963714599609 63.93198776245117 L 46.60931396484375 69.28253173828125 C 45.10282516479492 70.07901000976563 43.40580368041992 70.5 41.70171356201172 70.5 Z" stroke="none"/>
      <path d="M 35.99999237060547 3.364349365234375 C 35.26969909667969 3.364349365234375 34.54001617431641 3.453567504882813 33.83124923706055 3.629562377929688 L 22.75247573852539 6.380302429199219 C 21.33819198608398 6.731437683105469 20.01594543457031 7.429908752441406 18.9286994934082 8.40020751953125 L 10.35348510742188 16.05299377441406 C 9.273544311523438 17.01674652099609 8.433155059814453 18.24217224121094 7.923171997070313 19.59678268432617 L 3.842353820800781 30.43604278564453 C 3.334663391113281 31.78457260131836 3.157447814941406 33.25354766845703 3.32989501953125 34.68414688110352 L 4.718605041503906 46.205322265625 C 4.891334533691406 47.63824081420898 5.413841247558594 49.02494812011719 6.229660034179688 50.21554565429688 L 12.75369644165039 59.73670196533203 C 13.57471084594727 60.93487548828125 14.68740463256836 61.92702865600586 15.97147369384766 62.60591125488281 L 26.09178161621094 67.95645141601563 C 27.38306427001953 68.63914489746094 28.83765029907227 68.99999237060547 30.29829788208008 68.99999237060547 L 41.70170974731445 68.99999237060547 C 43.16234588623047 68.99999237060547 44.616943359375 68.63914489746094 45.90822601318359 67.95645141601563 L 56.02853393554688 62.60591125488281 C 57.31260299682617 61.92702865600586 58.42528533935547 60.93487548828125 59.24629974365234 59.73670196533203 L 65.77035522460938 50.21556091308594 C 66.586181640625 49.02495956420898 67.10868835449219 47.63824081420898 67.28140258789063 46.205322265625 L 68.67012023925781 34.68413543701172 C 68.84255981445313 33.25355911254883 68.66534423828125 31.78459548950195 68.15763854980469 30.43605422973633 L 64.07682800292969 19.59678268432617 C 63.56682586669922 18.24216079711914 62.7264518737793 17.0167350769043 61.64652252197266 16.05298233032227 L 53.07131195068359 8.40020751953125 C 51.98407363891602 7.429924011230469 50.66182708740234 6.731437683105469 49.24750900268555 6.380287170410156 L 38.16875839233398 3.629562377929688 C 37.45996856689453 3.453582763671875 36.73028564453125 3.364349365234375 35.99999237060547 3.364349365234375 M 35.99999618530273 0.364349365234375 C 36.97109222412109 0.364349365234375 37.94218444824219 0.4822158813476563 38.89166259765625 0.71795654296875 L 49.97042846679688 3.46868896484375 C 51.86352157592773 3.938720703125 53.61351013183594 4.863143920898438 55.06882476806641 6.16192626953125 L 63.64403915405273 13.81470108032227 C 65.08983612060547 15.1049690246582 66.20166015625 16.7262077331543 66.88443756103516 18.53976058959961 L 70.96524810791016 29.3790283203125 C 71.64505004882813 31.18467712402344 71.87944793701172 33.12762832641602 71.6485595703125 35.04314804077148 L 70.25984954833984 46.56433486938477 C 70.02859497070313 48.48287582397461 69.33742523193359 50.31719207763672 68.24512481689453 51.91130065917969 L 61.72106170654297 61.43245315551758 C 60.62199401855469 63.03641891479492 59.14963912963867 64.34927368164063 57.43070983886719 65.25806427001953 L 47.31040191650391 70.60860443115234 C 45.58208465576172 71.52234649658203 43.65670013427734 71.99999237060547 41.70170974731445 71.99999237060547 L 30.29829788208008 71.99999237060547 C 28.34329605102539 71.99999237060547 26.41791152954102 71.52234649658203 24.68960571289063 70.60860443115234 L 14.56929779052734 65.25806427001953 C 12.85036849975586 64.34927368164063 11.37800216674805 63.03640747070313 10.27894592285156 61.43245315551758 L 3.754898071289063 51.91128921508789 C 2.662590026855469 50.31719207763672 1.971427917480469 48.48288726806641 1.740165710449219 46.56434631347656 L 0.3514480590820313 35.04315948486328 C 0.1205596923828125 33.12762832641602 0.3549423217773438 31.18467712402344 1.034744262695313 29.3790168762207 L 5.115554809570313 18.53976058959961 C 5.798332214355469 16.7262077331543 6.91015625 15.10498428344727 8.355968475341797 13.81470108032227 L 16.93117904663086 6.16192626953125 C 18.38649749755859 4.8631591796875 20.136474609375 3.938720703125 22.02957916259766 3.468696594238281 L 33.10833358764648 0.71795654296875 C 34.05780792236328 0.4822158813476563 35.02890396118164 0.364349365234375 35.99999618530273 0.364349365234375 Z" stroke="none" fill="#178da3"/>
    </g>
    <path id="Path_43" data-name="Path 43" d="M41.224,24.337a4.735,4.735,0,0,0,0-6.7,4.848,4.848,0,0,0-6.7,0l-6.635,6.634.768.768L35.3,18.408a3.649,3.649,0,0,1,5.161,5.161L33.821,30.2l.768.768Zm-4.8-1.13-.768-.768L21.894,36.2l.768.768ZM23.79,41.769l6.635-6.634-.768-.768L23.023,41a3.649,3.649,0,0,1-5.161-5.161L24.5,29.206l-.768-.768-6.635,6.635a4.735,4.735,0,0,0,6.7,6.7Z" transform="translate(659.49 572.901)" fill="#98ca3c" stroke="#98ca3c" stroke-width="0.5"/>
    <g id="Group_21" data-name="Group 21" transform="translate(702.091 612.591)">
      <g id="Ellipse_1" data-name="Ellipse 1" transform="translate(-0.091 14.409)" fill="#fff" stroke="#178da3" stroke-width="1">
        <circle cx="0.5" cy="0.5" r="0.5" stroke="none"/>
        <circle cx="0.5" cy="0.5" fill="none"/>
      </g>
      <path id="Path_5" data-name="Path 5" d="M0,11.07A44.655,44.655,0,0,0,6.885,5.94,29.744,29.744,0,0,0,11.61,0" transform="matrix(0.985, -0.174, 0.174, 0.985, 1.306, 2.016)" fill="none" stroke="#178da3" stroke-linecap="round" stroke-width="1"/>
    </g>
  </g>
</svg>
