<?xml version="1.0" encoding="utf-8"?>
<!-- Generator: Adobe Illustrator 16.0.0, SVG Export Plug-In . SVG Version: 6.00 Build 0)  -->
<!DOCTYPE svg PUBLIC "-//W3C//DTD SVG 1.1//EN" "http://www.w3.org/Graphics/SVG/1.1/DTD/svg11.dtd">
<svg version="1.1" id="Layer_1" xmlns="http://www.w3.org/2000/svg" xmlns:xlink="http://www.w3.org/1999/xlink" x="0px" y="0px"
	 width="1190.55px" height="966px" viewBox="0 0 1190.55 966" enable-background="new 0 0 1190.55 966" xml:space="preserve">
<g>
	<g>
		<g>
			<polygon fill-rule="evenodd" clip-rule="evenodd" fill="#98CA3C" points="562.523,314.172 501.062,265.445 742.129,246.586 
				647.388,377.082 585.57,329.291 676.998,281.263 			"/>
			<polygon fill-rule="evenodd" clip-rule="evenodd" fill="#98CA3C" points="578.598,341.003 619.789,372.985 560.912,402.904 			
				"/>
		</g>
	</g>
	<g>
		<g>
			<rect x="378" y="284.667" fill="#1394A5" width="40" height="157"/>
			<path fill="#158BA1" d="M562.231,324.026l-65.029,150.444H454.71l22.32-46.785l-44.21-103.55h43.457l19.101,51.293l2.254,7.834
				l22.214-59.018L562.231,324.026z"/>
			<path fill="#5B5C5C" d="M411.478,552.813c0,8.01-1.466,15.524-4.396,22.536c-2.935,7.012-6.993,13.127-12.181,18.348
				c-5.188,5.221-11.34,9.329-18.458,12.336c-7.117,3.004-14.896,4.508-23.338,4.508c-4.867,0-9.516-0.575-13.95-1.72
				c-4.438-1.141-8.548-2.682-12.342-4.611c-3.789-1.934-7.259-4.223-10.407-6.864c-3.149-2.651-5.865-5.478-8.156-8.476
				l-1.179,18.558h-14.38V456.342h16.525v59.878c2.361-3.073,5.078-5.905,8.154-8.475c3.076-2.576,6.494-4.798,10.248-6.655
				c3.757-1.863,7.779-3.312,12.076-4.344c4.292-1.035,8.868-1.558,13.732-1.558c8.442,0,16.203,1.506,23.288,4.505
				c7.081,3.007,13.197,7.121,18.348,12.342c5.151,5.221,9.174,11.321,12.071,18.295
				C410.029,537.307,411.478,544.799,411.478,552.813z M394.954,552.813c0-6.152-1.128-11.858-3.382-17.117s-5.33-9.8-9.229-13.629
				c-3.899-3.824-8.46-6.831-13.681-9.013c-5.224-2.185-10.837-3.271-16.848-3.271c-6.006,0-11.623,1.086-16.844,3.271
				c-5.224,2.182-9.804,5.189-13.736,9.013c-3.934,3.829-7.029,8.371-9.283,13.629c-2.254,5.258-3.382,10.965-3.382,17.117
				c0,6.219,1.128,11.963,3.382,17.221c2.253,5.256,5.33,9.82,9.228,13.682c3.9,3.863,8.475,6.865,13.736,9.013
				c5.257,2.147,10.855,3.217,16.793,3.217c6.01,0,11.625-1.084,16.848-3.269c5.221-2.186,9.8-5.189,13.734-9.013
				c3.933-3.829,7.026-8.374,9.28-13.63C393.826,564.776,394.954,559.032,394.954,552.813z"/>
			<path fill="#5B5C5C" d="M491.103,595.845c11.514,0,20.35-3.292,26.502-9.872c6.152-6.584,9.229-16.775,9.229-30.589v-57.192
				h16.634v57.733c0,9.297-1.216,17.363-3.648,24.191c-2.432,6.84-5.919,12.503-10.463,17.011
				c-4.542,4.505-10.051,7.851-16.523,10.033c-6.477,2.183-13.722,3.271-21.729,3.271c-8.014,0-15.257-1.089-21.729-3.271
				c-6.477-2.183-11.985-5.528-16.529-10.033c-4.542-4.508-8.029-10.171-10.461-17.011c-2.433-6.828-3.648-14.895-3.648-24.191
				v-57.733h16.634v57.192c0,13.667,3.021,23.824,9.067,30.479C470.479,592.519,479.369,595.845,491.103,595.845z"/>
			<path fill="#5B5C5C" d="M575.335,465.246c0-2.861,1.057-5.327,3.168-7.403c2.107-2.076,4.882-3.11,8.313-3.11
				c1.72,0,3.292,0.284,4.723,0.859c1.43,0.575,2.665,1.34,3.703,2.309c1.037,0.96,1.841,2.075,2.413,3.326
				c0.57,1.253,0.859,2.593,0.859,4.019c0,3.007-1.093,5.514-3.272,7.515c-2.186,2.003-4.991,3.007-8.426,3.007
				c-3.432,0-6.206-1.021-8.313-3.059C576.392,470.67,575.335,468.181,575.335,465.246z M578.448,498.191h16.633v109.236h-16.633
				V498.191z"/>
			<path fill="#5B5C5C" d="M637.038,456.342h16.527v151.086h-16.527V456.342z"/>
			<path fill="#5B5C5C" d="M684.789,552.813c0-8.015,1.432-15.507,4.293-22.484c2.86-6.975,6.864-13.075,12.017-18.295
				c5.151-5.221,11.283-9.335,18.401-12.342c7.121-2.999,14.903-4.505,23.344-4.505c4.79,0,9.353,0.523,13.679,1.558
				c4.327,1.032,8.354,2.504,12.075,4.396c3.714,1.9,7.135,4.137,10.246,6.707c3.113,2.576,5.847,5.365,8.21,8.372v-59.878h16.419
				v151.086h-14.381l-1.29-19.207c-2.289,3.153-5.009,6.08-8.153,8.803c-3.148,2.717-6.618,5.074-10.407,7.078
				c-3.795,2.007-7.889,3.579-12.287,4.72c-4.401,1.145-9.033,1.72-13.897,1.72c-8.371,0-16.116-1.504-23.231-4.508
				c-7.121-3.007-13.268-7.115-18.456-12.336c-5.189-5.221-9.249-11.336-12.182-18.348
				C686.253,568.338,684.789,560.823,684.789,552.813z M701.314,552.813c0,6.219,1.127,11.963,3.381,17.221
				c2.254,5.256,5.326,9.801,9.228,13.63c3.898,3.823,8.476,6.827,13.736,9.013c5.255,2.185,10.853,3.269,16.795,3.269
				c6.006,0,11.623-1.069,16.841-3.217c5.227-2.147,9.804-5.149,13.736-9.013c3.938-3.861,7.032-8.426,9.286-13.682
				c2.254-5.258,3.381-11.002,3.381-17.221c0-6.152-1.147-11.858-3.438-17.117c-2.289-5.258-5.382-9.8-9.277-13.629
				c-3.901-3.824-8.479-6.831-13.736-9.013c-5.261-2.185-10.855-3.271-16.792-3.271c-6.011,0-11.644,1.086-16.904,3.271
				c-5.255,2.182-9.817,5.189-13.679,9.013c-3.863,3.829-6.922,8.371-9.176,13.629S701.314,546.662,701.314,552.813z"/>
			<path fill="#5B5C5C" d="M847.682,576.2c0.069,2.723,0.874,5.302,2.412,7.734c1.538,2.429,3.611,4.579,6.227,6.434
				c2.611,1.865,5.646,3.344,9.119,4.456c3.468,1.106,7.136,1.661,10.997,1.661c11.088,0,19.373-1.771,24.842-5.315
				c5.474-3.538,8.213-8.242,8.213-14.109c0-3.22-0.845-5.899-2.527-8.047c-1.682-2.147-4.019-3.93-7.025-5.364
				c-3.008-1.43-6.652-2.607-10.942-3.539c-4.295-0.932-9.087-1.791-14.38-2.579c-4.223-0.5-8.679-1.23-13.362-2.199
				c-4.686-0.966-8.976-2.481-12.876-4.557c-3.901-2.075-7.118-4.898-9.657-8.48c-2.541-3.577-3.809-8.294-3.809-14.162
				c0-4.361,0.802-8.535,2.412-12.502c1.609-3.976,4.22-7.478,7.836-10.522c3.611-3.036,8.312-5.451,14.107-7.236
				c5.796-1.791,12.842-2.685,21.145-2.685c6.29,0,11.962,0.808,17.008,2.415c5.037,1.61,9.349,3.83,12.931,6.655
				c3.577,2.826,6.325,6.167,8.257,10.033c1.938,3.858,2.898,8.082,2.898,12.661h-16.52c-0.149-2.65-0.862-5.08-2.15-7.302
				c-1.288-2.214-3.059-4.105-5.313-5.687c-2.251-1.572-4.916-2.789-7.998-3.648c-3.07-0.859-6.472-1.288-10.191-1.288
				c-5.074,0-9.409,0.538-12.982,1.61c-3.574,1.078-6.472,2.51-8.691,4.295c-2.213,1.791-3.832,3.81-4.829,6.066
				c-1.001,2.248-1.501,4.557-1.501,6.917c0,2.794,0.679,5.131,2.041,7.032c1.352,1.895,3.375,3.502,6.055,4.827
				c2.688,1.325,6.031,2.38,10.033,3.168c4.014,0.785,8.693,1.426,14.061,1.929c3.146,0.431,6.402,0.931,9.767,1.5
				c3.363,0.575,6.638,1.36,9.82,2.366c3.18,0.998,6.204,2.233,9.064,3.697c2.86,1.466,5.35,3.291,7.454,5.477
				c2.113,2.176,3.795,4.755,5.049,7.725c1.25,2.97,1.877,6.46,1.877,10.461c0,5.578-1.142,10.5-3.436,14.754
				c-2.288,4.258-5.614,7.854-9.976,10.781c-4.37,2.936-9.677,5.151-15.938,6.655c-6.262,1.501-13.362,2.254-21.297,2.254
				c-6.939,0-13.164-1.021-18.675-3.059c-5.509-2.038-10.16-4.684-13.949-7.943c-3.795-3.252-6.704-6.935-8.745-11.048
				c-2.038-4.114-3.059-8.242-3.059-12.395L847.682,576.2z"/>
		</g>
		<g>
			<g>
				<path fill="#158BA1" d="M292.48,361.457h-19.53V328.73h19.53v-3.757c0-5.152,0.696-10.338,2.094-15.559
					c1.395-5.221,3.756-9.947,7.081-14.167c3.326-4.217,7.761-7.673,13.305-10.355c5.542-2.679,12.465-4.025,20.765-4.025h25.109
					v31.12l-15.235-0.106c-2.505,0-4.615,0.356-6.334,1.069c-1.715,0.719-3.109,1.708-4.183,2.956
					c-1.074,1.25-1.846,2.72-2.309,4.398c-0.466,1.685-0.694,3.49-0.694,5.419v3.007h28.756v32.727h-28.756v79.191H292.48V361.457z"
					/>
			</g>
		</g>
	</g>
</g>
<g>
	<g>
		<path fill="#5D5E5E" d="M291.481,662.727l3.278-0.287c0.155,1.313,0.517,2.391,1.083,3.233c0.567,0.842,1.448,1.523,2.642,2.042
			c1.194,0.52,2.538,0.779,4.03,0.779c1.326,0,2.496-0.197,3.511-0.591c1.015-0.395,1.771-0.935,2.266-1.621
			c0.495-0.687,0.743-1.436,0.743-2.248c0-0.824-0.239-1.543-0.716-2.159c-0.478-0.615-1.266-1.131-2.365-1.549
			c-0.705-0.274-2.263-0.701-4.675-1.281c-2.412-0.579-4.102-1.125-5.069-1.639c-1.253-0.657-2.188-1.472-2.803-2.445
			c-0.615-0.973-0.922-2.063-0.922-3.269c0-1.326,0.376-2.564,1.128-3.717c0.752-1.152,1.851-2.027,3.296-2.624
			s3.051-0.896,4.818-0.896c1.946,0,3.663,0.313,5.15,0.94c1.486,0.627,2.63,1.549,3.43,2.768c0.8,1.218,1.229,2.597,1.29,4.138
			l-3.332,0.25c-0.179-1.66-0.786-2.913-1.818-3.761c-1.033-0.848-2.559-1.272-4.576-1.272c-2.102,0-3.634,0.385-4.595,1.155
			c-0.961,0.771-1.442,1.699-1.442,2.786c0,0.943,0.34,1.719,1.021,2.329c0.668,0.609,2.415,1.233,5.239,1.872
			c2.824,0.639,4.762,1.197,5.813,1.675c1.528,0.705,2.657,1.597,3.385,2.678c0.729,1.081,1.093,2.326,1.093,3.735
			c0,1.397-0.4,2.713-1.2,3.95c-0.8,1.236-1.95,2.197-3.448,2.884c-1.499,0.687-3.186,1.03-5.061,1.03
			c-2.376,0-4.368-0.347-5.974-1.039s-2.866-1.734-3.779-3.125S291.529,664.482,291.481,662.727z"/>
		<path fill="#5D5E5E" d="M323.652,671.163v-26.259h3.224v9.422c1.505-1.743,3.403-2.615,5.696-2.615
			c1.409,0,2.633,0.278,3.672,0.833s1.782,1.323,2.23,2.302c0.448,0.979,0.672,2.4,0.672,4.263v12.055h-3.224v-12.055
			c0-1.612-0.35-2.786-1.048-3.52c-0.699-0.734-1.687-1.102-2.964-1.102c-0.956,0-1.854,0.248-2.696,0.744s-1.442,1.167-1.8,2.015
			c-0.358,0.848-0.538,2.018-0.538,3.511v10.407H323.652z"/>
		<path fill="#5D5E5E" d="M363.401,668.816c-1.194,1.015-2.344,1.732-3.448,2.149c-1.105,0.418-2.29,0.627-3.556,0.627
			c-2.09,0-3.696-0.51-4.818-1.531c-1.123-1.021-1.684-2.326-1.684-3.914c0-0.932,0.212-1.783,0.636-2.553s0.979-1.388,1.666-1.854
			c0.687-0.465,1.46-0.818,2.32-1.057c0.633-0.167,1.588-0.328,2.866-0.484c2.604-0.31,4.52-0.681,5.75-1.11
			c0.012-0.441,0.018-0.722,0.018-0.842c0-1.313-0.305-2.239-0.914-2.776c-0.824-0.728-2.048-1.093-3.672-1.093
			c-1.517,0-2.636,0.266-3.359,0.797s-1.257,1.472-1.603,2.821l-3.152-0.43c0.287-1.349,0.758-2.439,1.415-3.269
			c0.657-0.83,1.606-1.469,2.848-1.917c1.242-0.448,2.681-0.672,4.316-0.672c1.624,0,2.944,0.191,3.959,0.573
			c1.015,0.382,1.761,0.863,2.239,1.442c0.478,0.58,0.812,1.311,1.003,2.194c0.107,0.549,0.161,1.541,0.161,2.974v4.299
			c0,2.997,0.069,4.893,0.206,5.687c0.137,0.794,0.409,1.556,0.815,2.284h-3.367C363.711,670.495,363.497,669.712,363.401,668.816z
			 M363.132,661.616c-1.17,0.478-2.926,0.884-5.266,1.218c-1.326,0.191-2.263,0.406-2.812,0.645
			c-0.55,0.239-0.974,0.588-1.272,1.048c-0.299,0.459-0.448,0.97-0.448,1.531c0,0.86,0.325,1.576,0.976,2.149s1.603,0.86,2.857,0.86
			c1.242,0,2.347-0.271,3.314-0.815s1.677-1.287,2.131-2.23c0.346-0.729,0.52-1.803,0.52-3.224V661.616z"/>
		<path fill="#5D5E5E" d="M378.287,671.163v-19.022h2.902v2.884c0.74-1.349,1.424-2.239,2.051-2.669s1.316-0.645,2.069-0.645
			c1.086,0,2.191,0.347,3.314,1.039l-1.111,2.991c-0.788-0.466-1.576-0.698-2.364-0.698c-0.705,0-1.337,0.212-1.899,0.636
			c-0.561,0.424-0.961,1.012-1.2,1.764c-0.358,1.146-0.538,2.4-0.538,3.762v9.959H378.287z"/>
		<path fill="#5D5E5E" d="M410.494,665.037l3.332,0.412c-0.526,1.946-1.499,3.457-2.92,4.532s-3.236,1.612-5.445,1.612
			c-2.782,0-4.988-0.856-6.618-2.57c-1.63-1.713-2.445-4.117-2.445-7.209c0-3.2,0.824-5.684,2.472-7.451
			c1.648-1.768,3.785-2.651,6.412-2.651c2.544,0,4.622,0.866,6.233,2.597c1.612,1.732,2.418,4.168,2.418,7.309
			c0,0.191-0.006,0.478-0.018,0.859h-14.187c0.12,2.09,0.71,3.69,1.773,4.801c1.063,1.11,2.388,1.666,3.977,1.666
			c1.182,0,2.191-0.31,3.027-0.931C409.342,667.39,410.004,666.398,410.494,665.037z M399.908,659.825h10.622
			c-0.144-1.6-0.549-2.8-1.218-3.6c-1.027-1.242-2.358-1.863-3.994-1.863c-1.481,0-2.726,0.496-3.735,1.486
			C400.574,656.84,400.016,658.165,399.908,659.825z"/>
		<path fill="#5D5E5E" d="M441.789,678.489l-0.358-3.027c0.705,0.191,1.319,0.287,1.845,0.287c0.716,0,1.29-0.12,1.719-0.358
			c0.43-0.239,0.782-0.573,1.057-1.003c0.203-0.322,0.531-1.123,0.985-2.4c0.06-0.179,0.155-0.442,0.287-0.788l-7.218-19.058h3.475
			l3.958,11.016c0.514,1.397,0.973,2.866,1.379,4.407c0.37-1.481,0.812-2.926,1.326-4.335l4.066-11.087h3.224l-7.236,19.345
			c-0.776,2.09-1.379,3.529-1.809,4.317c-0.573,1.063-1.23,1.842-1.971,2.337s-1.624,0.744-2.651,0.744
			C443.246,678.883,442.553,678.751,441.789,678.489z"/>
		<path fill="#5D5E5E" d="M466.008,661.652c0-3.522,0.979-6.132,2.938-7.828c1.636-1.409,3.63-2.114,5.982-2.114
			c2.615,0,4.752,0.857,6.413,2.57c1.66,1.714,2.49,4.082,2.49,7.103c0,2.448-0.367,4.374-1.102,5.776
			c-0.734,1.403-1.803,2.493-3.207,3.269c-1.403,0.776-2.935,1.164-4.594,1.164c-2.663,0-4.815-0.854-6.457-2.561
			C466.829,667.324,466.008,664.864,466.008,661.652z M469.321,661.652c0,2.436,0.531,4.26,1.594,5.472
			c1.063,1.212,2.4,1.818,4.012,1.818c1.6,0,2.932-0.609,3.995-1.827c1.063-1.218,1.594-3.075,1.594-5.57
			c0-2.353-0.534-4.135-1.603-5.347s-2.397-1.818-3.985-1.818c-1.612,0-2.95,0.603-4.012,1.809
			C469.853,657.395,469.321,659.216,469.321,661.652z"/>
		<path fill="#5D5E5E" d="M507.009,671.163v-2.794c-1.48,2.149-3.493,3.224-6.036,3.224c-1.123,0-2.17-0.215-3.144-0.645
			c-0.974-0.43-1.696-0.97-2.167-1.621s-0.803-1.448-0.994-2.391c-0.131-0.633-0.197-1.636-0.197-3.009v-11.786h3.224v10.55
			c0,1.684,0.065,2.818,0.197,3.403c0.203,0.848,0.633,1.514,1.29,1.998c0.657,0.483,1.469,0.725,2.436,0.725
			c0.967,0,1.875-0.248,2.723-0.743c0.848-0.496,1.448-1.17,1.8-2.024c0.352-0.854,0.528-2.093,0.528-3.717v-10.192h3.224v19.022
			H507.009z"/>
		<path fill="#5D5E5E" d="M521.842,671.163v-19.022h2.902v2.884c0.74-1.349,1.424-2.239,2.051-2.669s1.316-0.645,2.069-0.645
			c1.086,0,2.191,0.347,3.314,1.039l-1.111,2.991c-0.788-0.466-1.576-0.698-2.364-0.698c-0.705,0-1.337,0.212-1.899,0.636
			c-0.561,0.424-0.961,1.012-1.2,1.764c-0.358,1.146-0.538,2.4-0.538,3.762v9.959H521.842z"/>
		<path fill="#5D5E5E" d="M570.565,668.816c-1.194,1.015-2.344,1.732-3.448,2.149c-1.105,0.418-2.29,0.627-3.556,0.627
			c-2.09,0-3.696-0.51-4.818-1.531c-1.123-1.021-1.684-2.326-1.684-3.914c0-0.932,0.212-1.783,0.636-2.553s0.979-1.388,1.666-1.854
			c0.687-0.465,1.46-0.818,2.32-1.057c0.633-0.167,1.588-0.328,2.866-0.484c2.604-0.31,4.52-0.681,5.75-1.11
			c0.012-0.441,0.018-0.722,0.018-0.842c0-1.313-0.305-2.239-0.914-2.776c-0.824-0.728-2.048-1.093-3.672-1.093
			c-1.517,0-2.636,0.266-3.359,0.797s-1.257,1.472-1.603,2.821l-3.152-0.43c0.287-1.349,0.758-2.439,1.415-3.269
			c0.657-0.83,1.606-1.469,2.848-1.917c1.242-0.448,2.681-0.672,4.316-0.672c1.624,0,2.944,0.191,3.959,0.573
			c1.015,0.382,1.761,0.863,2.239,1.442c0.478,0.58,0.812,1.311,1.003,2.194c0.107,0.549,0.161,1.541,0.161,2.974v4.299
			c0,2.997,0.069,4.893,0.206,5.687c0.137,0.794,0.409,1.556,0.815,2.284h-3.367C570.875,670.495,570.661,669.712,570.565,668.816z
			 M570.296,661.616c-1.17,0.478-2.926,0.884-5.266,1.218c-1.326,0.191-2.263,0.406-2.812,0.645
			c-0.55,0.239-0.974,0.588-1.272,1.048c-0.299,0.459-0.448,0.97-0.448,1.531c0,0.86,0.325,1.576,0.976,2.149s1.603,0.86,2.857,0.86
			c1.242,0,2.347-0.271,3.314-0.815s1.677-1.287,2.131-2.23c0.346-0.729,0.52-1.803,0.52-3.224V661.616z"/>
		<path fill="#5D5E5E" d="M585.487,678.453v-26.313h2.938v2.472c0.693-0.967,1.475-1.693,2.347-2.176s1.928-0.726,3.17-0.726
			c1.624,0,3.057,0.418,4.299,1.254c1.242,0.836,2.18,2.015,2.813,3.538s0.949,3.191,0.949,5.006c0,1.947-0.35,3.699-1.049,5.257
			c-0.697,1.559-1.713,2.752-3.045,3.583c-1.33,0.83-2.731,1.245-4.2,1.245c-1.075,0-2.039-0.227-2.893-0.681
			c-0.854-0.454-1.556-1.027-2.105-1.719v9.26H585.487z M588.407,661.759c0,2.448,0.495,4.257,1.487,5.427
			c0.991,1.17,2.191,1.755,3.6,1.755c1.433,0,2.661-0.606,3.68-1.818c1.021-1.212,1.533-3.09,1.533-5.633
			c0-2.424-0.5-4.239-1.496-5.445c-0.998-1.206-2.189-1.809-3.574-1.809c-1.373,0-2.588,0.642-3.645,1.925
			C588.935,657.445,588.407,659.312,588.407,661.759z"/>
		<path fill="#5D5E5E" d="M612.822,678.453v-26.313h2.938v2.472c0.692-0.967,1.475-1.693,2.347-2.176
			c0.871-0.483,1.929-0.726,3.171-0.726c1.623,0,3.057,0.418,4.299,1.254c1.241,0.836,2.179,2.015,2.812,3.538
			s0.949,3.191,0.949,5.006c0,1.947-0.349,3.699-1.048,5.257c-0.698,1.559-1.713,2.752-3.045,3.583
			c-1.331,0.83-2.731,1.245-4.2,1.245c-1.074,0-2.039-0.227-2.893-0.681c-0.854-0.454-1.556-1.027-2.104-1.719v9.26H612.822z
			 M615.742,661.759c0,2.448,0.495,4.257,1.486,5.427c0.991,1.17,2.191,1.755,3.601,1.755c1.433,0,2.66-0.606,3.681-1.818
			c1.021-1.212,1.532-3.09,1.532-5.633c0-2.424-0.499-4.239-1.496-5.445s-2.188-1.809-3.573-1.809c-1.374,0-2.589,0.642-3.646,1.925
			C616.271,657.445,615.742,659.312,615.742,661.759z"/>
		<path fill="#5D5E5E" d="M638.868,665.485l3.188-0.501c0.18,1.278,0.678,2.257,1.496,2.938c0.817,0.681,1.961,1.021,3.43,1.021
			c1.481,0,2.58-0.301,3.296-0.904c0.717-0.603,1.075-1.311,1.075-2.123c0-0.729-0.316-1.302-0.949-1.72
			c-0.442-0.287-1.541-0.651-3.296-1.093c-2.364-0.597-4.004-1.113-4.917-1.549c-0.913-0.436-1.606-1.039-2.078-1.809
			s-0.707-1.621-0.707-2.552c0-0.848,0.193-1.633,0.582-2.355c0.388-0.723,0.916-1.323,1.585-1.8c0.502-0.37,1.186-0.684,2.051-0.94
			c0.866-0.257,1.794-0.385,2.785-0.385c1.493,0,2.804,0.215,3.933,0.645c1.128,0.43,1.961,1.012,2.498,1.747
			c0.538,0.734,0.907,1.717,1.11,2.946l-3.152,0.43c-0.143-0.979-0.558-1.744-1.244-2.293c-0.688-0.549-1.657-0.824-2.911-0.824
			c-1.48,0-2.538,0.245-3.171,0.734s-0.949,1.063-0.949,1.719c0,0.418,0.132,0.794,0.395,1.128c0.263,0.347,0.675,0.633,1.235,0.86
			c0.323,0.12,1.272,0.394,2.849,0.824c2.28,0.609,3.872,1.107,4.773,1.496s1.609,0.952,2.122,1.692
			c0.514,0.741,0.771,1.66,0.771,2.759c0,1.075-0.313,2.086-0.94,3.036c-0.627,0.949-1.531,1.684-2.714,2.203
			c-1.182,0.519-2.52,0.779-4.012,0.779c-2.472,0-4.355-0.513-5.651-1.54S639.226,667.503,638.868,665.485z"/>
		<path fill="#5D5E5E" d="M681.269,665.485l3.188-0.501c0.18,1.278,0.678,2.257,1.496,2.938c0.817,0.681,1.961,1.021,3.43,1.021
			c1.481,0,2.58-0.301,3.296-0.904c0.717-0.603,1.075-1.311,1.075-2.123c0-0.729-0.316-1.302-0.949-1.72
			c-0.442-0.287-1.541-0.651-3.296-1.093c-2.364-0.597-4.004-1.113-4.917-1.549c-0.913-0.436-1.606-1.039-2.078-1.809
			s-0.707-1.621-0.707-2.552c0-0.848,0.193-1.633,0.582-2.355c0.388-0.723,0.916-1.323,1.585-1.8c0.502-0.37,1.186-0.684,2.051-0.94
			c0.866-0.257,1.794-0.385,2.785-0.385c1.493,0,2.804,0.215,3.933,0.645c1.128,0.43,1.961,1.012,2.498,1.747
			c0.538,0.734,0.907,1.717,1.11,2.946l-3.152,0.43c-0.143-0.979-0.558-1.744-1.244-2.293c-0.688-0.549-1.657-0.824-2.911-0.824
			c-1.48,0-2.538,0.245-3.171,0.734s-0.949,1.063-0.949,1.719c0,0.418,0.132,0.794,0.395,1.128c0.263,0.347,0.675,0.633,1.235,0.86
			c0.323,0.12,1.272,0.394,2.849,0.824c2.28,0.609,3.872,1.107,4.773,1.496s1.609,0.952,2.122,1.692
			c0.514,0.741,0.771,1.66,0.771,2.759c0,1.075-0.313,2.086-0.94,3.036c-0.627,0.949-1.531,1.684-2.714,2.203
			c-1.182,0.519-2.52,0.779-4.012,0.779c-2.472,0-4.355-0.513-5.651-1.54S681.626,667.503,681.269,665.485z"/>
		<path fill="#5D5E5E" d="M720.855,665.037l3.331,0.412c-0.525,1.946-1.498,3.457-2.919,4.532c-1.422,1.075-3.236,1.612-5.445,1.612
			c-2.783,0-4.989-0.856-6.619-2.57c-1.63-1.713-2.444-4.117-2.444-7.209c0-3.2,0.823-5.684,2.472-7.451
			c1.647-1.768,3.785-2.651,6.412-2.651c2.544,0,4.621,0.866,6.233,2.597c1.612,1.732,2.418,4.168,2.418,7.309
			c0,0.191-0.006,0.478-0.018,0.859H710.09c0.119,2.09,0.711,3.69,1.773,4.801c1.063,1.11,2.389,1.666,3.977,1.666
			c1.183,0,2.191-0.31,3.027-0.931S720.365,666.398,720.855,665.037z M710.27,659.825h10.621c-0.143-1.6-0.549-2.8-1.218-3.6
			c-1.027-1.242-2.358-1.863-3.994-1.863c-1.48,0-2.726,0.496-3.734,1.486C710.935,656.84,710.377,658.165,710.27,659.825z"/>
		<path fill="#5D5E5E" d="M747.581,668.816c-1.194,1.015-2.344,1.732-3.448,2.149c-1.104,0.418-2.29,0.627-3.556,0.627
			c-2.09,0-3.695-0.51-4.818-1.531c-1.122-1.021-1.684-2.326-1.684-3.914c0-0.932,0.212-1.783,0.636-2.553s0.979-1.388,1.666-1.854
			c0.687-0.465,1.46-0.818,2.32-1.057c0.633-0.167,1.588-0.328,2.865-0.484c2.604-0.31,4.52-0.681,5.75-1.11
			c0.012-0.441,0.018-0.722,0.018-0.842c0-1.313-0.304-2.239-0.913-2.776c-0.824-0.728-2.048-1.093-3.672-1.093
			c-1.517,0-2.637,0.266-3.358,0.797c-0.723,0.531-1.257,1.472-1.604,2.821l-3.152-0.43c0.286-1.349,0.758-2.439,1.415-3.269
			c0.656-0.83,1.605-1.469,2.848-1.917s2.681-0.672,4.317-0.672c1.623,0,2.943,0.191,3.958,0.573
			c1.015,0.382,1.762,0.863,2.239,1.442c0.478,0.58,0.812,1.311,1.003,2.194c0.107,0.549,0.161,1.541,0.161,2.974v4.299
			c0,2.997,0.068,4.893,0.206,5.687c0.138,0.794,0.409,1.556,0.815,2.284h-3.368C747.892,670.495,747.677,669.712,747.581,668.816z
			 M747.313,661.616c-1.171,0.478-2.926,0.884-5.267,1.218c-1.325,0.191-2.263,0.406-2.812,0.645
			c-0.55,0.239-0.974,0.588-1.271,1.048c-0.299,0.459-0.448,0.97-0.448,1.531c0,0.86,0.325,1.576,0.977,2.149
			c0.65,0.573,1.603,0.86,2.856,0.86c1.242,0,2.347-0.271,3.313-0.815c0.968-0.543,1.678-1.287,2.132-2.23
			c0.347-0.729,0.52-1.803,0.52-3.224V661.616z"/>
		<path fill="#5D5E5E" d="M762.503,671.163v-19.022h2.884v2.669c0.598-0.932,1.392-1.681,2.383-2.248
			c0.991-0.567,2.119-0.851,3.385-0.851c1.409,0,2.564,0.293,3.466,0.878c0.902,0.585,1.538,1.403,1.908,2.454
			c1.505-2.221,3.463-3.332,5.875-3.332c1.887,0,3.338,0.522,4.353,1.567s1.522,2.654,1.522,4.827v13.058h-3.206V659.18
			c0-1.29-0.104-2.218-0.313-2.785c-0.209-0.567-0.588-1.024-1.138-1.37c-0.549-0.346-1.194-0.52-1.935-0.52
			c-1.337,0-2.447,0.445-3.331,1.334s-1.326,2.313-1.326,4.272v11.052h-3.224v-12.359c0-1.433-0.263-2.508-0.788-3.224
			s-1.386-1.075-2.579-1.075c-0.908,0-1.747,0.239-2.517,0.716c-0.771,0.478-1.329,1.176-1.675,2.096
			c-0.347,0.92-0.52,2.245-0.52,3.977v9.87H762.503z"/>
		<path fill="#5D5E5E" d="M799.923,671.163v-26.259h3.224v26.259H799.923z"/>
		<path fill="#5D5E5E" d="M828.1,665.037l3.331,0.412c-0.525,1.946-1.498,3.457-2.919,4.532c-1.422,1.075-3.236,1.612-5.445,1.612
			c-2.783,0-4.989-0.856-6.619-2.57c-1.63-1.713-2.444-4.117-2.444-7.209c0-3.2,0.823-5.684,2.472-7.451
			c1.647-1.768,3.785-2.651,6.412-2.651c2.544,0,4.621,0.866,6.233,2.597c1.612,1.732,2.418,4.168,2.418,7.309
			c0,0.191-0.006,0.478-0.018,0.859h-14.187c0.119,2.09,0.711,3.69,1.773,4.801c1.063,1.11,2.389,1.666,3.977,1.666
			c1.183,0,2.191-0.31,3.027-0.931S827.609,666.398,828.1,665.037z M817.514,659.825h10.621c-0.143-1.6-0.549-2.8-1.218-3.6
			c-1.027-1.242-2.358-1.863-3.994-1.863c-1.48,0-2.726,0.496-3.734,1.486C818.179,656.84,817.621,658.165,817.514,659.825z"/>
		<path fill="#5D5E5E" d="M841.123,665.485l3.188-0.501c0.18,1.278,0.678,2.257,1.496,2.938c0.817,0.681,1.961,1.021,3.43,1.021
			c1.481,0,2.58-0.301,3.296-0.904c0.717-0.603,1.075-1.311,1.075-2.123c0-0.729-0.316-1.302-0.949-1.72
			c-0.442-0.287-1.541-0.651-3.296-1.093c-2.364-0.597-4.004-1.113-4.917-1.549c-0.913-0.436-1.606-1.039-2.078-1.809
			s-0.707-1.621-0.707-2.552c0-0.848,0.193-1.633,0.582-2.355c0.388-0.723,0.916-1.323,1.585-1.8c0.502-0.37,1.186-0.684,2.051-0.94
			c0.866-0.257,1.794-0.385,2.785-0.385c1.493,0,2.804,0.215,3.933,0.645c1.128,0.43,1.961,1.012,2.498,1.747
			c0.538,0.734,0.907,1.717,1.11,2.946l-3.152,0.43c-0.143-0.979-0.558-1.744-1.244-2.293c-0.688-0.549-1.657-0.824-2.911-0.824
			c-1.48,0-2.538,0.245-3.171,0.734s-0.949,1.063-0.949,1.719c0,0.418,0.132,0.794,0.395,1.128c0.263,0.347,0.675,0.633,1.235,0.86
			c0.323,0.12,1.272,0.394,2.849,0.824c2.28,0.609,3.872,1.107,4.773,1.496s1.609,0.952,2.122,1.692
			c0.514,0.741,0.771,1.66,0.771,2.759c0,1.075-0.313,2.086-0.94,3.036c-0.627,0.949-1.531,1.684-2.714,2.203
			c-1.182,0.519-2.52,0.779-4.012,0.779c-2.472,0-4.355-0.513-5.651-1.54S841.48,667.503,841.123,665.485z"/>
		<path fill="#5D5E5E" d="M866.398,665.485l3.188-0.501c0.18,1.278,0.678,2.257,1.496,2.938c0.817,0.681,1.961,1.021,3.43,1.021
			c1.481,0,2.58-0.301,3.296-0.904c0.717-0.603,1.075-1.311,1.075-2.123c0-0.729-0.316-1.302-0.949-1.72
			c-0.442-0.287-1.541-0.651-3.296-1.093c-2.364-0.597-4.004-1.113-4.917-1.549c-0.913-0.436-1.606-1.039-2.078-1.809
			s-0.707-1.621-0.707-2.552c0-0.848,0.193-1.633,0.582-2.355c0.388-0.723,0.916-1.323,1.585-1.8c0.502-0.37,1.186-0.684,2.051-0.94
			c0.866-0.257,1.794-0.385,2.785-0.385c1.493,0,2.804,0.215,3.933,0.645c1.128,0.43,1.961,1.012,2.498,1.747
			c0.538,0.734,0.907,1.717,1.11,2.946l-3.152,0.43c-0.143-0.979-0.558-1.744-1.244-2.293c-0.688-0.549-1.657-0.824-2.911-0.824
			c-1.48,0-2.538,0.245-3.171,0.734s-0.949,1.063-0.949,1.719c0,0.418,0.132,0.794,0.395,1.128c0.263,0.347,0.675,0.633,1.235,0.86
			c0.323,0.12,1.272,0.394,2.849,0.824c2.28,0.609,3.872,1.107,4.773,1.496s1.609,0.952,2.122,1.692
			c0.514,0.741,0.771,1.66,0.771,2.759c0,1.075-0.313,2.086-0.94,3.036c-0.627,0.949-1.531,1.684-2.714,2.203
			c-1.182,0.519-2.52,0.779-4.012,0.779c-2.472,0-4.355-0.513-5.651-1.54S866.756,667.503,866.398,665.485z"/>
		<path fill="#5D5E5E" d="M892.892,671.163v-26.259h3.224v26.259H892.892z"/>
		<path fill="#5D5E5E" d="M907.902,678.489l-0.357-3.027c0.704,0.191,1.319,0.287,1.845,0.287c0.716,0,1.289-0.12,1.72-0.358
			c0.43-0.239,0.781-0.573,1.057-1.003c0.203-0.322,0.531-1.123,0.985-2.4c0.06-0.179,0.154-0.442,0.286-0.788l-7.219-19.058h3.476
			l3.958,11.016c0.514,1.397,0.974,2.866,1.38,4.407c0.369-1.481,0.812-2.926,1.325-4.335l4.065-11.087h3.225l-7.236,19.345
			c-0.776,2.09-1.379,3.529-1.81,4.317c-0.573,1.063-1.229,1.842-1.97,2.337c-0.741,0.496-1.624,0.744-2.651,0.744
			C909.359,678.883,908.667,678.751,907.902,678.489z"/>
	</g>
</g>
<g>
	<g>
		<g>
			<polygon fill-rule="evenodd" clip-rule="evenodd" fill="#98CA3C" points="-633.477,448.172 -694.938,399.445 -453.871,380.586 
				-548.612,511.082 -610.43,463.291 -519.002,415.263 			"/>
			<polygon fill-rule="evenodd" clip-rule="evenodd" fill="#98CA3C" points="-617.402,475.003 -576.211,506.985 -635.088,536.904 
							"/>
		</g>
	</g>
	<g>
		<g>
			<rect x="-818" y="418.667" fill="#1394A5" width="40" height="157"/>
			<path fill="#158BA1" d="M-633.769,458.026l-65.029,150.444h-42.492l22.32-46.785l-44.21-103.55h43.457l19.101,51.293l2.254,7.834
				l22.214-59.018L-633.769,458.026z"/>
			<path fill="#5B5C5C" d="M-784.522,686.813c0,8.01-1.466,15.524-4.396,22.536c-2.935,7.012-6.993,13.127-12.181,18.348
				c-5.188,5.221-11.34,9.329-18.458,12.336c-7.117,3.004-14.896,4.508-23.338,4.508c-4.867,0-9.516-0.575-13.95-1.72
				c-4.438-1.141-8.548-2.682-12.342-4.611c-3.789-1.934-7.259-4.223-10.407-6.864c-3.149-2.651-5.865-5.478-8.156-8.476
				l-1.179,18.558h-14.38V590.342h16.525v59.878c2.361-3.073,5.078-5.905,8.154-8.475c3.076-2.576,6.494-4.798,10.248-6.655
				c3.757-1.863,7.779-3.312,12.076-4.344c4.292-1.035,8.868-1.558,13.732-1.558c8.442,0,16.203,1.506,23.288,4.505
				c7.081,3.007,13.197,7.121,18.348,12.342c5.151,5.221,9.174,11.321,12.071,18.295
				C-785.971,671.307-784.522,678.799-784.522,686.813z M-801.046,686.813c0-6.152-1.128-11.858-3.382-17.117
				s-5.33-9.8-9.229-13.629c-3.899-3.824-8.46-6.831-13.681-9.013c-5.224-2.185-10.837-3.271-16.848-3.271
				c-6.006,0-11.623,1.086-16.844,3.271c-5.224,2.182-9.804,5.189-13.736,9.013c-3.934,3.829-7.029,8.371-9.283,13.629
				c-2.254,5.258-3.382,10.965-3.382,17.117c0,6.219,1.128,11.963,3.382,17.221c2.253,5.256,5.33,9.82,9.228,13.682
				c3.9,3.863,8.475,6.865,13.736,9.013c5.257,2.147,10.855,3.217,16.793,3.217c6.01,0,11.625-1.084,16.848-3.269
				c5.221-2.186,9.8-5.189,13.734-9.013c3.933-3.829,7.026-8.374,9.28-13.63C-802.174,698.776-801.046,693.032-801.046,686.813z"/>
			<path fill="#5B5C5C" d="M-704.897,729.845c11.514,0,20.35-3.292,26.502-9.872c6.152-6.584,9.229-16.775,9.229-30.589v-57.192
				h16.634v57.733c0,9.297-1.216,17.363-3.648,24.191c-2.432,6.84-5.919,12.503-10.463,17.011
				c-4.542,4.505-10.051,7.851-16.523,10.033c-6.477,2.183-13.722,3.271-21.729,3.271c-8.014,0-15.257-1.089-21.729-3.271
				c-6.477-2.183-11.985-5.528-16.529-10.033c-4.542-4.508-8.029-10.171-10.461-17.011c-2.433-6.828-3.648-14.895-3.648-24.191
				v-57.733h16.634v57.192c0,13.667,3.021,23.824,9.067,30.479C-725.521,726.519-716.631,729.845-704.897,729.845z"/>
			<path fill="#5B5C5C" d="M-620.665,599.246c0-2.861,1.057-5.327,3.168-7.403c2.107-2.076,4.882-3.11,8.313-3.11
				c1.72,0,3.292,0.284,4.723,0.859c1.43,0.575,2.665,1.34,3.703,2.309c1.037,0.96,1.841,2.075,2.413,3.326
				c0.57,1.253,0.859,2.593,0.859,4.019c0,3.007-1.093,5.514-3.272,7.515c-2.186,2.003-4.991,3.007-8.426,3.007
				c-3.432,0-6.206-1.021-8.313-3.059C-619.608,604.67-620.665,602.181-620.665,599.246z M-617.552,632.191h16.633v109.236h-16.633
				V632.191z"/>
			<path fill="#5B5C5C" d="M-558.962,590.342h16.527v151.086h-16.527V590.342z"/>
			<path fill="#5B5C5C" d="M-511.211,686.813c0-8.015,1.432-15.507,4.293-22.484c2.86-6.975,6.864-13.075,12.017-18.295
				c5.151-5.221,11.283-9.335,18.401-12.342c7.121-2.999,14.903-4.505,23.344-4.505c4.79,0,9.353,0.523,13.679,1.558
				c4.327,1.032,8.354,2.504,12.075,4.396c3.714,1.9,7.135,4.137,10.246,6.707c3.113,2.576,5.847,5.365,8.21,8.372v-59.878h16.419
				v151.086h-14.381l-1.29-19.207c-2.289,3.153-5.009,6.08-8.153,8.803c-3.148,2.717-6.618,5.074-10.407,7.078
				c-3.795,2.007-7.889,3.579-12.287,4.72c-4.401,1.145-9.033,1.72-13.897,1.72c-8.371,0-16.116-1.504-23.231-4.508
				c-7.121-3.007-13.268-7.115-18.456-12.336c-5.189-5.221-9.249-11.336-12.182-18.348
				C-509.747,702.338-511.211,694.823-511.211,686.813z M-494.686,686.813c0,6.219,1.127,11.963,3.381,17.221
				c2.254,5.256,5.326,9.801,9.228,13.63c3.898,3.823,8.476,6.827,13.736,9.013c5.255,2.185,10.853,3.269,16.795,3.269
				c6.006,0,11.623-1.069,16.841-3.217c5.227-2.147,9.804-5.149,13.736-9.013c3.938-3.861,7.032-8.426,9.286-13.682
				c2.254-5.258,3.381-11.002,3.381-17.221c0-6.152-1.147-11.858-3.438-17.117c-2.289-5.258-5.382-9.8-9.277-13.629
				c-3.901-3.824-8.479-6.831-13.736-9.013c-5.261-2.185-10.855-3.271-16.792-3.271c-6.011,0-11.644,1.086-16.904,3.271
				c-5.255,2.182-9.817,5.189-13.679,9.013c-3.863,3.829-6.922,8.371-9.176,13.629S-494.686,680.662-494.686,686.813z"/>
			<path fill="#5B5C5C" d="M-348.318,710.2c0.069,2.723,0.874,5.302,2.412,7.734c1.538,2.429,3.611,4.579,6.227,6.434
				c2.611,1.865,5.646,3.344,9.119,4.456c3.468,1.106,7.136,1.661,10.997,1.661c11.088,0,19.373-1.771,24.842-5.315
				c5.474-3.538,8.213-8.242,8.213-14.109c0-3.22-0.845-5.899-2.527-8.047c-1.682-2.147-4.019-3.93-7.025-5.364
				c-3.008-1.43-6.652-2.607-10.942-3.539c-4.295-0.932-9.087-1.791-14.38-2.579c-4.223-0.5-8.679-1.23-13.362-2.199
				c-4.686-0.966-8.976-2.481-12.876-4.557c-3.901-2.075-7.118-4.898-9.657-8.48c-2.541-3.577-3.809-8.294-3.809-14.162
				c0-4.361,0.802-8.535,2.412-12.502c1.609-3.976,4.22-7.478,7.836-10.522c3.611-3.036,8.312-5.451,14.107-7.236
				c5.796-1.791,12.842-2.685,21.145-2.685c6.29,0,11.962,0.808,17.008,2.415c5.037,1.61,9.349,3.83,12.931,6.655
				c3.577,2.826,6.325,6.167,8.257,10.033c1.938,3.858,2.898,8.082,2.898,12.661h-16.52c-0.149-2.65-0.862-5.08-2.15-7.302
				c-1.288-2.214-3.059-4.105-5.313-5.687c-2.251-1.572-4.916-2.789-7.998-3.648c-3.07-0.859-6.472-1.288-10.191-1.288
				c-5.074,0-9.409,0.538-12.982,1.61c-3.574,1.078-6.472,2.51-8.691,4.295c-2.213,1.791-3.832,3.81-4.829,6.066
				c-1.001,2.248-1.501,4.557-1.501,6.917c0,2.794,0.679,5.131,2.041,7.032c1.352,1.895,3.375,3.502,6.055,4.827
				c2.688,1.325,6.031,2.38,10.033,3.168c4.014,0.785,8.693,1.426,14.061,1.929c3.146,0.431,6.402,0.931,9.767,1.5
				c3.363,0.575,6.638,1.36,9.82,2.366c3.18,0.998,6.204,2.233,9.064,3.697c2.86,1.466,5.35,3.291,7.454,5.477
				c2.113,2.176,3.795,4.755,5.049,7.725c1.25,2.97,1.877,6.46,1.877,10.461c0,5.578-1.142,10.5-3.436,14.754
				c-2.288,4.258-5.614,7.854-9.976,10.781c-4.37,2.936-9.677,5.151-15.938,6.655c-6.262,1.501-13.362,2.254-21.297,2.254
				c-6.939,0-13.164-1.021-18.675-3.059c-5.509-2.038-10.16-4.684-13.949-7.943c-3.795-3.252-6.704-6.935-8.745-11.048
				c-2.038-4.114-3.059-8.242-3.059-12.395L-348.318,710.2z"/>
		</g>
		<g>
			<g>
				<path fill="#158BA1" d="M-903.52,495.457h-19.53V462.73h19.53v-3.757c0-5.152,0.696-10.338,2.094-15.559
					c1.395-5.221,3.756-9.947,7.081-14.167c3.326-4.217,7.761-7.673,13.305-10.355c5.542-2.679,12.465-4.025,20.765-4.025h25.109
					v31.12l-15.235-0.106c-2.505,0-4.615,0.356-6.334,1.069c-1.715,0.719-3.109,1.708-4.183,2.956
					c-1.074,1.25-1.846,2.72-2.309,4.398c-0.466,1.685-0.694,3.49-0.694,5.419v3.007h28.756v32.727h-28.756v79.191h-39.598V495.457z
					"/>
			</g>
		</g>
	</g>
</g>
<g>
	
		<text transform="matrix(1 0 0 1 -906.1665 805.1631)" fill="#5D5E5E" font-family="'ArialMT'" font-size="36.6839" letter-spacing="6">Share your apps seamlessly</text>
</g>
</svg>
