<?xml version="1.0" encoding="utf-8"?>
<!-- Generator: Adobe Illustrator 14.0.0, SVG Export Plug-In . SVG Version: 6.00 Build 43363)  -->
<!DOCTYPE svg PUBLIC "-//W3C//DTD SVG 1.1//EN" "http://www.w3.org/Graphics/SVG/1.1/DTD/svg11.dtd">
<svg version="1.1" id="Layer_1" xmlns="http://www.w3.org/2000/svg" xmlns:xlink="http://www.w3.org/1999/xlink" x="0px" y="0px"
	 width="134.75px" height="90.74px" viewBox="0 0 134.75 90.74" enable-background="new 0 0 134.75 90.74" xml:space="preserve">
<polygon fill-rule="evenodd" clip-rule="evenodd" fill="#98CA3C" points="59.145,13.804 46.591,3.852 95.829,0 76.478,26.654 
	63.852,16.892 82.526,7.083 "/>
<polygon fill-rule="evenodd" clip-rule="evenodd" fill="#98CA3C" points="62.428,19.284 70.84,25.816 58.815,31.928 "/>
<rect x="21.456" y="7.778" fill="#1494A5" width="8.17" height="32.067"/>
<polygon fill="#158BA1" points="59.084,15.817 45.803,46.545 37.124,46.545 41.683,36.989 32.653,15.839 41.529,15.839 
	45.43,26.316 45.891,27.916 50.427,15.861 "/>
<path fill="#5C5C5C" d="M28.293,62.547c0,1.636-0.299,3.17-0.898,4.602c-0.6,1.434-1.428,2.683-2.488,3.749
	c-1.06,1.065-2.316,1.904-3.77,2.519s-3.042,0.921-4.767,0.921c-0.994,0-1.943-0.118-2.85-0.351
	c-0.906-0.233-1.745-0.548-2.521-0.942c-0.774-0.395-1.482-0.862-2.125-1.401c-0.643-0.542-1.198-1.119-1.666-1.732l-0.241,3.792
	H4.031v-30.86h3.375v12.23c0.482-0.627,1.037-1.206,1.666-1.731c0.628-0.525,1.326-0.979,2.093-1.359
	c0.768-0.381,1.589-0.677,2.466-0.887c0.876-0.212,1.812-0.318,2.805-0.318c1.724,0,3.309,0.307,4.756,0.92
	c1.446,0.614,2.695,1.455,3.747,2.521c1.052,1.066,1.874,2.313,2.466,3.737C27.998,59.379,28.293,60.91,28.293,62.547
	 M24.918,62.547c0-1.257-0.23-2.423-0.69-3.497c-0.46-1.073-1.089-2.001-1.885-2.783c-0.796-0.781-1.729-1.396-2.794-1.841
	c-1.067-0.446-2.213-0.669-3.441-0.669c-1.227,0-2.374,0.223-3.44,0.669c-1.067,0.445-2.002,1.06-2.806,1.841
	c-0.803,0.782-1.436,1.71-1.896,2.783c-0.46,1.074-0.691,2.24-0.691,3.497c0,1.27,0.23,2.443,0.691,3.517
	c0.46,1.073,1.088,2.006,1.884,2.795c0.797,0.789,1.731,1.402,2.806,1.84c1.074,0.439,2.217,0.658,3.43,0.658
	c1.228,0,2.375-0.222,3.441-0.668c1.066-0.446,2.001-1.06,2.805-1.841c0.804-0.782,1.436-1.711,1.896-2.784
	C24.688,64.99,24.918,63.816,24.918,62.547"/>
<path fill="#5C5C5C" d="M44.557,71.335c2.352,0,4.157-0.672,5.413-2.017c1.256-1.344,1.885-3.426,1.885-6.247V51.39h3.397v11.792
	c0,1.898-0.249,3.547-0.745,4.941c-0.497,1.396-1.209,2.554-2.137,3.475c-0.928,0.92-2.053,1.603-3.375,2.049
	c-1.323,0.445-2.803,0.669-4.438,0.669c-1.637,0-3.116-0.224-4.438-0.669c-1.323-0.446-2.448-1.129-3.376-2.049
	c-0.928-0.921-1.64-2.078-2.137-3.475c-0.497-1.395-0.745-3.043-0.745-4.941V51.39h3.397v11.682c0,2.792,0.617,4.866,1.852,6.226
	C40.345,70.655,42.161,71.335,44.557,71.335"/>
<path fill="#5C5C5C" d="M61.761,44.661c0-0.584,0.216-1.088,0.647-1.512c0.43-0.424,0.997-0.636,1.698-0.636
	c0.352,0,0.673,0.058,0.965,0.176c0.292,0.118,0.545,0.274,0.757,0.471c0.211,0.196,0.376,0.424,0.492,0.68
	c0.117,0.256,0.176,0.529,0.176,0.821c0,0.614-0.224,1.126-0.668,1.534c-0.447,0.41-1.02,0.615-1.722,0.615
	c-0.701,0-1.268-0.209-1.698-0.625C61.977,45.769,61.761,45.26,61.761,44.661 M62.397,51.39h3.398v22.312h-3.398V51.39z"/>
<rect x="74.364" y="42.842" fill="#5C5C5C" width="3.376" height="30.86"/>
<path fill="#5C5C5C" d="M84.117,62.547c0-1.637,0.293-3.168,0.877-4.593c0.585-1.425,1.402-2.671,2.455-3.737
	c1.052-1.065,2.304-1.906,3.758-2.521c1.455-0.613,3.044-0.92,4.768-0.92c0.979,0,1.91,0.106,2.795,0.318
	c0.883,0.21,1.706,0.512,2.466,0.897c0.758,0.388,1.457,0.845,2.093,1.37c0.636,0.526,1.194,1.096,1.677,1.71v-12.23h3.354v30.86
	h-2.938l-0.264-3.924c-0.467,0.645-1.022,1.241-1.665,1.798c-0.643,0.555-1.352,1.036-2.126,1.446
	c-0.774,0.409-1.611,0.73-2.509,0.964c-0.899,0.232-1.846,0.351-2.839,0.351c-1.71,0-3.292-0.307-4.745-0.921
	c-1.454-0.614-2.71-1.453-3.77-2.519c-1.06-1.066-1.89-2.315-2.488-3.749C84.417,65.717,84.117,64.183,84.117,62.547 M87.493,62.547
	c0,1.27,0.23,2.443,0.689,3.517c0.461,1.073,1.089,2.002,1.885,2.784c0.797,0.781,1.732,1.395,2.807,1.841
	c1.072,0.446,2.217,0.668,3.43,0.668c1.228,0,2.374-0.219,3.44-0.658c1.067-0.438,2.002-1.051,2.806-1.84
	c0.805-0.789,1.436-1.722,1.896-2.795c0.46-1.073,0.69-2.247,0.69-3.517c0-1.257-0.234-2.423-0.702-3.497
	c-0.468-1.073-1.1-2.001-1.895-2.783c-0.798-0.781-1.732-1.396-2.806-1.841c-1.075-0.446-2.218-0.669-3.431-0.669
	c-1.228,0-2.378,0.223-3.452,0.669c-1.074,0.445-2.006,1.06-2.794,1.841c-0.789,0.782-1.414,1.71-1.875,2.783
	C87.723,60.124,87.493,61.29,87.493,62.547"/>
<path fill="#5C5C5C" d="M117.387,67.322c0.015,0.558,0.179,1.084,0.493,1.58c0.314,0.497,0.737,0.936,1.272,1.314
	c0.532,0.381,1.152,0.683,1.862,0.91c0.708,0.227,1.457,0.339,2.246,0.339c2.265,0,3.956-0.361,5.074-1.085
	c1.117-0.723,1.677-1.684,1.677-2.882c0-0.658-0.173-1.205-0.516-1.644c-0.344-0.438-0.821-0.803-1.436-1.096
	c-0.614-0.292-1.359-0.532-2.235-0.723c-0.877-0.19-1.855-0.366-2.937-0.526c-0.863-0.103-1.772-0.253-2.729-0.45
	s-1.833-0.507-2.63-0.931s-1.453-1.001-1.972-1.732c-0.52-0.729-0.778-1.693-0.778-2.892c0-0.891,0.163-1.744,0.492-2.555
	c0.329-0.812,0.862-1.527,1.601-2.148c0.738-0.62,1.697-1.113,2.882-1.478c1.184-0.366,2.622-0.549,4.318-0.549
	c1.285,0,2.443,0.164,3.474,0.493c1.029,0.329,1.909,0.782,2.642,1.359c0.73,0.577,1.292,1.26,1.686,2.049
	c0.396,0.788,0.593,1.65,0.593,2.586h-3.374c-0.03-0.541-0.177-1.037-0.439-1.491c-0.263-0.451-0.625-0.839-1.085-1.161
	c-0.46-0.321-1.004-0.569-1.633-0.745c-0.628-0.176-1.322-0.263-2.083-0.263c-1.035,0-1.921,0.109-2.651,0.328
	c-0.729,0.221-1.321,0.514-1.774,0.877c-0.452,0.366-0.783,0.778-0.987,1.24c-0.204,0.459-0.307,0.93-0.307,1.412
	c0,0.57,0.14,1.048,0.417,1.437c0.276,0.387,0.689,0.715,1.236,0.985c0.55,0.271,1.233,0.486,2.05,0.646
	c0.82,0.161,1.775,0.292,2.872,0.396c0.642,0.087,1.308,0.189,1.994,0.306c0.688,0.117,1.356,0.277,2.007,0.484
	c0.648,0.203,1.267,0.455,1.852,0.754c0.584,0.299,1.093,0.672,1.522,1.118c0.432,0.444,0.774,0.972,1.03,1.579
	c0.256,0.605,0.384,1.319,0.384,2.136c0,1.14-0.232,2.146-0.702,3.014c-0.467,0.87-1.146,1.604-2.037,2.202
	c-0.893,0.6-1.976,1.053-3.255,1.359s-2.73,0.46-4.351,0.46c-1.417,0-2.688-0.208-3.813-0.624c-1.126-0.416-2.076-0.957-2.85-1.622
	c-0.775-0.665-1.369-1.417-1.786-2.257c-0.417-0.841-0.624-1.684-0.624-2.532L117.387,67.322z"/>
<path fill="#158BA1" d="M3.988,23.462H0v-6.685h3.989V16.01c0-1.053,0.142-2.111,0.428-3.178c0.285-1.066,0.767-2.031,1.446-2.894
	c0.68-0.861,1.585-1.567,2.718-2.115c1.132-0.547,2.546-0.822,4.241-0.822h5.128v6.355l-3.112-0.021
	c-0.512,0-0.943,0.073-1.294,0.219c-0.35,0.146-0.635,0.349-0.854,0.604c-0.219,0.255-0.376,0.555-0.471,0.898
	c-0.095,0.344-0.142,0.712-0.142,1.107v0.614h5.873v6.685h-5.873v16.174H3.988V23.462z"/>
<path fill="#5D5E5E" d="M3.785,84.996l0.669-0.059c0.032,0.269,0.106,0.488,0.222,0.66c0.116,0.173,0.296,0.311,0.54,0.417
	c0.243,0.106,0.518,0.16,0.823,0.16c0.271,0,0.51-0.041,0.717-0.121c0.208-0.081,0.362-0.191,0.463-0.332
	c0.101-0.14,0.152-0.293,0.152-0.459c0-0.168-0.049-0.315-0.146-0.44c-0.098-0.126-0.259-0.231-0.483-0.316
	c-0.144-0.056-0.462-0.144-0.955-0.262c-0.493-0.118-0.837-0.229-1.035-0.335c-0.256-0.134-0.447-0.301-0.573-0.499
	c-0.125-0.199-0.188-0.422-0.188-0.668c0-0.271,0.077-0.523,0.23-0.759s0.378-0.414,0.673-0.536
	c0.295-0.122,0.624-0.184,0.984-0.184c0.398,0,0.749,0.064,1.052,0.192s0.537,0.316,0.7,0.566c0.164,0.248,0.251,0.53,0.264,0.845
	l-0.681,0.051c-0.037-0.339-0.16-0.595-0.372-0.768c-0.21-0.174-0.522-0.261-0.935-0.261c-0.429,0-0.742,0.079-0.938,0.236
	c-0.196,0.157-0.294,0.347-0.294,0.569c0,0.191,0.069,0.351,0.208,0.476c0.136,0.124,0.493,0.251,1.07,0.382
	c0.577,0.131,0.973,0.244,1.187,0.342c0.313,0.144,0.543,0.327,0.691,0.547c0.149,0.222,0.223,0.476,0.223,0.763
	c0,0.285-0.082,0.555-0.245,0.808c-0.164,0.252-0.398,0.448-0.704,0.589c-0.307,0.14-0.651,0.21-1.034,0.21
	c-0.485,0-0.892-0.071-1.22-0.212c-0.328-0.142-0.585-0.354-0.771-0.638C3.892,85.676,3.794,85.354,3.785,84.996"/>
<path fill="#5D5E5E" d="M10.355,86.72v-5.364h0.659v1.925c0.307-0.356,0.695-0.534,1.163-0.534c0.288,0,0.538,0.057,0.75,0.17
	c0.212,0.113,0.364,0.271,0.456,0.471s0.137,0.49,0.137,0.87v2.463h-0.659v-2.463c0-0.329-0.071-0.568-0.214-0.719
	c-0.143-0.149-0.345-0.225-0.605-0.225c-0.195,0-0.379,0.05-0.551,0.151s-0.294,0.239-0.368,0.412
	c-0.073,0.172-0.109,0.412-0.109,0.717v2.126H10.355z"/>
<path fill="#5D5E5E" d="M18.474,86.24c-0.244,0.207-0.479,0.353-0.705,0.439c-0.225,0.085-0.468,0.128-0.726,0.128
	c-0.427,0-0.755-0.104-0.984-0.313c-0.229-0.209-0.344-0.476-0.344-0.799c0-0.191,0.043-0.365,0.13-0.522
	c0.087-0.157,0.2-0.283,0.34-0.378c0.14-0.096,0.298-0.168,0.474-0.216c0.129-0.034,0.325-0.067,0.585-0.099
	c0.532-0.063,0.923-0.14,1.174-0.228c0.002-0.089,0.004-0.146,0.004-0.172c0-0.268-0.063-0.457-0.187-0.566
	c-0.168-0.149-0.418-0.224-0.75-0.224c-0.31,0-0.539,0.055-0.687,0.163c-0.147,0.108-0.256,0.301-0.327,0.576l-0.645-0.088
	c0.059-0.275,0.155-0.498,0.289-0.668c0.135-0.17,0.328-0.3,0.582-0.391c0.253-0.092,0.547-0.138,0.882-0.138
	c0.331,0,0.601,0.039,0.809,0.117c0.207,0.078,0.359,0.176,0.457,0.295c0.098,0.117,0.166,0.268,0.205,0.447
	c0.022,0.113,0.033,0.314,0.033,0.607v0.878c0,0.612,0.014,0.999,0.042,1.162c0.028,0.162,0.083,0.317,0.167,0.467h-0.688
	C18.538,86.582,18.494,86.423,18.474,86.24 M18.419,84.769c-0.239,0.099-0.598,0.182-1.075,0.249
	c-0.271,0.039-0.462,0.083-0.575,0.132c-0.112,0.05-0.199,0.121-0.26,0.215c-0.061,0.093-0.092,0.197-0.092,0.313
	c0,0.176,0.067,0.321,0.2,0.438c0.133,0.118,0.327,0.176,0.583,0.176c0.254,0,0.479-0.056,0.677-0.167
	c0.198-0.11,0.343-0.263,0.436-0.455c0.071-0.148,0.106-0.368,0.106-0.658V84.769z"/>
<path fill="#5D5E5E" d="M21.515,86.72v-3.886h0.593v0.589c0.151-0.276,0.291-0.457,0.418-0.545s0.269-0.132,0.423-0.132
	c0.222,0,0.447,0.07,0.676,0.212l-0.227,0.611c-0.161-0.095-0.322-0.143-0.483-0.143c-0.144,0-0.273,0.043-0.388,0.13
	s-0.196,0.206-0.245,0.36c-0.073,0.233-0.109,0.49-0.109,0.768v2.035H21.515z"/>
<path fill="#5D5E5E" d="M28.093,85.468l0.681,0.084c-0.107,0.397-0.306,0.707-0.597,0.927c-0.291,0.219-0.661,0.329-1.112,0.329
	c-0.568,0-1.02-0.176-1.352-0.525c-0.333-0.351-0.5-0.841-0.5-1.473c0-0.654,0.168-1.161,0.505-1.522
	c0.336-0.36,0.773-0.541,1.31-0.541c0.519,0,0.944,0.177,1.273,0.53c0.329,0.354,0.494,0.852,0.494,1.493
	c0,0.039-0.001,0.098-0.004,0.175h-2.897c0.024,0.427,0.145,0.755,0.362,0.981s0.488,0.339,0.813,0.339
	c0.242,0,0.448-0.063,0.618-0.188C27.857,85.948,27.993,85.745,28.093,85.468 M25.93,84.403h2.17
	c-0.029-0.326-0.112-0.571-0.249-0.735c-0.21-0.253-0.482-0.381-0.815-0.381c-0.302,0-0.557,0.102-0.763,0.304
	C26.067,83.793,25.953,84.063,25.93,84.403"/>
<path fill="#5D5E5E" d="M34.485,88.216l-0.073-0.618c0.144,0.039,0.27,0.059,0.377,0.059c0.146,0,0.263-0.025,0.351-0.073
	c0.088-0.049,0.16-0.117,0.216-0.205c0.041-0.066,0.108-0.229,0.201-0.49c0.012-0.036,0.032-0.091,0.059-0.161l-1.475-3.893h0.71
	l0.809,2.25c0.104,0.285,0.199,0.585,0.282,0.9c0.076-0.303,0.166-0.599,0.271-0.887l0.83-2.264h0.659l-1.479,3.951
	c-0.158,0.426-0.281,0.721-0.369,0.882c-0.117,0.217-0.251,0.376-0.402,0.478s-0.332,0.151-0.542,0.151
	C34.782,88.296,34.641,88.27,34.485,88.216"/>
<path fill="#5D5E5E" d="M39.432,84.776c0-0.719,0.2-1.252,0.6-1.599c0.334-0.288,0.741-0.432,1.222-0.432
	c0.535,0,0.971,0.175,1.31,0.525c0.339,0.35,0.508,0.833,0.508,1.45c0,0.5-0.075,0.894-0.225,1.181
	c-0.15,0.286-0.368,0.508-0.654,0.667c-0.287,0.158-0.6,0.238-0.939,0.238c-0.543,0-0.983-0.175-1.318-0.523
	C39.599,85.935,39.432,85.433,39.432,84.776 M40.108,84.776c0,0.497,0.108,0.87,0.326,1.118c0.217,0.247,0.491,0.37,0.819,0.37
	c0.327,0,0.599-0.123,0.816-0.372c0.217-0.249,0.326-0.628,0.326-1.139c0-0.479-0.109-0.844-0.327-1.092
	c-0.219-0.247-0.49-0.371-0.814-0.371c-0.329,0-0.602,0.124-0.819,0.37C40.216,83.906,40.108,84.279,40.108,84.776"/>
<path fill="#5D5E5E" d="M47.806,86.72v-0.571c-0.302,0.439-0.713,0.659-1.233,0.659c-0.229,0-0.443-0.044-0.642-0.132
	c-0.198-0.088-0.346-0.198-0.442-0.331c-0.097-0.134-0.164-0.297-0.203-0.488c-0.027-0.13-0.04-0.335-0.04-0.615v-2.407h0.658v2.154
	c0,0.344,0.013,0.576,0.04,0.695c0.042,0.174,0.129,0.309,0.264,0.407c0.134,0.1,0.3,0.149,0.498,0.149
	c0.198,0,0.383-0.051,0.556-0.151c0.173-0.102,0.296-0.24,0.368-0.415c0.072-0.174,0.108-0.427,0.108-0.759v-2.081h0.658v3.886
	H47.806z"/>
<path fill="#5D5E5E" d="M50.835,86.72v-3.886h0.593v0.589c0.151-0.276,0.291-0.457,0.419-0.545s0.269-0.132,0.422-0.132
	c0.222,0,0.447,0.07,0.677,0.212l-0.227,0.611c-0.161-0.095-0.322-0.143-0.482-0.143c-0.144,0-0.273,0.043-0.388,0.13
	s-0.196,0.206-0.245,0.36c-0.074,0.233-0.11,0.49-0.11,0.768v2.035H50.835z"/>
<path fill="#5D5E5E" d="M60.787,86.24c-0.244,0.207-0.479,0.353-0.704,0.439c-0.226,0.085-0.468,0.128-0.727,0.128
	c-0.427,0-0.755-0.104-0.984-0.313c-0.229-0.209-0.344-0.476-0.344-0.799c0-0.191,0.043-0.365,0.129-0.522s0.2-0.283,0.34-0.378
	c0.141-0.096,0.298-0.168,0.474-0.216c0.129-0.034,0.325-0.067,0.585-0.099c0.532-0.063,0.923-0.14,1.174-0.228
	c0.002-0.089,0.004-0.146,0.004-0.172c0-0.268-0.063-0.457-0.187-0.566c-0.168-0.149-0.418-0.224-0.75-0.224
	c-0.31,0-0.539,0.055-0.686,0.163c-0.148,0.108-0.257,0.301-0.328,0.576l-0.644-0.088c0.059-0.275,0.155-0.498,0.289-0.668
	c0.134-0.17,0.328-0.3,0.582-0.391c0.253-0.092,0.547-0.138,0.882-0.138c0.332,0,0.601,0.039,0.808,0.117
	c0.208,0.078,0.36,0.176,0.458,0.295c0.097,0.117,0.166,0.268,0.205,0.447c0.021,0.113,0.033,0.314,0.033,0.607v0.878
	c0,0.612,0.014,0.999,0.042,1.162c0.028,0.162,0.083,0.317,0.167,0.467h-0.688C60.851,86.582,60.807,86.423,60.787,86.24
	 M60.732,84.769c-0.239,0.099-0.598,0.182-1.075,0.249c-0.271,0.039-0.462,0.083-0.575,0.132c-0.112,0.05-0.199,0.121-0.26,0.215
	c-0.061,0.093-0.091,0.197-0.091,0.313c0,0.176,0.066,0.321,0.199,0.438c0.133,0.118,0.327,0.176,0.583,0.176
	c0.253,0,0.479-0.056,0.677-0.167c0.197-0.11,0.342-0.263,0.435-0.455c0.071-0.148,0.106-0.368,0.106-0.658V84.769z"/>
<path fill="#5D5E5E" d="M63.834,88.208v-5.374h0.601v0.505c0.141-0.197,0.301-0.346,0.479-0.444s0.393-0.148,0.647-0.148
	c0.332,0,0.625,0.085,0.878,0.256s0.445,0.412,0.574,0.723s0.193,0.652,0.193,1.022c0,0.397-0.071,0.755-0.214,1.073
	c-0.143,0.319-0.351,0.563-0.622,0.732s-0.558,0.255-0.857,0.255c-0.22,0-0.416-0.047-0.591-0.14s-0.317-0.21-0.43-0.351v1.891
	H63.834z M64.431,84.798c0,0.501,0.101,0.87,0.304,1.108c0.202,0.24,0.447,0.359,0.735,0.359c0.292,0,0.543-0.124,0.752-0.371
	c0.208-0.248,0.313-0.632,0.313-1.151c0-0.494-0.102-0.866-0.306-1.111c-0.204-0.247-0.447-0.37-0.729-0.37
	c-0.281,0-0.529,0.131-0.745,0.394S64.431,84.298,64.431,84.798"/>
<path fill="#5D5E5E" d="M69.417,88.208v-5.374h0.601v0.505c0.142-0.197,0.301-0.346,0.479-0.444
	c0.178-0.099,0.394-0.148,0.647-0.148c0.331,0,0.625,0.085,0.878,0.256s0.445,0.412,0.574,0.723s0.194,0.652,0.194,1.022
	c0,0.397-0.072,0.755-0.215,1.073c-0.143,0.319-0.35,0.563-0.621,0.732s-0.559,0.255-0.858,0.255c-0.219,0-0.417-0.047-0.591-0.14
	s-0.317-0.21-0.431-0.351v1.891H69.417z M70.014,84.798c0,0.501,0.102,0.87,0.304,1.108c0.202,0.24,0.447,0.359,0.735,0.359
	c0.293,0,0.544-0.124,0.752-0.371c0.209-0.248,0.313-0.632,0.313-1.151c0-0.494-0.102-0.866-0.305-1.111
	c-0.204-0.247-0.447-0.37-0.73-0.37c-0.28,0-0.529,0.131-0.745,0.394S70.014,84.298,70.014,84.798"/>
<path fill="#5D5E5E" d="M74.738,85.56l0.651-0.103c0.036,0.261,0.138,0.461,0.305,0.601c0.168,0.139,0.401,0.207,0.701,0.207
	c0.303,0,0.526-0.061,0.673-0.184s0.22-0.268,0.22-0.435c0-0.147-0.064-0.265-0.194-0.351c-0.09-0.059-0.314-0.133-0.673-0.224
	c-0.482-0.121-0.817-0.227-1.004-0.316c-0.187-0.089-0.328-0.212-0.425-0.369s-0.145-0.331-0.145-0.521
	c0-0.173,0.04-0.334,0.119-0.48c0.079-0.147,0.188-0.271,0.324-0.368c0.103-0.075,0.242-0.14,0.419-0.191
	c0.177-0.054,0.366-0.079,0.568-0.079c0.306,0,0.572,0.044,0.803,0.132s0.4,0.207,0.51,0.356c0.111,0.15,0.187,0.351,0.228,0.602
	l-0.644,0.088c-0.029-0.2-0.114-0.355-0.255-0.468c-0.14-0.112-0.338-0.169-0.594-0.169c-0.302,0-0.519,0.051-0.647,0.15
	s-0.194,0.217-0.194,0.352c0,0.086,0.026,0.161,0.081,0.23c0.054,0.071,0.138,0.129,0.252,0.175c0.065,0.025,0.26,0.081,0.582,0.169
	c0.466,0.124,0.79,0.227,0.975,0.305c0.185,0.08,0.329,0.195,0.434,0.346c0.104,0.152,0.158,0.34,0.158,0.564
	c0,0.22-0.064,0.426-0.192,0.62c-0.129,0.193-0.313,0.344-0.556,0.45c-0.241,0.105-0.514,0.159-0.818,0.159
	c-0.505,0-0.891-0.105-1.154-0.315C74.98,86.282,74.811,85.972,74.738,85.56"/>
<path fill="#5D5E5E" d="M83.398,85.56l0.651-0.103c0.037,0.261,0.139,0.461,0.306,0.601c0.166,0.139,0.4,0.207,0.7,0.207
	c0.303,0,0.526-0.061,0.673-0.184s0.22-0.268,0.22-0.435c0-0.147-0.064-0.265-0.193-0.351c-0.091-0.059-0.315-0.133-0.674-0.224
	c-0.482-0.121-0.817-0.227-1.004-0.316c-0.187-0.089-0.328-0.212-0.424-0.369c-0.098-0.157-0.145-0.331-0.145-0.521
	c0-0.173,0.039-0.334,0.119-0.48c0.078-0.147,0.186-0.271,0.323-0.368c0.103-0.075,0.241-0.14,0.419-0.191
	c0.177-0.054,0.365-0.079,0.568-0.079c0.305,0,0.572,0.044,0.803,0.132s0.4,0.207,0.511,0.356c0.109,0.15,0.186,0.351,0.227,0.602
	l-0.644,0.088c-0.029-0.2-0.114-0.355-0.254-0.468c-0.141-0.112-0.339-0.169-0.595-0.169c-0.303,0-0.519,0.051-0.647,0.15
	c-0.13,0.1-0.193,0.217-0.193,0.352c0,0.086,0.026,0.161,0.08,0.23c0.054,0.071,0.138,0.129,0.252,0.175
	c0.066,0.025,0.26,0.081,0.582,0.169c0.465,0.124,0.791,0.227,0.975,0.305c0.185,0.08,0.329,0.195,0.434,0.346
	c0.105,0.152,0.157,0.34,0.157,0.564c0,0.22-0.064,0.426-0.192,0.62c-0.128,0.193-0.313,0.344-0.554,0.45
	c-0.241,0.105-0.515,0.159-0.819,0.159c-0.505,0-0.89-0.105-1.154-0.315S83.47,85.972,83.398,85.56"/>
<path fill="#5D5E5E" d="M91.484,85.468l0.68,0.084c-0.106,0.397-0.306,0.707-0.596,0.927c-0.291,0.219-0.661,0.329-1.112,0.329
	c-0.568,0-1.02-0.176-1.353-0.525c-0.332-0.351-0.499-0.841-0.499-1.473c0-0.654,0.168-1.161,0.505-1.522
	c0.337-0.36,0.773-0.541,1.311-0.541c0.52,0,0.943,0.177,1.272,0.53c0.329,0.354,0.494,0.852,0.494,1.493
	c0,0.039-0.001,0.098-0.004,0.175h-2.897c0.024,0.427,0.146,0.755,0.362,0.981s0.488,0.339,0.813,0.339
	c0.241,0,0.447-0.063,0.618-0.188C91.249,85.948,91.383,85.745,91.484,85.468 M89.321,84.403h2.17
	c-0.029-0.326-0.112-0.571-0.248-0.735c-0.211-0.253-0.482-0.381-0.816-0.381c-0.303,0-0.557,0.102-0.764,0.304
	C89.458,83.793,89.343,84.063,89.321,84.403"/>
<path fill="#5D5E5E" d="M96.942,86.24c-0.243,0.207-0.479,0.353-0.704,0.439c-0.225,0.085-0.468,0.128-0.726,0.128
	c-0.428,0-0.755-0.104-0.984-0.313s-0.344-0.476-0.344-0.799c0-0.191,0.043-0.365,0.13-0.522c0.086-0.157,0.199-0.283,0.34-0.378
	c0.14-0.096,0.298-0.168,0.474-0.216c0.129-0.034,0.325-0.067,0.586-0.099c0.531-0.063,0.923-0.14,1.174-0.228
	c0.003-0.089,0.004-0.146,0.004-0.172c0-0.268-0.063-0.457-0.187-0.566c-0.169-0.149-0.418-0.224-0.75-0.224
	c-0.31,0-0.539,0.055-0.687,0.163c-0.146,0.108-0.257,0.301-0.327,0.576l-0.644-0.088c0.059-0.275,0.154-0.498,0.289-0.668
	c0.134-0.17,0.327-0.3,0.581-0.391c0.254-0.092,0.548-0.138,0.882-0.138c0.332,0,0.602,0.039,0.809,0.117s0.36,0.176,0.457,0.295
	c0.098,0.117,0.166,0.268,0.206,0.447c0.021,0.113,0.032,0.314,0.032,0.607v0.878c0,0.612,0.014,0.999,0.043,1.162
	c0.027,0.162,0.083,0.317,0.166,0.467h-0.688C97.006,86.582,96.962,86.423,96.942,86.24 M96.887,84.769
	c-0.239,0.099-0.598,0.182-1.075,0.249c-0.271,0.039-0.462,0.083-0.574,0.132c-0.113,0.05-0.199,0.121-0.26,0.215
	c-0.062,0.093-0.092,0.197-0.092,0.313c0,0.176,0.066,0.321,0.199,0.438c0.133,0.118,0.327,0.176,0.584,0.176
	c0.254,0,0.479-0.056,0.677-0.167c0.197-0.11,0.343-0.263,0.435-0.455c0.071-0.148,0.106-0.368,0.106-0.658V84.769z"/>
<path fill="#5D5E5E" d="M99.99,86.72v-3.886h0.59v0.545c0.121-0.19,0.283-0.343,0.486-0.459c0.202-0.116,0.433-0.174,0.691-0.174
	c0.288,0,0.523,0.06,0.708,0.18c0.185,0.118,0.314,0.286,0.39,0.501c0.307-0.454,0.707-0.681,1.199-0.681
	c0.386,0,0.683,0.107,0.89,0.32s0.312,0.542,0.312,0.985v2.668H104.6v-2.448c0-0.264-0.021-0.452-0.063-0.568
	c-0.043-0.116-0.121-0.21-0.233-0.28c-0.111-0.071-0.243-0.106-0.396-0.106c-0.272,0-0.499,0.091-0.68,0.273
	c-0.181,0.182-0.271,0.473-0.271,0.872v2.258h-0.658v-2.525c0-0.292-0.054-0.512-0.161-0.658c-0.106-0.146-0.283-0.22-0.526-0.22
	c-0.186,0-0.356,0.049-0.514,0.146s-0.271,0.241-0.342,0.428c-0.071,0.188-0.106,0.46-0.106,0.813v2.017H99.99z"/>
<rect x="107.633" y="81.355" fill="#5D5E5E" width="0.658" height="5.364"/>
<path fill="#5D5E5E" d="M113.388,85.468l0.68,0.084c-0.106,0.397-0.305,0.707-0.596,0.927c-0.29,0.219-0.661,0.329-1.112,0.329
	c-0.568,0-1.02-0.176-1.352-0.525c-0.333-0.351-0.499-0.841-0.499-1.473c0-0.654,0.167-1.161,0.505-1.522
	c0.336-0.36,0.772-0.541,1.31-0.541c0.52,0,0.943,0.177,1.272,0.53c0.329,0.354,0.494,0.852,0.494,1.493
	c0,0.039-0.001,0.098-0.004,0.175h-2.896c0.023,0.427,0.145,0.755,0.361,0.981s0.488,0.339,0.813,0.339
	c0.241,0,0.447-0.063,0.618-0.188C113.153,85.948,113.289,85.745,113.388,85.468 M111.226,84.403h2.169
	c-0.029-0.326-0.111-0.571-0.249-0.735c-0.209-0.253-0.481-0.381-0.815-0.381c-0.303,0-0.557,0.102-0.763,0.304
	S111.249,84.063,111.226,84.403"/>
<path fill="#5D5E5E" d="M116.047,85.56l0.651-0.103c0.037,0.261,0.14,0.461,0.306,0.601c0.167,0.139,0.4,0.207,0.7,0.207
	c0.303,0,0.528-0.061,0.674-0.184c0.146-0.123,0.22-0.268,0.22-0.435c0-0.147-0.064-0.265-0.193-0.351
	c-0.091-0.059-0.315-0.133-0.674-0.224c-0.483-0.121-0.818-0.227-1.005-0.316c-0.187-0.089-0.327-0.212-0.424-0.369
	s-0.145-0.331-0.145-0.521c0-0.173,0.039-0.334,0.119-0.48c0.079-0.147,0.188-0.271,0.323-0.368c0.103-0.075,0.242-0.14,0.419-0.191
	c0.178-0.054,0.366-0.079,0.568-0.079c0.306,0,0.573,0.044,0.804,0.132s0.401,0.207,0.511,0.356c0.109,0.15,0.185,0.351,0.227,0.602
	l-0.644,0.088c-0.029-0.2-0.114-0.355-0.254-0.468c-0.142-0.112-0.339-0.169-0.596-0.169c-0.302,0-0.518,0.051-0.647,0.15
	c-0.129,0.1-0.193,0.217-0.193,0.352c0,0.086,0.027,0.161,0.08,0.23c0.054,0.071,0.138,0.129,0.252,0.175
	c0.066,0.025,0.261,0.081,0.583,0.169c0.465,0.124,0.791,0.227,0.975,0.305c0.184,0.08,0.328,0.195,0.434,0.346
	c0.105,0.152,0.157,0.34,0.157,0.564c0,0.22-0.064,0.426-0.192,0.62c-0.128,0.193-0.313,0.344-0.554,0.45
	c-0.241,0.105-0.515,0.159-0.819,0.159c-0.506,0-0.89-0.105-1.155-0.315C116.291,86.282,116.121,85.972,116.047,85.56"/>
<path fill="#5D5E5E" d="M121.21,85.56l0.651-0.103c0.036,0.261,0.138,0.461,0.306,0.601c0.167,0.139,0.4,0.207,0.7,0.207
	c0.303,0,0.526-0.061,0.673-0.184s0.22-0.268,0.22-0.435c0-0.147-0.064-0.265-0.194-0.351c-0.089-0.059-0.314-0.133-0.673-0.224
	c-0.482-0.121-0.817-0.227-1.004-0.316c-0.187-0.089-0.328-0.212-0.424-0.369c-0.098-0.157-0.145-0.331-0.145-0.521
	c0-0.173,0.039-0.334,0.118-0.48c0.079-0.147,0.187-0.271,0.324-0.368c0.103-0.075,0.242-0.14,0.419-0.191
	c0.176-0.054,0.366-0.079,0.568-0.079c0.306,0,0.572,0.044,0.803,0.132s0.4,0.207,0.511,0.356c0.11,0.15,0.186,0.351,0.227,0.602
	l-0.644,0.088c-0.029-0.2-0.113-0.355-0.255-0.468c-0.14-0.112-0.338-0.169-0.594-0.169c-0.303,0-0.519,0.051-0.647,0.15
	s-0.194,0.217-0.194,0.352c0,0.086,0.026,0.161,0.081,0.23c0.054,0.071,0.138,0.129,0.252,0.175c0.066,0.025,0.26,0.081,0.582,0.169
	c0.466,0.124,0.791,0.227,0.975,0.305c0.185,0.08,0.329,0.195,0.434,0.346c0.104,0.152,0.157,0.34,0.157,0.564
	c0,0.22-0.064,0.426-0.192,0.62c-0.128,0.193-0.313,0.344-0.554,0.45c-0.241,0.105-0.515,0.159-0.819,0.159
	c-0.505,0-0.89-0.105-1.154-0.315C121.452,86.282,121.284,85.972,121.21,85.56"/>
<rect x="126.622" y="81.355" fill="#5D5E5E" width="0.659" height="5.364"/>
<path fill="#5D5E5E" d="M129.687,88.216l-0.073-0.618c0.145,0.039,0.271,0.059,0.377,0.059c0.146,0,0.264-0.025,0.353-0.073
	c0.088-0.049,0.159-0.117,0.216-0.205c0.041-0.066,0.107-0.229,0.201-0.49c0.012-0.036,0.031-0.091,0.059-0.161l-1.476-3.893h0.711
	l0.809,2.25c0.104,0.285,0.198,0.585,0.281,0.9c0.075-0.303,0.166-0.599,0.271-0.887l0.83-2.264h0.659l-1.479,3.951
	c-0.158,0.426-0.281,0.721-0.369,0.882c-0.117,0.217-0.251,0.376-0.403,0.478c-0.15,0.102-0.331,0.151-0.541,0.151
	C129.986,88.296,129.844,88.27,129.687,88.216"/>
</svg>
