<?xml version="1.0" encoding="utf-8"?>
<!-- Generator: Adobe Illustrator 21.0.0, SVG Export Plug-In . SVG Version: 6.00 Build 0)  -->
<svg version="1.1" id="Layer_1" xmlns="http://www.w3.org/2000/svg" xmlns:xlink="http://www.w3.org/1999/xlink" x="0px" y="0px"
	 viewBox="0 0 30 45" style="enable-background:new 0 0 30 45;" xml:space="preserve">
<style type="text/css">
	.st0{fill:none;stroke:#FFFFFF;stroke-width:2;stroke-linecap:round;stroke-miterlimit:10;}
</style>
<g>
	<path class="st0" d="M15.1,41.5L15.1,41.5c-6.5,0-11.9-5.3-11.9-11.9V15.9C3.3,9.3,8.6,4,15.1,4l0,0C21.7,4,27,9.3,27,15.9v13.8
		C27,36.2,21.7,41.5,15.1,41.5z"/>
	<path class="st0" d="M15.1,16.7L15.1,16.7c-1.2,0-2.3-1-2.3-2.3v-1.8c0-1.2,1-2.3,2.3-2.3l0,0c1.2,0,2.3,1,2.3,2.3v1.8
		C17.4,15.7,16.4,16.7,15.1,16.7z"/>
	<line class="st0" x1="15.1" y1="20.8" x2="15.1" y2="35"/>
</g>
</svg>
