<svg xmlns="http://www.w3.org/2000/svg" width="98" height="72.937" viewBox="0 0 98 72.937">
  <g id="own-cloud" transform="translate(-330.443 -570.937)">
    <g id="Group_18" data-name="Group 18" transform="matrix(0.469, 0.883, -0.883, 0.469, 420.953, 612.618)">
      <g id="Group_2" data-name="Group 2" transform="matrix(0.995, -0.105, 0.105, 0.995, 0, 0.93)">
        <path id="Path_9" data-name="Path 9" d="M0,6.77A15.6,15.6,0,0,0,5.137,4.038,21.239,21.239,0,0,0,8.283,0" transform="translate(0 7.921) rotate(-73)" fill="none" stroke="#178da3" stroke-linecap="round" stroke-width="1"/>
      </g>
      <g id="Ellipse_5" data-name="Ellipse 5" transform="matrix(0.358, -0.934, 0.934, 0.358, 6.225, 13.146)" fill="#fff" stroke="#178da3" stroke-width="1">
        <ellipse cx="0.563" cy="0.563" rx="0.563" ry="0.563" stroke="none"/>
        <ellipse cx="0.563" cy="0.563" rx="0.063" ry="0.063" fill="none"/>
      </g>
    </g>
    <g id="Union_17" data-name="Union 17" transform="translate(330.443 570.937)" fill="none">
      <path d="M16.506,64A16.129,16.129,0,0,1,4.834,59a17.488,17.488,0,0,1-.476-23.623,16.258,16.258,0,0,1,10.68-5.445,16.936,16.936,0,0,1,5.981-6.979,16.069,16.069,0,0,1,14.09-1.826C35.8,9.281,45.977,0,58.284,0A23.489,23.489,0,0,1,74.7,6.561,21.84,21.84,0,0,1,80.738,28.1a23.026,23.026,0,0,1,12.326,6.052,17.068,17.068,0,0,1,3.624,5.14A14.64,14.64,0,0,1,98,45.333a16.016,16.016,0,0,1-6.345,12.445,24.267,24.267,0,0,1-15.318,5.155A25.743,25.743,0,0,1,65.991,60.8H58.8V49.067H55.162a14.536,14.536,0,0,1-.488-3.733c0-.272.008-.541.022-.8a23.49,23.49,0,0,1-8.743-3.153A17.349,17.349,0,0,1,44.761,44.8h1.66v4.266H44.752L43.886,60.8H26.129A16.022,16.022,0,0,1,16.506,64Z" stroke="none"/>
      <path d="M 16.50568008422852 61 C 19.33591079711914 61 22.04452705383301 60.09841537475586 24.33871078491211 58.39270782470703 L 25.13549613952637 57.80029296875 L 26.12837219238281 57.80020141601563 L 40.29721832275391 57.7988166809082 L 40.29721832275391 57.79981994628906 L 41.09895706176758 57.79967880249023 L 41.76032638549805 48.84561538696289 L 41.83754348754883 47.80020141601563 L 40.03003311157227 47.80020141601563 L 42.04780197143555 43.52077102661133 C 42.47214126586914 42.62078475952148 42.80369567871094 41.66970825195313 43.03324890136719 40.69393920898438 L 43.97871017456055 36.67490768432617 L 47.50906372070313 38.81570816040039 C 49.84518814086914 40.23233795166016 52.4130973815918 41.15807723999023 55.14143371582031 41.56721496582031 L 57.84811019897461 41.97310638427734 L 57.69161987304688 44.70557022094727 C 57.68008041381836 44.90700149536133 57.67423629760742 45.11826324462891 57.67423629760742 45.3335075378418 C 57.67423629760742 45.57809448242188 57.68206024169922 45.82264709472656 57.69764709472656 46.06660079956055 L 58.8004035949707 46.06660079956055 L 61.8004035949707 46.06660079956055 L 61.8004035949707 49.06660079956055 L 61.8004035949707 57.80024337768555 L 62.92650985717773 57.80026245117188 L 65.99121856689453 57.80020141601563 L 66.62551116943359 57.80018615722656 L 67.20552825927734 58.05692291259766 C 69.97898864746094 59.28452301025391 73.13663482666016 59.93339920043945 76.33712768554688 59.93339920043945 C 81.43666839599609 59.93339920043945 86.20484924316406 58.34124755859375 89.76334381103516 55.45022964477539 C 93.14025115966797 52.70675277709961 95 49.1138916015625 95 45.3335075378418 C 95 43.68323135375977 94.64769744873047 42.06373977661133 93.952880859375 40.52000045776367 C 93.2646484375 38.99090957641602 92.25701904296875 37.56609344482422 90.95793914794922 36.28510665893555 C 88.25285339355469 33.61770629882813 84.44723510742188 31.76056861877441 80.24214172363281 31.05581474304199 L 76.97520446777344 30.50827598571777 L 77.84272766113281 27.31139945983887 C 78.27577209472656 25.71561622619629 78.49534606933594 24.06304550170898 78.49534606933594 22.39959907531738 C 78.49534606933594 17.23800086975098 76.40647888183594 12.37959957122803 72.61355590820313 8.719353675842285 C 68.79167938232422 5.031169414520264 63.70281982421875 3 58.28437423706055 3 C 47.56410980224609 3 38.70023345947266 11.03926181793213 38.10489654541016 21.30215454101563 L 37.87609481811523 25.24629211425781 L 34.13827896118164 23.96670722961426 C 32.78086471557617 23.50201606750488 31.36037254333496 23.26639938354492 29.91623497009277 23.26639938354492 C 27.34083366394043 23.26639938354492 24.83769607543945 24.02330780029297 22.67738914489746 25.45529174804688 C 20.55469703674316 26.86233901977539 18.85360336303711 28.84893798828125 17.75803375244141 31.20033836364746 L 17.02926445007324 32.76446151733398 L 15.31081962585449 32.92097091674805 C 11.97885036468506 33.22444534301758 8.885049819946289 34.80559921264648 6.599327087402344 37.37318420410156 C 4.278265476226807 39.98047637939453 3.000003814697266 43.37569046020508 3.000003814697266 46.93339920043945 C 3.000003814697266 50.70964431762695 4.417280673980713 54.25476837158203 6.990788459777832 56.91572189331055 C 9.537973403930664 59.54950714111328 12.91709613800049 61 16.50568008422852 61 M 16.50568008422852 64 C 12.09677314758301 64 7.951788425445557 62.22475433349609 4.834311485290527 59.00130844116211 C 1.71684992313385 55.77789306640625 3.814697265625e-06 51.4920768737793 3.814697265625e-06 46.93339920043945 C 3.814697265625e-06 42.63935470581055 1.547911524772644 38.53570938110352 4.358572959899902 35.3784294128418 C 7.152557849884033 32.23990631103516 10.94549655914307 30.30613899230957 15.03871154785156 29.9333381652832 C 16.36789703369141 27.08055305480957 18.43648147583008 24.66718482971191 21.0198802947998 22.95475387573242 C 23.67312622070313 21.19601631164551 26.74943542480469 20.26639938354492 29.91623497009277 20.26639938354492 C 31.69168090820313 20.26639938354492 33.43909454345703 20.55643081665039 35.10992813110352 21.12841606140137 C 35.79717254638672 9.28113842010498 45.97724914550781 0 58.28437423706055 0 C 64.48404693603516 0 70.31275939941406 2.329938411712646 74.69678497314453 6.560615539550781 C 79.08090972900391 10.79136943817139 81.49534606933594 16.41643142700195 81.49534606933594 22.39959907531738 C 81.49534606933594 24.32841491699219 81.24052429199219 26.24530792236328 80.73802185058594 28.09707641601563 C 85.54644775390625 28.9029541015625 89.92432403564453 31.05270767211914 93.06432342529297 34.14896774291992 C 94.6282958984375 35.69113922119141 95.84766387939453 37.42041397094727 96.68856048583984 39.2887077331543 C 97.55877685546875 41.22213745117188 98 43.25589370727539 98 45.3335075378418 C 98 50.03473663330078 95.74665069580078 54.45452117919922 91.65500640869141 57.77865982055664 C 87.56348419189453 61.10273742675781 82.12346649169922 62.93339920043945 76.33712768554688 62.93339920043945 C 72.72171020507813 62.93339920043945 69.14417266845703 62.19575500488281 65.99127960205078 60.80020141601563 L 62.92657470703125 60.80026245117188 L 58.8004035949707 60.80020141601563 L 58.8004035949707 49.06660079956055 L 55.1623420715332 49.06660079956055 C 54.83809661865234 47.84678649902344 54.67423629760742 46.59106063842773 54.67423629760742 45.3335075378418 C 54.67423629760742 45.0611686706543 54.68174362182617 44.79219818115234 54.69652557373047 44.5340461730957 C 51.57252502441406 44.06557083129883 48.63061904907227 43.00430679321289 45.95352554321289 41.38092422485352 C 45.67557144165039 42.56246185302734 45.27386474609375 43.71310806274414 44.76129531860352 44.80020141601563 L 46.42087936401367 44.80020141601563 L 46.42087936401367 49.06660079956055 L 44.75217437744141 49.06660079956055 L 43.88557434082031 60.7991828918457 L 38.16855621337891 60.80020141601563 L 40.29751205444336 60.7988166809082 L 26.12866592407227 60.80020141601563 C 23.3132495880127 62.89344787597656 19.98543548583984 64 16.50568008422852 64 Z" stroke="none" fill="#178da3"/>
    </g>
    <path id="Path_37" data-name="Path 37" d="M993.027,677.295h33.145l-1.161-28.847-28.924-1.51s-14.288,5.847-14.21,6.854,1.433,9.138,1.859,9.874,3.756,4.8,3.988,5.072S993.027,677.295,993.027,677.295Z" transform="translate(-626.01 -48.748)" fill="#fff"/>
    <g id="Group_24" data-name="Group 24" transform="translate(366.721 606.941)">
      <line id="Line_3" data-name="Line 3" y2="35.933" transform="translate(14.7)" fill="none" stroke="#98ca3c" stroke-linecap="round" stroke-width="2"/>
      <line id="Line_4" data-name="Line 4" y1="11.433" x2="14.7" fill="none" stroke="#98ca3c" stroke-linecap="round" stroke-width="2"/>
      <line id="Line_5" data-name="Line 5" x1="14.7" y1="11.433" transform="translate(14.7)" fill="none" stroke="#98ca3c" stroke-linecap="round" stroke-width="2"/>
    </g>
    <rect id="Rectangle_43" data-name="Rectangle 43" width="4" height="8" transform="translate(373.443 625.937)" fill="#fff"/>
    <rect id="Rectangle_44" data-name="Rectangle 44" width="3" height="8" transform="translate(386.443 625.937)" fill="#fff"/>
  </g>
</svg>
