<svg xmlns="http://www.w3.org/2000/svg" width="64.478" height="72.281" viewBox="0 0 64.478 72.281">
  <g id="safe-secured" transform="translate(-62 -566)">
    <g id="Group_37" data-name="Group 37" transform="translate(62 566)">
      <g id="Union_2" data-name="Union 2" transform="translate(0 0)" fill="none" stroke-linecap="round">
        <path d="M32.37,72.264C31.707,72.077,11.7,66.3,4.353,51.613-3.116,36.674,1.292,12.256,1.292,12.256a73.2,73.2,0,0,0,16.8-3.984A63.216,63.216,0,0,0,32.386,0V.024a57.921,57.921,0,0,0,14,8.248,73.2,73.2,0,0,0,16.8,3.984s4.407,24.418-3.062,39.357S32.37,72.281,32.37,72.281Z" stroke="none"/>
        <path d="M 32.38758850097656 69.13224029541016 C 34.02047729492188 68.59440612792969 37.84768295288086 67.21554565429688 42.12176895141602 64.85323333740234 C 45.38613510131836 63.04900741577148 48.27060699462891 61.03113555908203 50.69506454467773 58.8557014465332 C 53.64760589599609 56.20640563964844 55.91716003417969 53.3181266784668 57.44067764282227 50.27107620239258 C 58.99505233764648 47.16234970092773 60.11764144897461 43.29659652709961 60.77727508544922 38.78121948242188 C 61.31885147094727 35.07400894165039 61.54816055297852 30.9388427734375 61.45883941650391 26.49057197570801 C 61.36016082763672 21.57600975036621 60.88839721679688 17.35218238830566 60.56005859375 14.93995666503906 C 57.26176452636719 14.45420265197754 51.00137329101563 13.31609058380127 45.28390121459961 11.06307792663574 C 39.66130447387695 8.846444129943848 34.85628128051758 5.624667644500732 32.33898162841797 3.774722814559937 C 29.74679756164551 5.620687484741211 24.81065368652344 8.848906517028809 19.19381713867188 11.06324291229248 C 13.4767017364502 13.31613826751709 7.216304302215576 14.45422649383545 3.918017387390137 14.93997097015381 C 3.58953332901001 17.35251617431641 3.117650747299194 21.57611083984375 3.018817663192749 26.49066543579102 C 2.929370641708374 30.93892478942871 3.158570528030396 35.07407760620117 3.700064659118652 38.78127670288086 C 4.35960578918457 43.296630859375 5.482147216796875 47.16236114501953 7.036511898040771 50.27109146118164 C 8.544394493103027 53.2868766784668 10.79846477508545 56.14783096313477 13.73611164093018 58.77447891235352 C 16.15704154968262 60.93911361694336 19.04298210144043 62.94919586181641 22.31377029418945 64.74888610839844 C 26.77053451538086 67.20114135742188 30.74126625061035 68.60194396972656 32.38758850097656 69.13224029541016 M 32.36958312988281 72.2811279296875 L 32.36958312988281 72.26441955566406 C 31.70724105834961 72.07677459716797 11.69861793518066 66.30358123779297 4.353229522705078 51.61272430419922 C -3.116194248199463 36.67388916015625 1.291735172271729 12.2558422088623 1.291735172271729 12.2558422088623 C 1.291735172271729 12.2558422088623 10.31981754302979 11.33561897277832 18.09394645690918 8.272136688232422 C 25.8671932220459 5.207665920257568 32.38648986816406 7.208970146166394e-06 32.38648986816406 7.208970146166394e-06 L 32.38648986816406 0.02391309104859829 C 32.38648986816406 0.02391309104859829 38.61101913452148 5.207665920257568 46.38419342041016 8.272136688232422 C 54.15839385986328 11.33561897277832 63.18640518188477 12.2558422088623 63.18640518188477 12.2558422088623 C 63.18640518188477 12.2558422088623 67.5933837890625 36.67388916015625 60.12395858764648 51.61272430419922 C 52.65452194213867 66.55159759521484 32.36958312988281 72.2811279296875 32.36958312988281 72.2811279296875 Z" stroke="none" fill="#1494a5"/>
      </g>
      <g id="Group_1" data-name="Group 1" transform="translate(42.471 44.361)">
        <g id="Ellipse_1" data-name="Ellipse 1" transform="translate(0 14.465)" fill="#fff" stroke="#178da3" stroke-width="1">
          <circle cx="0.602" cy="0.602" r="0.602" stroke="none"/>
          <circle cx="0.602" cy="0.602" r="0.102" fill="none"/>
        </g>
        <path id="Path_5" data-name="Path 5" d="M0,11.113a44.831,44.831,0,0,0,6.912-5.15A29.862,29.862,0,0,0,11.655,0" transform="matrix(0.985, -0.174, 0.174, 0.985, 1.202, 2.024)" fill="none" stroke="#178da3" stroke-linecap="round" stroke-width="1"/>
      </g>
      <g id="Group_19" data-name="Group 19" transform="translate(21.684 25.298)">
        <path id="Path_41" data-name="Path 41" d="M710.583,756.37l7.027,7.529,7.472-7.018,10.7-10.049" transform="translate(-710.583 -746.833)" fill="none" stroke="#98ca3c" stroke-linecap="round" stroke-linejoin="round" stroke-width="2"/>
        <path id="Path_42" data-name="Path 42" d="M710.583,755.483" transform="translate(-710.583 -745.946)" fill="none" stroke="#c3e08d" stroke-linecap="round" stroke-linejoin="round" stroke-width="0.5"/>
      </g>
    </g>
  </g>
</svg>
