<svg xmlns="http://www.w3.org/2000/svg" width="75.656" height="72.177" viewBox="0 0 75.656 72.177">
  <g id="sharing-fly" transform="translate(-0.798 -0.052)">
    <g id="Group_36" data-name="Group 36">
      <g id="Group_33" data-name="Group 33">
        <g id="Path_66" data-name="Path 66">
          <path id="Path_439" data-name="Path 439" d="M65.842,41.6a.881.881,0,0,1-.1-.005,1,1,0,0,1-.894-1.1c.011-.119,1.075-11.943-8.591-19.7a1,1,0,0,1,1.252-1.56c10.535,8.45,9.383,20.932,9.329,21.459A1,1,0,0,1,65.842,41.6Z" fill="#98ca3c"/>
        </g>
        <g id="Path_67" data-name="Path 67">
          <path id="Path_440" data-name="Path 440" d="M65.842,41.1a.453.453,0,0,1-.052,0,.5.5,0,0,1-.446-.548c.011-.121,1.114-12.2-8.776-20.136a.5.5,0,0,1,.625-.78c10.326,8.281,9.159,20.892,9.145,21.017A.5.5,0,0,1,65.842,41.1Z" fill="#a7de43"/>
        </g>
        <g id="Ellipse_30" data-name="Ellipse 30">
          <g id="Group_268" data-name="Group 268">
            <circle id="Ellipse_45" data-name="Ellipse 45" cx="14.905" cy="14.905" r="14.905" transform="translate(46.639 40.049)" fill="none"/>
          </g>
          <g id="Group_269" data-name="Group 269">
            <path id="Path_441" data-name="Path 441" d="M61.553,69.865A14.924,14.924,0,0,1,47.541,49.847h0A14.9,14.9,0,1,1,61.553,69.865ZM50.359,50.874a11.905,11.905,0,1,0,15.263-7.1,11.836,11.836,0,0,0-15.263,7.1Z" fill="#178da3"/>
          </g>
        </g>
        <g id="Group_31" data-name="Group 31">
          <g id="Group_2" data-name="Group 2">
            <g id="Path_9" data-name="Path 9">
              <path id="Path_442" data-name="Path 442" d="M64.022,63.84a.5.5,0,0,1-.21-.953,12.437,12.437,0,0,0,4.217-3.24,12.729,12.729,0,0,0,2.18-4.819.5.5,0,0,1,.98.195,13.748,13.748,0,0,1-2.37,5.236,13.289,13.289,0,0,1-4.586,3.534A.491.491,0,0,1,64.022,63.84Z" fill="#178da3"/>
            </g>
          </g>
          <g id="Ellipse_5" data-name="Ellipse 5">
            <g id="Group_270" data-name="Group 270">
              <circle id="Ellipse_46" data-name="Ellipse 46" cx="0.6" cy="0.6" r="0.6" transform="translate(61.671 63.011)" fill="#fff"/>
            </g>
            <g id="Group_271" data-name="Group 271">
              <path id="Path_443" data-name="Path 443" d="M62.27,64.212h-.032a.6.6,0,0,1-.565-.642h0a.61.61,0,0,1,.64-.556l.208.014.2.191a.6.6,0,0,1,.145.435A.6.6,0,0,1,62.27,64.212Zm0-.527-.3.189a.406.406,0,0,0,.273.137Zm.4-.045h0a.4.4,0,0,0-.371-.427.426.426,0,0,0-.428.37l.4.028-.065-.075.069.016,0-.04.031.048Z" fill="#178da3"/>
            </g>
          </g>
        </g>
        <g id="Path_68" data-name="Path 68">
          <path id="Path_444" data-name="Path 444" d="M44.814,72.229" fill="none" stroke="#a7de43" stroke-linecap="round" stroke-width="1"/>
        </g>
        <g id="Path_69" data-name="Path 69">
          <path id="Path_445" data-name="Path 445" d="M65.842,41.6a.881.881,0,0,1-.1-.005,1,1,0,0,1-.894-1.1c.011-.119,1.075-11.943-8.591-19.7a1,1,0,0,1,1.252-1.56c10.535,8.45,9.383,20.932,9.329,21.459A1,1,0,0,1,65.842,41.6Z" fill="#98ca3c"/>
        </g>
        <g id="Ellipse_31" data-name="Ellipse 31">
          <g id="Group_272" data-name="Group 272">
            <circle id="Ellipse_47" data-name="Ellipse 47" cx="14.905" cy="14.905" r="14.905" transform="translate(46.639 40.049)" fill="none"/>
          </g>
          <g id="Group_273" data-name="Group 273">
            <path id="Path_446" data-name="Path 446" d="M61.553,69.865A14.924,14.924,0,0,1,47.541,49.847h0A14.9,14.9,0,1,1,61.553,69.865ZM50.359,50.874a11.905,11.905,0,1,0,15.263-7.1,11.836,11.836,0,0,0-15.263,7.1Z" fill="#178da3"/>
          </g>
        </g>
        <g id="Group_32" data-name="Group 32">
          <g id="Group_2-2" data-name="Group 2-2">
            <g id="Path_9-2" data-name="Path 9-2">
              <path id="Path_447" data-name="Path 447" d="M64.022,63.84a.5.5,0,0,1-.21-.953,12.437,12.437,0,0,0,4.217-3.24,12.729,12.729,0,0,0,2.18-4.819.5.5,0,0,1,.98.195,13.748,13.748,0,0,1-2.37,5.236,13.289,13.289,0,0,1-4.586,3.534A.491.491,0,0,1,64.022,63.84Z" fill="#178da3"/>
            </g>
          </g>
          <g id="Ellipse_5-2" data-name="Ellipse 5-2">
            <g id="Group_274" data-name="Group 274">
              <circle id="Ellipse_48" data-name="Ellipse 48" cx="0.6" cy="0.6" r="0.6" transform="translate(61.671 63.011)" fill="#fff"/>
            </g>
            <g id="Group_275" data-name="Group 275">
              <path id="Path_448" data-name="Path 448" d="M62.27,64.212h-.032a.6.6,0,0,1-.565-.642h0a.61.61,0,0,1,.64-.556l.208.014.2.191a.6.6,0,0,1,.145.435A.6.6,0,0,1,62.27,64.212Zm0-.527-.3.189a.406.406,0,0,0,.273.137Zm.4-.045h0a.4.4,0,0,0-.371-.427.426.426,0,0,0-.428.37l.4.028-.065-.075.069.016,0-.04.031.048Z" fill="#178da3"/>
            </g>
          </g>
        </g>
        <g id="Path_71" data-name="Path 71">
          <path id="Path_449" data-name="Path 449" d="M44.814,72.229" fill="none" stroke="#a7de43" stroke-linecap="round" stroke-width="1"/>
        </g>
      </g>
      <g id="Group_34" data-name="Group 34">
        <g id="Path_66-2" data-name="Path 66-2">
          <path id="Path_450" data-name="Path 450" d="M39.848,71.691a26.249,26.249,0,0,1-14.315-4.343,1,1,0,0,1,1.17-1.622c.1.069,9.808,6.9,21.35,2.4a1,1,0,1,1,.726,1.863A24.446,24.446,0,0,1,39.848,71.691Z" fill="#98ca3c"/>
        </g>
        <g id="Path_67-2" data-name="Path 67-2">
          <path id="Path_451" data-name="Path 451" d="M39.955,71.16a26.467,26.467,0,0,1-14.129-4.218.5.5,0,1,1,.585-.81c.1.071,10.011,7.063,21.823,2.465a.5.5,0,1,1,.364.931A23.651,23.651,0,0,1,39.955,71.16Z" fill="#a7de43"/>
        </g>
        <g id="Ellipse_30-2" data-name="Ellipse 30-2">
          <g id="Group_276" data-name="Group 276">
            <circle id="Ellipse_49" data-name="Ellipse 49" cx="14.901" cy="14.901" r="14.901" transform="translate(0.894 40.836)" fill="none"/>
          </g>
          <g id="Group_277" data-name="Group 277">
            <path id="Path_452" data-name="Path 452" d="M15.788,70.64a14.922,14.922,0,1,1,2.588-.227A14.926,14.926,0,0,1,15.788,70.64Zm.032-26.807a12.01,12.01,0,0,0-2.088.184,11.9,11.9,0,1,0,13.783,9.658h0A11.906,11.906,0,0,0,15.82,43.833Z" fill="#178da3"/>
          </g>
        </g>
        <g id="Group_31-2" data-name="Group 31-2">
          <g id="Group_2-3" data-name="Group 2-3">
            <g id="Path_9-3" data-name="Path 9-3">
              <path id="Path_453" data-name="Path 453" d="M11.229,64.119a.5.5,0,0,1-.33-.124,14.52,14.52,0,0,1-3.352-4.557,13.3,13.3,0,0,1-.775-5.75.515.515,0,0,1,.541-.455.5.5,0,0,1,.455.541,12.455,12.455,0,0,0,.7,5.272,13.509,13.509,0,0,0,3.092,4.2.5.5,0,0,1,.046.705A.493.493,0,0,1,11.229,64.119Z" fill="#178da3"/>
            </g>
          </g>
          <g id="Ellipse_5-3" data-name="Ellipse 5-3">
            <g id="Group_278" data-name="Group 278">
              <circle id="Ellipse_50" data-name="Ellipse 50" cx="0.6" cy="0.6" r="0.6" transform="translate(7.269 51.46)" fill="#fff"/>
            </g>
            <g id="Group_279" data-name="Group 279">
              <path id="Path_454" data-name="Path 454" d="M7.943,52.688l-.464-.127-.149-.238a.6.6,0,0,1,.275-.8.606.606,0,0,1,.8.271l.094.195-.136.47Zm-.138-.6-.293.146a.394.394,0,0,0,.528.182.4.4,0,0,0,.188-.537l-.31.151.041-.019-.09.045.044.088Zm-.313-.167a.4.4,0,0,0,.016.306l.281-.148Zm.377-.266a.407.407,0,0,0-.178.041l.144.293L8,51.681A.405.405,0,0,0,7.869,51.66Z" fill="#178da3"/>
            </g>
          </g>
        </g>
        <g id="Path_68-2" data-name="Path 68-2">
          <path id="Path_455" data-name="Path 455" d="M9.236,32.517" fill="none" stroke="#a7de43" stroke-linecap="round" stroke-width="1"/>
        </g>
        <g id="Path_69-2" data-name="Path 69-2">
          <path id="Path_456" data-name="Path 456" d="M39.848,71.691a26.249,26.249,0,0,1-14.315-4.343,1,1,0,0,1,1.17-1.622c.1.069,9.808,6.9,21.35,2.4a1,1,0,1,1,.726,1.863A24.446,24.446,0,0,1,39.848,71.691Z" fill="#98ca3c"/>
        </g>
        <g id="Path_72" data-name="Path 72">
          <g id="Group_280" data-name="Group 280">
            <path id="Path_457" data-name="Path 457" d="M27.1,65.27a14.9,14.9,0,1,1-1.756-20.93A14.94,14.94,0,0,1,27.1,65.27Z" fill="none"/>
          </g>
          <g id="Group_281" data-name="Group 281">
            <path id="Path_458" data-name="Path 458" d="M24.8,63.341a11.482,11.482,0,0,0,2.72-8.685,12.061,12.061,0,0,0-4.184-8.082,11.478,11.478,0,0,0-8.685-2.72A12.059,12.059,0,0,0,6.57,48.038a11.474,11.474,0,0,0-2.72,8.685,12.057,12.057,0,0,0,4.184,8.082,11.48,11.48,0,0,0,8.684,2.72A12.244,12.244,0,0,0,24.8,63.341m2.3,1.929a14.9,14.9,0,1,1-1.756-20.93A14.94,14.94,0,0,1,27.1,65.27Z" fill="#178da3"/>
          </g>
        </g>
        <g id="Group_32-2" data-name="Group 32-2">
          <g id="Group_2-4" data-name="Group 2-4">
            <g id="Path_9-4" data-name="Path 9-4">
              <path id="Path_459" data-name="Path 459" d="M11.229,64.119a.5.5,0,0,1-.33-.124,14.52,14.52,0,0,1-3.352-4.557,13.3,13.3,0,0,1-.775-5.75.515.515,0,0,1,.541-.455.5.5,0,0,1,.455.541,12.455,12.455,0,0,0,.7,5.272,13.509,13.509,0,0,0,3.092,4.2.5.5,0,0,1,.046.705A.493.493,0,0,1,11.229,64.119Z" fill="#178da3"/>
            </g>
          </g>
          <g id="Ellipse_5-4" data-name="Ellipse 5-4">
            <g id="Group_282" data-name="Group 282">
              <circle id="Ellipse_51" data-name="Ellipse 51" cx="0.6" cy="0.6" r="0.6" transform="translate(7.269 51.46)" fill="#fff"/>
            </g>
            <g id="Group_283" data-name="Group 283">
              <path id="Path_460" data-name="Path 460" d="M7.943,52.688l-.464-.127-.149-.238a.6.6,0,0,1,.275-.8.606.606,0,0,1,.8.271l.094.195-.136.47Zm-.138-.6-.293.146a.394.394,0,0,0,.528.182.4.4,0,0,0,.188-.537l-.31.151.041-.019-.09.045.044.088Zm-.313-.167a.4.4,0,0,0,.016.306l.281-.148Zm.377-.266a.407.407,0,0,0-.178.041l.144.293L8,51.681A.405.405,0,0,0,7.869,51.66Z" fill="#178da3"/>
            </g>
          </g>
        </g>
        <g id="Path_71-2" data-name="Path 71-2">
          <path id="Path_461" data-name="Path 461" d="M9.236,32.517" fill="none" stroke="#a7de43" stroke-linecap="round" stroke-width="1"/>
        </g>
      </g>
      <g id="Group_35" data-name="Group 35">
        <g id="Path_66-3" data-name="Path 66-3">
          <path id="Path_462" data-name="Path 462" d="M10.284,37.589a1,1,0,0,1-.99-1.152c2.048-13.349,13.434-18.6,13.917-18.812a1,1,0,0,1,.819,1.824c-.108.049-10.88,5.044-12.759,17.291A1,1,0,0,1,10.284,37.589Z" fill="#98ca3c"/>
        </g>
        <g id="Path_67-3" data-name="Path 67-3">
          <path id="Path_463" data-name="Path 463" d="M10.283,37.089a.486.486,0,0,1-.076-.006.5.5,0,0,1-.418-.57C11.8,23.431,23.3,18.133,23.416,18.081a.5.5,0,0,1,.409.912c-.111.05-11.126,5.14-13.048,17.671A.5.5,0,0,1,10.283,37.089Z" fill="#a7de43"/>
        </g>
        <g id="Ellipse_30-3" data-name="Ellipse 30-3">
          <g id="Group_284" data-name="Group 284">
            <circle id="Ellipse_52" data-name="Ellipse 52" cx="14.904" cy="14.904" r="14.904" transform="translate(23.222 0.052)" fill="none"/>
          </g>
          <g id="Group_285" data-name="Group 285">
            <path id="Path_464" data-name="Path 464" d="M38.15,29.86q-.66,0-1.327-.058a14.873,14.873,0,1,1,1.327.058Zm-.034-26.8a11.9,11.9,0,1,0,9.13,4.249A11.85,11.85,0,0,0,38.116,3.058Z" fill="#178da3"/>
          </g>
        </g>
        <g id="Group_31-3" data-name="Group 31-3">
          <g id="Group_2-5" data-name="Group 2-5">
            <g id="Path_9-5" data-name="Path 9-5">
              <path id="Path_465" data-name="Path 465" d="M44.139,9.144a.5.5,0,0,1-.287-.09,12.449,12.449,0,0,0-4.914-2.032,13.967,13.967,0,0,0-5.285.529.5.5,0,0,1-.281-.96,15.027,15.027,0,0,1,5.7-.559,13.307,13.307,0,0,1,5.355,2.2.5.5,0,0,1-.287.91Z" fill="#178da3"/>
            </g>
          </g>
          <g id="Ellipse_5-5" data-name="Ellipse 5-5">
            <g id="Group_286" data-name="Group 286">
              <circle id="Ellipse_53" data-name="Ellipse 53" cx="0.6" cy="0.6" r="0.6" transform="translate(44.612 9.481)" fill="#fff"/>
            </g>
            <g id="Group_287" data-name="Group 287">
              <path id="Path_466" data-name="Path 466" d="M45.21,10.681a.594.594,0,0,1-.332-.1l-.173-.116-.122-.473.133-.246a.6.6,0,0,1,.83-.162l.173.116.082.269a.591.591,0,0,1-.093.451A.605.605,0,0,1,45.21,10.681Zm.083-.543-.474.02a.405.405,0,0,0,.17.256.4.4,0,0,0,.553-.107Zm-.08-.456a.4.4,0,0,0-.33.172l.249.172.472-.021a.4.4,0,0,0-.391-.323Z" fill="#178da3"/>
            </g>
          </g>
        </g>
        <g id="Path_68-3" data-name="Path 68-3">
          <path id="Path_467" data-name="Path 467" d="M61.436,20.958" fill="none" stroke="#a7de43" stroke-linecap="round" stroke-width="1"/>
        </g>
        <g id="Path_69-3" data-name="Path 69-3">
          <path id="Path_468" data-name="Path 468" d="M10.284,37.589a1,1,0,0,1-.99-1.152c2.048-13.349,13.434-18.6,13.917-18.812a1,1,0,0,1,.819,1.824c-.108.049-10.88,5.044-12.759,17.291A1,1,0,0,1,10.284,37.589Z" fill="#98ca3c"/>
        </g>
        <g id="Ellipse_31-2" data-name="Ellipse 31-2">
          <g id="Group_288" data-name="Group 288">
            <circle id="Ellipse_54" data-name="Ellipse 54" cx="14.904" cy="14.904" r="14.904" transform="translate(23.222 0.052)" fill="none"/>
          </g>
          <g id="Group_289" data-name="Group 289">
            <path id="Path_469" data-name="Path 469" d="M38.15,29.86q-.66,0-1.327-.058a14.873,14.873,0,1,1,1.327.058Zm-.034-26.8a11.9,11.9,0,1,0,9.13,4.249A11.85,11.85,0,0,0,38.116,3.058Z" fill="#178da3"/>
          </g>
        </g>
        <g id="Group_32-3" data-name="Group 32-3">
          <g id="Group_2-6" data-name="Group 2-6">
            <g id="Path_9-6" data-name="Path 9-6">
              <path id="Path_470" data-name="Path 470" d="M44.139,9.144a.5.5,0,0,1-.287-.09,12.449,12.449,0,0,0-4.914-2.032,13.967,13.967,0,0,0-5.285.529.5.5,0,0,1-.281-.96,15.027,15.027,0,0,1,5.7-.559,13.307,13.307,0,0,1,5.355,2.2.5.5,0,0,1-.287.91Z" fill="#178da3"/>
            </g>
          </g>
          <g id="Ellipse_5-6" data-name="Ellipse 5-6">
            <g id="Group_290" data-name="Group 290">
              <circle id="Ellipse_55" data-name="Ellipse 55" cx="0.6" cy="0.6" r="0.6" transform="translate(44.612 9.481)" fill="#fff"/>
            </g>
            <g id="Group_291" data-name="Group 291">
              <path id="Path_471" data-name="Path 471" d="M45.21,10.681a.594.594,0,0,1-.332-.1l-.173-.116-.122-.473.133-.246a.6.6,0,0,1,.83-.162l.173.116.082.269a.591.591,0,0,1-.093.451A.605.605,0,0,1,45.21,10.681Zm.083-.543-.474.02a.405.405,0,0,0,.17.256.4.4,0,0,0,.553-.107Zm-.08-.456a.4.4,0,0,0-.33.172l.249.172.472-.021a.4.4,0,0,0-.391-.323Z" fill="#178da3"/>
            </g>
          </g>
        </g>
        <g id="Path_71-3" data-name="Path 71-3">
          <path id="Path_472" data-name="Path 472" d="M61.436,20.958" fill="none" stroke="#a7de43" stroke-linecap="round" stroke-width="1"/>
        </g>
      </g>
    </g>
  </g>
</svg>
