<svg xmlns="http://www.w3.org/2000/svg" width="42" height="42" viewBox="0 0 42 42">
  <g id="twiter" transform="translate(-305.506 -2786.506)">
    <g id="Group_235" data-name="Group 235">
      <g id="twitter_1_" data-name="twitter (1)" transform="translate(305.506 2786.506)">
        <path id="Path_891" data-name="Path 891" d="M21,0A21,21,0,1,1,0,21,21,21,0,0,1,21,0Z" transform="translate(0 0)" fill="#fff"/>
        <g id="Group_229" data-name="Group 229" transform="translate(10.983 14.506)">
          <path id="Path_888" data-name="Path 888" d="M45.113,35.953a8.191,8.191,0,0,1-2.358.646,4.117,4.117,0,0,0,1.805-2.271,8.218,8.218,0,0,1-2.607,1,4.109,4.109,0,0,0-7,3.745,11.654,11.654,0,0,1-8.462-4.29,4.11,4.11,0,0,0,1.27,5.481,4.076,4.076,0,0,1-1.859-.514c0,.017,0,.035,0,.052A4.108,4.108,0,0,0,29.2,43.823a4.121,4.121,0,0,1-1.854.071,4.11,4.11,0,0,0,3.835,2.851,8.287,8.287,0,0,1-6.078,1.7,11.675,11.675,0,0,0,17.974-9.837c0-.178,0-.355-.012-.531a8.325,8.325,0,0,0,2.049-2.125Z" transform="translate(-25.103 -34.028)" fill="#23a7fc"/>
        </g>
      </g>
    </g>
  </g>
</svg>
