<svg xmlns="http://www.w3.org/2000/svg" width="602" height="439" viewBox="0 0 602 439">
  <path id="Union_3" data-name="Union 3" d="M0,283.572C0,217.259,44.409,160.646,106.935,138.32,127.362,74.108,190.968,27.283,266.269,27.283a175.987,175.987,0,0,1,60.671,10.68C356.1,14.315,394.16,0,435.789,0,527.584,0,602,69.587,602,155.428c0,51.512-26.8,97.176-68.075,125.456C529,362.591,456.589,427.425,367.98,427.425a173.657,173.657,0,0,1-92.816-26.472C245.99,424.652,207.891,439,166.211,439,74.416,439,0,369.413,0,283.572Z" fill="#dff1f1" opacity="0.36"/>
</svg>
