<svg xmlns="http://www.w3.org/2000/svg" width="72" height="72" viewBox="0 0 72 72">
  <g id="upgrades" transform="translate(-490 -567)">
    <g id="Polygon_1" data-name="Polygon 1" transform="translate(490 567)" fill="#fff">
      <path d="M 36.0001106262207 70.5 L 35.99996566772461 70.5 C 34.95783233642578 70.5 33.9032096862793 70.45193481445313 32.86539840698242 70.35714721679688 L 32.83663177490234 70.35451507568359 L 32.83657836914063 70.35450744628906 C 31.80826377868652 70.25970458984375 30.7721996307373 70.11682891845703 29.75681114196777 69.92980194091797 C 28.73171043395996 69.74098205566406 27.70311164855957 69.50261688232422 26.69957733154297 69.22134399414063 L 26.69451141357422 69.21992492675781 L 26.69383239746094 69.21974182128906 C 25.69403266906738 68.93934631347656 24.69527626037598 68.60971069335938 23.72512435913086 68.23992919921875 L 23.72365570068359 68.23935699462891 L 23.71980094909668 68.23789215087891 C 22.74931716918945 67.8677978515625 21.78418159484863 67.44864654541016 20.85113906860352 66.99207305908203 L 20.84112167358398 66.98714447021484 C 19.9053783416748 66.52886962890625 18.97962188720703 66.02199554443359 18.08955574035645 65.4805908203125 C 17.19855499267578 64.93863677978516 16.32261085510254 64.34957885742188 15.48523330688477 63.72930145263672 L 15.48342227935791 63.72795867919922 L 15.48081111907959 63.72604751586914 C 14.64717769622803 63.10851287841797 13.82853317260742 62.44232559204102 13.05123329162598 61.7486457824707 C 12.27298927307129 61.05413436889648 11.5183219909668 60.31626892089844 10.80722236633301 59.55466842651367 C 10.0955924987793 58.79250717163086 9.411467552185059 57.98948669433594 8.772923469543457 57.16691970825195 L 8.770944595336914 57.16436004638672 C 8.132845878601074 56.34228515625 7.524888038635254 55.48086166381836 6.964010715484619 54.60409164428711 L 6.961377620697021 54.59996032714844 C 6.400122165679932 53.72244644165039 5.872566699981689 52.8084602355957 5.393355369567871 51.88339233398438 C 4.913266658782959 50.95663452148438 4.471033096313477 49.9985466003418 4.077944278717041 49.0338134765625 C 3.68405556678772 48.06712341308594 3.330755472183228 47.07276916503906 3.026988983154297 46.07623672485352 L 3.026566743850708 46.07485961914063 L 3.025455474853516 46.07123565673828 C 2.722577810287476 45.07757949829102 2.46114444732666 44.05523681640625 2.249277830123901 43.03539276123047 C 2.036888837814331 42.01308059692383 1.869500041007996 40.9713249206543 1.751233339309692 39.93650436401367 L 1.751077771186829 39.93510437011719 L 1.750599980354309 39.93103790283203 C 1.632644414901733 38.89888000488281 1.56065559387207 37.84616851806641 1.536955595016479 36.80493545532227 L 1.536922216415405 36.80325698852539 L 1.536811113357544 36.79891586303711 C 1.51318883895874 35.76087951660156 1.537199974060059 34.70599365234375 1.608255505561829 33.66692352294922 C 1.679499983787537 32.62512588500977 1.79931116104126 31.57682418823242 1.964544415473938 30.54842567443848 L 1.964900016784668 30.5462589263916 L 1.965655565261841 30.54141426086426 C 2.130222320556641 29.51731491088867 2.344844341278076 28.48420333862305 2.602888822555542 27.4751148223877 C 2.861577749252319 26.46352577209473 3.169244527816772 25.45417976379395 3.517988920211792 24.47263717651367 C 3.867555618286133 23.48881340026855 4.265733242034912 22.51156997680664 4.702277660369873 21.56580352783203 C 5.139744281768799 20.6180248260498 5.625144481658936 19.68100357055664 6.145922183990479 18.77877044677734 L 6.14680004119873 18.77724647521973 L 6.148711204528809 18.7739143371582 C 6.667510032653809 17.8751106262207 7.235915184020996 16.98637199401855 7.836294174194336 16.13553237915039 L 7.838011264801025 16.13311386108398 C 8.438699722290039 15.28190326690674 9.085810661315918 14.44821357727051 9.761377334594727 13.65519142150879 C 10.43803310394287 12.86090278625488 11.15834426879883 12.08943653106689 11.90328884124756 11.36108112335205 C 12.64915561676025 10.63180255889893 13.43663311004639 9.929036140441895 14.24477767944336 9.271391868591309 L 14.24570274353027 9.27064037322998 L 14.24566650390625 9.270669937133789 C 14.24576568603516 9.270588874816895 14.24583148956299 9.270535469055176 14.24592971801758 9.270455360412598 L 14.24792194366455 9.26883602142334 L 14.24809455871582 9.268693923950195 C 15.055495262146 8.611771583557129 15.90278911590576 7.984201908111572 16.76661109924316 7.403303146362305 L 16.76162147521973 7.406647205352783 L 16.76412200927734 7.404969692230225 L 16.76738929748535 7.402780532836914 C 17.63199996948242 6.821347236633301 18.53381156921387 6.272791862487793 19.44779968261719 5.772358417510986 L 19.44991111755371 5.77120304107666 L 19.45266723632813 5.769680500030518 C 20.36242294311523 5.271580696105957 21.31043243408203 4.807302951812744 22.26613426208496 4.392069816589355 L 22.26675033569336 4.391802310943604 L 22.26662254333496 4.391858577728271 C 22.26685523986816 4.391757011413574 22.26711463928223 4.391644477844238 22.26734924316406 4.391542911529541 L 22.27187728881836 4.389580726623535 L 22.27234077453613 4.38937520980835 C 23.22640419006348 3.975080251693726 24.21083641052246 3.599756240844727 25.19828796386719 3.273858547210693 C 26.18822288513184 2.947136163711548 27.20472145080566 2.6622474193573 28.21990013122559 2.427002906799316 L 28.23251152038574 2.424080610275269 L 28.23259544372559 2.424059629440308 C 29.24380874633789 2.190135717391968 30.27777862548828 1.999866843223572 31.30603408813477 1.858491778373718 L 31.30728149414063 1.858318090438843 C 32.33932876586914 1.71647036075592 33.39028167724609 1.62049663066864 34.43091201782227 1.57306957244873 L 34.44263076782227 1.572534084320068 C 34.95916366577148 1.549169659614563 35.48304748535156 1.537336230278015 36 1.537336230278015 C 36.51663589477539 1.537336230278015 37.04024124145508 1.54915726184845 37.55646514892578 1.572493195533752 L 37.56904602050781 1.57306957244873 C 38.60599899291992 1.620328664779663 39.65325546264648 1.715797662734985 40.68180084228516 1.856819272041321 L 40.68191146850586 1.856836199760437 L 40.69396591186523 1.858491778373718 C 41.72637939453125 2.000425100326538 42.76461029052734 2.191680669784546 43.77983474731445 2.426936149597168 L 43.79528045654297 2.430516242980957 C 44.80536651611328 2.665077447891235 45.81667327880859 2.948748588562012 46.80128860473633 3.273714065551758 L 46.80185317993164 3.273901700973511 L 46.80172348022461 3.273858547210693 C 46.80178451538086 3.273878335952759 46.80191802978516 3.273922920227051 46.80197906494141 3.273942947387695 L 46.80453491210938 3.274791717529297 L 46.8055419921875 3.275119543075562 C 47.79127883911133 3.600592136383057 48.77371597290039 3.975178241729736 49.72578811645508 4.388552188873291 L 49.72620010375977 4.388736248016357 L 49.73383331298828 4.392058372497559 C 50.68947601318359 4.807247161865234 51.63751220703125 5.271536350250244 52.55157852172852 5.772014141082764 L 52.5513916015625 5.771910667419434 L 52.55216598510742 5.772336483001709 C 53.46613311767578 6.272758483886719 54.36797714233398 6.821313858032227 55.23262405395508 7.402791976928711 L 55.23707962036133 7.405780792236328 L 55.2374382019043 7.406018257141113 C 56.10057830810547 7.986640930175781 56.94732284545898 8.61393928527832 57.75422286987305 9.270569801330566 C 58.56327819824219 9.928947448730469 59.35081100463867 10.63175868988037 60.09585571289063 11.36022472381592 C 60.84170150756836 12.08949184417725 61.56198883056641 12.86092472076416 62.23757934570313 13.65395832061768 C 62.91425704956055 14.44828033447266 63.56134414672852 15.28194713592529 64.16194152832031 16.13303565979004 L 64.16351318359375 16.13525772094727 L 64.16507720947266 16.13747024536133 C 64.76366424560547 16.98570251464844 65.33229064941406 17.87475776672363 65.85306549072266 18.77701377868652 C 66.37488555908203 19.68105888366699 66.86026763916016 20.6180591583252 67.29676818847656 21.56373596191406 L 67.29875183105469 21.56805801391602 L 67.29931640625 21.56925773620605 C 67.73526000976563 22.51398086547852 68.13288116455078 23.49001312255859 68.48122406005859 24.47040367126465 L 68.48178863525391 24.47199249267578 L 68.48316955566406 24.4758472442627 C 68.83075714111328 25.45417022705078 69.13842010498047 26.46347999572754 69.39646911621094 27.47255897521973 C 69.65516662597656 28.48419189453125 69.86981201171875 29.51741409301758 70.03506469726563 30.5458927154541 C 70.20049285888672 31.5755672454834 70.32022857666016 32.62274932861328 70.39134216308594 33.66093444824219 L 70.39136505126953 33.66130447387695 L 70.39174652099609 33.66694641113281 C 70.46279907226563 34.70606994628906 70.48682403564453 35.76091384887695 70.46311950683594 36.80219268798828 C 70.43935394287109 37.84621429443359 70.36736297607422 38.89892578125 70.24909973144531 39.93379211425781 C 70.13050842285156 40.97127914428711 69.96309661865234 42.01317977905273 69.751220703125 43.03303527832031 C 69.53911590576172 44.05399322509766 69.27811431884766 45.07490921020508 68.97494506835938 46.06996536254883 L 68.97487640380859 46.0701789855957 L 68.97306823730469 46.07610321044922 C 68.66929626464844 47.07264709472656 68.31597900390625 48.06708145141602 67.92289733886719 49.03178024291992 L 67.92214202880859 49.03362655639648 L 67.92057800292969 49.03750228881836 C 67.52901458740234 49.99845886230469 67.0867919921875 50.95653533935547 66.607666015625 51.88143539428711 C 66.12767028808594 52.80802154541016 65.60035705566406 53.72162628173828 65.03924560546875 54.59902572631836 L 65.0377197265625 54.60140228271484 C 64.47642517089844 55.47903442382813 63.86785507202148 56.34139251708984 63.22894287109375 57.16451263427734 L 63.22750091552734 57.1663703918457 L 63.22505569458008 57.16954803466797 C 62.58916854858398 57.9887580871582 61.90480041503906 58.79209136962891 61.19387817382813 59.55350112915039 L 61.18964385986328 59.55802536010742 L 61.1879768371582 59.55984115600586 C 60.47914505004883 60.31866836547852 59.72709274291992 61.05391693115234 58.95256805419922 61.74526977539063 L 58.95238876342773 61.74542617797852 L 58.94871139526367 61.74870300292969 C 58.17233276367188 62.44155120849609 57.35468673706055 63.10701370239258 56.51843643188477 63.72660064697266 L 56.51826477050781 63.72672653198242 L 56.51482391357422 63.72927093505859 C 55.67746734619141 64.34953308105469 54.80149841308594 64.93861389160156 53.9112548828125 65.48011779785156 C 53.02029037475586 66.02205657958984 52.09447860717773 66.52896881103516 51.15883255004883 66.98719024658203 L 51.15328979492188 66.98991394042969 L 51.15309143066406 66.99001312255859 C 50.22014617919922 67.44670104980469 49.25518035888672 67.86592864990234 48.28471374511719 68.23617553710938 L 48.28411102294922 68.23640441894531 L 48.27977752685547 68.23805999755859 C 47.30744934082031 68.60884857177734 46.30647659301758 68.93927764892578 45.30440902709961 69.22024536132813 L 45.30378723144531 69.22041320800781 L 45.30140686035156 69.22108459472656 C 45.30122375488281 69.22113800048828 45.30101776123047 69.22119903564453 45.30083465576172 69.22124481201172 L 45.30105972290039 69.22118377685547 L 45.30052185058594 69.22133636474609 C 44.29686737060547 69.50262451171875 43.26823425292969 69.74098968505859 42.24320983886719 69.92980194091797 C 41.21834564208984 70.11858367919922 40.17255401611328 70.26234436035156 39.1348991394043 70.35712432861328 L 39.12026596069336 70.35845947265625 L 39.12007904052734 70.35848236083984 C 38.08702850341797 70.45240020751953 37.03745269775391 70.5 36.0001106262207 70.5 Z" stroke="none"/>
      <path d="M 36 3.037315368652344 C 35.5051155090332 3.037315368652344 35.00347137451172 3.048675537109375 34.50885772705078 3.071075439453125 L 34.49916458129883 3.071517944335938 C 33.50454711914063 3.116836547851563 32.49996948242188 3.208541870117188 31.51334762573242 3.344100952148438 L 31.51033020019531 3.344520568847656 C 30.52276611328125 3.480293273925781 29.52970504760742 3.663223266601563 28.55875396728516 3.888221740722656 L 28.55360794067383 3.889411926269531 C 27.58998870849609 4.112876892089844 26.62530136108398 4.383041381835938 25.68598556518555 4.692481994628906 L 25.68593978881836 4.692497253417969 L 25.66841125488281 4.698280334472656 C 24.72197723388672 5.010650634765625 23.7785530090332 5.37042236328125 22.86435317993164 5.767623901367188 L 22.85953903198242 5.769706726074219 C 21.94684982299805 6.166412353515625 21.04157638549805 6.609840393066406 20.16815185546875 7.08807373046875 C 19.29519653320313 7.566024780273438 18.43374252319336 8.089954376220703 17.60772323608398 8.645286560058594 L 17.60747146606445 8.645458221435547 L 17.60367202758789 8.64801025390625 C 16.77668380737305 9.204154968261719 15.96542358398438 9.805084228515625 15.19155120849609 10.43484878540039 C 14.41863632202148 11.06381225585938 13.66543579101563 11.73597717285156 12.95194244384766 12.43360137939453 C 12.23943710327148 13.13023376464844 11.55048370361328 13.86811828613281 10.90422439575195 14.62675476074219 L 10.90177917480469 14.62961196899414 C 10.256103515625 15.38764190673828 9.637660980224609 16.18445587158203 9.063564300537109 16.99798965454102 L 9.061702728271484 17.0006103515625 C 8.487468719482422 17.81439971923828 7.943931579589844 18.66429901123047 7.446083068847656 19.52682495117188 L 7.441795349121094 19.53422927856445 C 6.944915771484375 20.39548110961914 6.481742858886719 21.28981399536133 6.067031860351563 22.18825912475586 L 6.065620422363281 22.19135284423828 L 6.064201354980469 22.1944465637207 C 5.647575378417969 23.09704971313477 5.267486572265625 24.02959060668945 4.934425354003906 24.96637725830078 L 4.933448791503906 24.96917724609375 L 4.931427001953125 24.97487258911133 C 4.5980224609375 25.91317749023438 4.303878784179688 26.87804412841797 4.057136535644531 27.84279632568359 L 4.056129455566406 27.84675216674805 C 3.809303283691406 28.81194305419922 3.604026794433594 29.80007171630859 3.446517944335938 30.78035354614258 L 3.446037292480469 30.78337860107422 L 3.445541381835938 30.78639984130859 C 3.287506103515625 31.76991653442383 3.172920227050781 32.77257537841797 3.104766845703125 33.76924896240234 C 3.036903381347656 34.76171875 3.013893127441406 35.7691535949707 3.036392211914063 36.76361465454102 L 3.03643798828125 36.76530456542969 L 3.036567687988281 36.77081298828125 C 3.059234619140625 37.76678848266602 3.128097534179688 38.7736701965332 3.241531372070313 39.76617813110352 C 3.354644775390625 40.75592041015625 3.514739990234375 41.75232696533203 3.717903137207031 42.73028182983398 C 3.920578002929688 43.705810546875 4.170623779296875 44.68364715576172 4.46112060546875 45.63661193847656 L 4.462638854980469 45.6416015625 C 4.752937316894531 46.59368133544922 5.090591430664063 47.54386901855469 5.467071533203125 48.46782302856445 C 5.842140197753906 49.38832855224609 6.264030456542969 50.3026123046875 6.721084594726563 51.18537902832031 L 6.721649169921875 51.18644714355469 L 6.725273132324219 51.19343566894531 C 7.182792663574219 52.07665252685547 7.686393737792969 52.94931793212891 8.22222900390625 53.78741455078125 L 8.222999572753906 53.78861236572266 L 8.226058959960938 53.79338836669922 C 8.762893676757813 54.63275146484375 9.344894409179688 55.45746994018555 9.952987670898438 56.24090576171875 L 9.954975128173828 56.24345779418945 L 9.956951141357422 56.24600982666016 C 10.56790542602539 57.03310394287109 11.22251892089844 57.80151748657227 11.9025993347168 58.5299072265625 L 11.90897750854492 58.5367431640625 L 11.90919494628906 58.5369758605957 C 12.58757781982422 59.26315689086914 13.30750274658203 59.96689224243164 14.04904556274414 60.62865829467773 L 14.04904556274414 60.628662109375 L 14.04996490478516 60.62948226928711 C 14.79232406616211 61.29198455810547 15.57400894165039 61.92818450927734 16.3734245300293 62.52052307128906 L 16.37381362915039 62.52081298828125 L 16.37805938720703 62.52395248413086 C 17.17903518676758 63.11725997924805 18.0168571472168 63.68068313598633 18.86825942993164 64.19855499267578 L 18.87781143188477 64.20436096191406 L 18.87819290161133 64.20459747314453 C 19.72676086425781 64.72035980224609 20.6091423034668 65.20330810546875 21.50132751464844 65.6402587890625 C 22.39662170410156 66.07872009277344 23.32286071777344 66.48114013671875 24.25430679321289 66.83634948730469 L 24.25460052490234 66.83645629882813 C 25.18570709228516 67.19154357910156 26.14443588256836 67.50794982910156 27.10412979125977 67.77693939208984 L 27.10435104370117 67.77700042724609 C 28.06427001953125 68.04603576660156 29.04811859130859 68.27400970458984 30.02854156494141 68.45461273193359 C 31.00197982788086 68.63391876220703 31.99523544311523 68.77079772949219 32.98109436035156 68.86147308349609 L 33.00182342529297 68.86336517333984 C 33.99445724487305 68.95403289794922 35.00317764282227 69 36.00010681152344 69 C 36.99684524536133 69 38.00553131103516 68.95403289794922 38.99814224243164 68.86336517333984 L 39.00423431396484 68.86280822753906 C 39.99485778808594 68.77215576171875 40.9931640625 68.63482666015625 41.97146987915039 68.45461273193359 C 42.95195388793945 68.27400207519531 43.93581390380859 68.0460205078125 44.89570617675781 67.77698516845703 L 44.89570617675781 67.77699279785156 L 44.89601135253906 67.77690887451172 C 45.85561370849609 67.50794982910156 46.81425857543945 67.19155120849609 47.74531555175781 66.83650970458984 L 47.7457275390625 66.83634185791016 C 48.6735954284668 66.48250579833984 49.59630966186523 66.08179473876953 50.48837280273438 65.64530944824219 L 50.49911499023438 65.64004516601563 C 51.39395141601563 65.20182037353516 52.27945709228516 64.71698760986328 53.13103485107422 64.19899749755859 L 53.13950347900391 64.19384765625 L 53.13970184326172 64.19373321533203 C 53.98850631713867 63.67708587646484 54.82358551025391 63.11534118652344 55.62196350097656 62.52394104003906 L 55.62284851074219 62.52328491210938 C 56.42359924316406 61.93014144897461 57.20654296875 61.29299926757813 57.94994354248047 60.62956619262695 L 57.95310592651367 60.62673950195313 L 57.95325469970703 60.62660980224609 C 58.69375610351563 59.96564483642578 59.41262054443359 59.26290893554688 60.09010314941406 58.5377197265625 L 60.09209442138672 58.53556442260742 L 60.09746932983398 58.52981185913086 C 60.77748107910156 57.80151748657227 61.43206024169922 57.03314208984375 62.04401397705078 56.24476623535156 C 62.65510559082031 55.45746994018555 63.23717498779297 54.63264465332031 63.77407073974609 53.79319763183594 L 63.77827453613281 53.78663635253906 C 64.31391906738281 52.94877624511719 64.8173828125 52.07633209228516 65.27576446533203 51.19145965576172 C 65.73336791992188 50.30810165405273 66.15583801269531 49.39299774169922 66.53141784667969 48.47160720825195 L 66.53240966796875 48.46915435791016 L 66.53379058837891 48.46577453613281 C 66.90977478027344 47.54301452636719 67.24771881103516 46.59187316894531 67.53822326660156 45.63876342773438 L 67.54037475585938 45.63176345825195 C 67.83024597167969 44.68026733398438 68.07975769042969 43.7042350769043 68.28118896484375 42.73465728759766 L 68.28188323974609 42.73126983642578 L 68.28258514404297 42.72788238525391 C 68.48522186279297 41.75252914428711 68.64535522460938 40.75597763061523 68.75814056396484 39.76913070678711 L 68.75861358642578 39.76503372192383 L 68.7587890625 39.76343536376953 C 68.87191772460938 38.77371978759766 68.94076538085938 37.7668342590332 68.96343231201172 36.77077865600586 L 68.96355438232422 36.76588439941406 C 68.98614501953125 35.77070236206055 68.96315002441406 34.76249313354492 68.89505004882813 33.76654052734375 C 68.82715606689453 32.77382659912109 68.71275329589844 31.7723388671875 68.55503845214844 30.78999710083008 L 68.55469512939453 30.78787231445313 L 68.55404663085938 30.78384780883789 C 68.39599609375 29.80012893676758 68.19068145751953 28.81188201904297 67.94322204589844 27.84418869018555 C 67.69638824462891 26.87894058227539 67.40211486816406 25.91356658935547 67.06975555419922 24.97814178466797 L 67.06876373291016 24.97536468505859 L 67.06777954101563 24.97258758544922 C 66.73507690429688 24.03621673583984 66.35533905029297 23.10393142700195 65.93901062011719 22.20135498046875 L 65.93789672851563 22.1989631652832 L 65.93486022949219 22.19238662719727 C 65.51727294921875 21.28768157958984 65.05300903320313 20.39147186279297 64.55709075927734 19.53231811523438 L 64.55551910400391 19.52960205078125 L 64.55393981933594 19.52687072753906 C 64.05693817138672 18.66580963134766 63.51436614990234 17.81728744506836 62.94130706787109 17.0048828125 L 62.93939971923828 17.00218963623047 L 62.93637847900391 16.99790573120117 C 62.36189270019531 16.18382263183594 61.74296569824219 15.38644790649414 61.09571838378906 14.62668228149414 C 60.44949340820313 13.86810684204102 59.76057434082031 13.1302604675293 59.048095703125 12.43363571166992 L 59.03511810302734 12.42094039916992 L 59.03487777709961 12.42070007324219 C 58.32582092285156 11.72817993164063 57.57683563232422 11.06011962890625 56.80836486816406 10.43477630615234 L 56.79690551757813 10.42544555664063 L 56.7965087890625 10.42511749267578 C 56.02684020996094 9.799346923828125 55.21942901611328 9.2015380859375 54.39558792114258 8.647518157958984 C 53.56842422485352 8.091270446777344 52.70584869384766 7.56658935546875 51.83180236816406 7.088035583496094 L 51.81601715087891 7.079391479492188 C 50.94728851318359 6.604354858398438 50.04638671875 6.163398742675781 49.13817596435547 5.768707275390625 L 49.13558959960938 5.767585754394531 C 48.22138977050781 5.370399475097656 47.27799987792969 5.010635375976563 46.33161163330078 4.698280334472656 L 46.3214111328125 4.694915771484375 C 45.37969970703125 4.384437561035156 44.41263580322266 4.113487243652344 43.4466552734375 3.889472961425781 L 43.44122314453125 3.888221740722656 C 42.47011566162109 3.663185119628906 41.47706985473633 3.480262756347656 40.48968505859375 3.344520568847656 L 40.47507476806641 3.342514038085938 C 39.49735641479492 3.208549499511719 38.50212860107422 3.117622375488281 37.51645278930664 3.072227478027344 L 37.5006217956543 3.071502685546875 C 37.0029182434082 3.048820495605469 36.4980354309082 3.037315368652344 36 3.037315368652344 M 36 0.037322998046875 C 36.54587173461914 0.037322998046875 37.09174728393555 0.04975128173828125 37.63719940185547 0.074615478515625 L 37.6373291015625 0.074615478515625 C 38.72821044921875 0.12432861328125 39.81626892089844 0.2237167358398438 40.89811706542969 0.3724441528320313 L 40.89826965332031 0.3724746704101563 C 41.98011779785156 0.5212020874023438 43.05462265014648 0.7191390991210938 44.11846160888672 0.9656600952148438 L 44.11871719360352 0.9657211303710938 C 45.18247985839844 1.212226867675781 46.23447036743164 1.507049560546875 47.27141189575195 1.849281311035156 L 47.27185821533203 1.849433898925781 C 48.30876541137695 2.191658020019531 49.32954025268555 2.580940246582031 50.33103561401367 3.016059875488281 L 50.33155059814453 3.016281127929688 C 51.33303451538086 3.451408386230469 52.31418609619141 3.931907653808594 53.27195358276367 4.456306457519531 L 53.27252960205078 4.456634521484375 C 54.23027038574219 4.981010437011719 55.16361236572266 5.548751831054688 56.06968307495117 6.158058166503906 L 56.07050704956055 6.158615112304688 C 56.97645950317383 6.767845153808594 57.85420227050781 7.418022155761719 58.70100021362305 8.10711669921875 L 58.7018928527832 8.107860565185547 C 59.54877471923828 8.797012329101563 60.36381149291992 9.524375915527344 61.14450454711914 10.28768157958984 L 61.14540100097656 10.28857803344727 C 61.92599868774414 11.05179977416992 62.67143630981445 11.85017776489258 63.37940216064453 12.68122482299805 L 63.38047027587891 12.6824836730957 C 64.08838653564453 13.51346969604492 64.75809478759766 14.37625885009766 65.38750457763672 15.2681770324707 L 65.38858032226563 15.26968383789063 C 66.01799774169922 16.16160202026367 66.60646820068359 17.08170700073242 67.15219116210938 18.02716445922852 L 67.15321350097656 18.0289306640625 C 67.69889068603516 18.97430801391602 68.20123291015625 19.94404602050781 68.65869140625 20.93511962890625 L 68.65962219238281 20.93710708618164 C 69.11708068847656 21.9282112121582 69.52919006347656 22.93961334228516 69.89464569091797 23.96820068359375 L 69.89546203613281 23.9704704284668 C 70.26087951660156 24.99894332885742 70.57928466796875 26.04350662231445 70.84969329833984 27.10092926025391 L 70.85029602050781 27.1032829284668 C 71.12074279785156 28.16084671020508 71.3428955078125 29.23016357421875 71.51605987548828 30.30794143676758 L 71.51645660400391 30.31038665771484 C 71.68959808349609 31.38801193237305 71.81359100341797 32.47295379638672 71.8880615234375 33.56184768676758 L 71.88824462890625 33.56460189819336 C 71.96270751953125 34.65348434448242 71.98756408691406 35.74518966674805 71.96273040771484 36.83633041381836 L 71.96266174316406 36.83903503417969 C 71.93782043457031 37.93021392822266 71.86332702636719 39.01970672607422 71.73938751220703 40.10410690307617 L 71.73910522460938 40.10659790039063 C 71.61515045166016 41.19110870361328 71.44190216064453 42.26940155029297 71.21985626220703 43.33814239501953 L 71.21931457519531 43.34077453613281 C 70.99734497070313 44.40929412841797 70.72682189941406 45.46714019775391 70.40862274169922 46.51105880737305 L 70.40788269042969 46.51345825195313 C 70.089599609375 47.55767059326172 69.72393035888672 48.58684539794922 69.31201171875 49.59778594970703 L 69.31118774414063 49.59982299804688 C 68.89930725097656 50.61064910888672 68.44161987304688 51.60219955444336 67.93955230712891 52.57138824462891 L 67.93850708007813 52.57341003417969 C 67.43643188476563 53.54263305664063 66.89048004150391 54.48849487304688 66.3023681640625 55.40805816650391 L 66.30137634277344 55.40958786010742 C 65.71312713623047 56.32934188842773 65.08330535888672 57.2218132019043 64.41387176513672 58.08425903320313 L 64.41285705566406 58.08556365966797 C 63.74350738525391 58.94789505004883 63.03523635864258 59.77929306030273 62.29024505615234 60.57718658447266 L 62.28924560546875 60.57826995849609 C 61.54411697387695 61.37632751464844 60.76303482055664 62.14001083374023 59.94841003417969 62.86700057983398 L 59.94746017456055 62.86784744262695 C 59.13295364379883 63.59474182128906 58.2857666015625 64.28415679931641 57.40853881835938 64.93395233154297 L 57.40765762329102 64.93460083007813 C 56.53023529052734 65.58455657958984 55.62367248535156 66.19419860839844 54.69077682495117 66.76165771484375 L 54.69007110595703 66.7620849609375 C 53.75727081298828 67.3294677734375 52.79911804199219 67.85410308837891 51.81857681274414 68.33430480957031 L 51.81815338134766 68.33451843261719 C 50.83734130859375 68.81485748291016 49.83515167236328 69.25028228759766 48.81469345092773 69.63943481445313 L 48.81425857543945 69.63960266113281 C 47.79415130615234 70.02861022949219 46.75688171386719 70.37095642089844 45.70563507080078 70.66558837890625 L 45.70531845092773 70.66567993164063 C 44.65363311767578 70.96043395996094 43.58907318115234 71.20711517333984 42.51493072509766 71.40497589111328 C 41.44105911254883 71.60279083251953 40.35873031616211 71.7515869140625 39.27131652832031 71.85090637207031 L 39.27102279663086 71.85092926025391 C 38.18354034423828 71.95025634765625 37.09211730957031 72 36.00010681152344 72 L 35.99996566772461 72 C 34.90792846679688 72 33.81645965576172 71.95025634765625 32.72895431518555 71.85092926025391 L 32.72874069213867 71.85092163085938 C 31.64130401611328 71.7515869140625 30.55896377563477 71.60279083251953 29.48508071899414 71.40497589111328 L 29.48505783081055 71.40496826171875 C 28.41095352172852 71.20711517333984 27.34641265869141 70.96043395996094 26.29475402832031 70.66569519042969 L 26.29450607299805 70.66562652587891 C 25.24318695068359 70.37096405029297 24.20583343505859 70.02860260009766 23.1856575012207 69.63956451416016 L 23.18532943725586 69.63943481445313 C 22.16488265991211 69.25028228759766 21.16269302368164 68.81485748291016 20.18186950683594 68.33451843261719 L 20.18136596679688 68.33427429199219 C 19.20089340209961 67.85408020019531 18.2427864074707 67.32949829101563 17.31003570556641 66.76213836669922 L 17.30923461914063 66.76165008544922 C 16.3763542175293 66.1942138671875 15.46979904174805 65.58456420898438 14.59238815307617 64.93463897705078 L 14.59158706665039 64.93404388427734 C 13.71428298950195 64.28418731689453 12.86704635620117 63.59473037719727 12.05247116088867 62.86779022216797 L 12.05152893066406 62.86695098876953 C 11.23696517944336 62.14001083374023 10.45591735839844 61.37636566162109 9.710834503173828 60.57836532592773 L 9.709835052490234 60.5772819519043 C 8.964801788330078 59.77934265136719 8.256481170654297 58.94789505004883 7.58709716796875 58.08550643920898 L 7.586013793945313 58.0841178894043 C 6.916671752929688 57.22177886962891 6.28692626953125 56.32941436767578 5.698760986328125 55.40979766845703 L 5.697715759277344 55.40817642211914 C 5.109550476074219 54.48855590820313 4.563568115234375 53.54262542724609 4.06146240234375 52.57334136962891 L 4.060455322265625 52.57143402099609 C 3.558387756347656 51.60222625732422 3.1007080078125 50.61065673828125 2.688835144042969 49.59982299804688 L 2.687965393066406 49.59768295288086 C 2.276084899902344 48.58682250976563 1.910438537597656 47.5577392578125 1.5921630859375 46.51362609863281 L 1.591484069824219 46.51136779785156 C 1.273208618164063 45.46726989746094 1.002647399902344 44.40921020507813 0.7806243896484375 43.34050750732422 L 0.78009033203125 43.33795166015625 C 0.5580978393554688 42.26934051513672 0.384857177734375 41.19118881225586 0.2609329223632813 40.1068229675293 L 0.2606201171875 40.10415267944336 C 0.1366806030273438 39.01974105834961 0.0621795654296875 37.93024826049805 0.0373382568359375 36.83906936645508 L 0.03726959228515625 36.83639907836914 C 0.0124359130859375 35.74522399902344 0.03729248046875 34.65349578857422 0.11175537109375 33.5645866394043 L 0.1119384765625 33.56185913085938 C 0.1864013671875 32.47297668457031 0.3103866577148438 31.38805770874023 0.4835433959960938 30.31045913696289 L 0.4839630126953125 30.30778884887695 C 0.6571197509765625 29.23014068603516 0.8792495727539063 28.16093063354492 1.149658203125 27.10349273681641 L 1.150283813476563 27.10102462768555 C 1.420692443847656 26.04355239868164 1.739120483398438 24.99894332885742 2.104568481445313 23.97043609619141 L 2.105354309082031 23.96818923950195 C 2.470809936523438 22.93963623046875 2.882904052734375 21.92824554443359 3.340354919433594 20.93718719482422 L 3.341270446777344 20.93518829345703 C 3.798744201660156 19.94408416748047 4.301109313964844 18.97431945800781 4.846786499023438 18.02890777587891 L 4.847831726074219 18.02711868286133 C 5.393516540527344 17.08171844482422 5.981964111328125 16.16165924072266 6.611343383789063 15.2697868347168 L 6.612434387207031 15.26824569702148 C 7.241867065429688 14.37630462646484 7.911598205566406 13.51348114013672 8.619529724121094 12.68247222900391 L 8.620529174804688 12.68130493164063 C 9.328517913818359 11.85022354125977 10.07398986816406 11.05179977416992 10.85462188720703 10.28853988647461 L 10.85556411743164 10.28762435913086 C 11.63619995117188 9.524364471435547 12.45118713378906 8.797046661376953 13.29800033569336 8.107940673828125 L 13.29888153076172 8.107223510742188 C 14.1457405090332 7.418067932128906 15.02354049682617 6.767845153808594 15.9295654296875 6.158561706542969 L 15.93032836914063 6.158050537109375 C 16.83637619018555 5.548751831054688 17.76970672607422 4.981033325195313 18.72741317749023 4.456672668457031 L 18.72805786132813 4.456321716308594 C 19.68579864501953 3.931915283203125 20.66693115234375 3.451423645019531 21.66839981079102 3.016304016113281 L 21.66889572143555 3.016098022460938 C 22.67041015625 2.580963134765625 23.69122314453125 2.191673278808594 24.72816467285156 1.849433898925781 L 24.72854232788086 1.84930419921875 C 25.76548385620117 1.507057189941406 26.8174934387207 1.212234497070313 27.88127136230469 0.9657211303710938 L 27.88149261474609 0.965667724609375 C 28.94534301757813 0.7191390991210938 30.01985931396484 0.521209716796875 31.10171890258789 0.3724746704101563 L 31.10188293457031 0.3724441528320313 C 32.1837043762207 0.2237167358398438 33.27175140380859 0.12432861328125 34.36260986328125 0.07462310791015625 L 34.36280059814453 0.074615478515625 C 34.90825271606445 0.04975128173828125 35.45412826538086 0.037322998046875 36 0.037322998046875 Z" stroke="none" fill="#178da3"/>
    </g>
    <g id="Group_10" data-name="Group 10" transform="translate(540.182 612.591)">
      <g id="Ellipse_1" data-name="Ellipse 1" transform="translate(-0.182 14.409)" fill="#fff" stroke="#178da3" stroke-width="1">
        <circle cx="0.5" cy="0.5" r="0.5" stroke="none"/>
        <circle cx="0.5" cy="0.5" fill="none"/>
      </g>
      <path id="Path_5" data-name="Path 5" d="M0,11.07A44.655,44.655,0,0,0,6.885,5.94,29.744,29.744,0,0,0,11.61,0" transform="matrix(0.985, -0.174, 0.174, 0.985, 1.415, 2.016)" fill="none" stroke="#178da3" stroke-linecap="round" stroke-width="1"/>
    </g>
    <g id="Path_54" data-name="Path 54" transform="translate(-532.35 -6.253)" fill="none" stroke-linecap="square" stroke-linejoin="round">
      <path d="M1058.952,595.75l-4.467,7.346-8.735,2.382,5.36,7.346-.6,9.033,8.438-2.978,8.041,2.978v-9.033l5.757-7.346-9.033-2.382Z" stroke="none"/>
      <path d="M 1058.9521484375 595.75 L 1054.485473632813 603.0955810546875 L 1045.75 605.47802734375 L 1051.110473632813 612.8235473632813 L 1050.5146484375 621.8566284179688 L 1058.9521484375 618.8787231445313 L 1066.99267578125 621.8566284179688 L 1066.99267578125 612.8235473632813 L 1072.75 605.47802734375 L 1063.716918945313 603.0955810546875 L 1058.9521484375 595.75 M 1058.952270507813 593.75 C 1059.629150390625 593.75 1060.260986328125 594.0925903320313 1060.630126953125 594.66162109375 L 1064.974243164063 601.3588256835938 L 1073.260009765625 603.5441284179688 C 1073.910766601563 603.7157592773438 1074.431640625 604.2031860351563 1074.645874023438 604.8411865234375 C 1074.860229492188 605.4791259765625 1074.7392578125 606.18212890625 1074.324096679688 606.7117919921875 L 1068.99267578125 613.513916015625 L 1068.99267578125 621.8566284179688 C 1068.99267578125 622.5111694335938 1068.67236328125 623.124267578125 1068.13525390625 623.4981689453125 C 1067.795288085938 623.7347412109375 1067.395629882813 623.8566284179688 1066.992553710938 623.8566284179688 C 1066.758544921875 623.8566284179688 1066.5234375 623.8156127929688 1066.298095703125 623.7321166992188 L 1058.935791015625 621.0054321289063 L 1051.180297851563 623.7426147460938 C 1050.963500976563 623.819091796875 1050.738403320313 623.8566284179688 1050.514770507813 623.8566284179688 C 1050.084350585938 623.8566284179688 1049.658935546875 623.7177124023438 1049.306396484375 623.4503784179688 C 1048.770629882813 623.044189453125 1048.474731445313 622.3959350585938 1048.51904296875 621.7249755859375 L 1049.067016601563 613.4161987304688 L 1044.134399414063 606.656982421875 C 1043.74658203125 606.1256103515625 1043.64501953125 605.4374389648438 1043.862548828125 604.8165893554688 C 1044.080078125 604.1957397460938 1044.589111328125 603.7216186523438 1045.223754882813 603.5485229492188 L 1053.190551757813 601.3756713867188 L 1057.243286132813 594.7108764648438 C 1057.600708007813 594.123046875 1058.235229492188 593.7601928710938 1058.923095703125 593.7501831054688 C 1058.932861328125 593.7500610351563 1058.942504882813 593.75 1058.952270507813 593.75 Z" stroke="none" fill="#98ca3c"/>
    </g>
  </g>
</svg>
