<svg xmlns="http://www.w3.org/2000/svg" width="47.929" height="32" viewBox="0 0 47.929 32">
  <path id="uploads" d="M-1709.04,32h-26.041a11.955,11.955,0,0,1-8.2-3.315,11.955,11.955,0,0,1-3.7-8.033,11.955,11.955,0,0,1,2.808-8.387,11.959,11.959,0,0,1,7.793-4.185,14.974,14.974,0,0,1,5.549-5.919A14.982,14.982,0,0,1-1723.086,0a15.077,15.077,0,0,1,2.124.151,15,15,0,0,1,12.581,11.93,9.922,9.922,0,0,1,6.738,3.265,9.921,9.921,0,0,1,2.566,7.034,9.921,9.921,0,0,1-3.039,6.823A9.921,9.921,0,0,1-1709.04,32Zm-13.335-25h0L-1733,17.166h6.644v7.875h7.751V17.166h6L-1722.375,7Z" transform="translate(1747 0)" fill="#fff"/>
</svg>
